<svg xmlns="http://www.w3.org/2000/svg" xmlns:xlink="http://www.w3.org/1999/xlink" width="334" height="306" contentScriptType="application/ecmascript" contentStyleType="text/css" preserveAspectRatio="none" style="width:334px;height:306px;background:#fff" version="1.1" viewBox="0 0 334 306" zoomAndPan="magnify"><defs><filter id="f1aez5c80uitda" width="300%" height="300%" x="-1" y="-1"><feGaussianBlur result="blurOut" stdDeviation="2"/><feColorMatrix in="blurOut" result="blurOut2" type="matrix" values="0 0 0 0 0 0 0 0 0 0 0 0 0 0 0 0 0 0 .4 0"/><feOffset dx="4" dy="4" in="blurOut2" result="blurOut3"/><feBlend in="SourceGraphic" in2="blurOut3" mode="normal"/></filter></defs><g><line style="stroke:#a80036;stroke-width:1;stroke-dasharray:5,5" x1="33" x2="33" y1="84.297" y2="220.828"/><line style="stroke:#a80036;stroke-width:1;stroke-dasharray:5,5" x1="162.5" x2="162.5" y1="84.297" y2="220.828"/><line style="stroke:#a80036;stroke-width:1;stroke-dasharray:5,5" x1="267" x2="267" y1="84.297" y2="220.828"/><text x="14.5" y="80.995" fill="#000" font-family="sans-serif" font-size="14" lengthAdjust="spacing" textLength="32">User</text><ellipse cx="33.5" cy="22.5" fill="#FEFECE" filter="url(#f1aez5c80uitda)" rx="16" ry="16" style="stroke:#a80036;stroke-width:1.5"/><path fill="#FEFECE" d="M33.5,42.5 C37.5,42.5 40.5,42.5 44.5,38.5 C52.5,38.5 60.5,46.5 60.5,54.5 L60.5,58.5 C60.5,62.5 56.5,66.5 52.5,66.5 L14.5,66.5 C10.5,66.5 6.5,62.5 6.5,58.5 L6.5,54.5 C6.5,46.5 14.5,38.5 22.5,38.5 C26.5,42.5 29.5,42.5 33.5,42.5" filter="url(#f1aez5c80uitda)" style="stroke:#a80036;stroke-width:1.5"/><text x="14.5" y="232.823" fill="#000" font-family="sans-serif" font-size="14" lengthAdjust="spacing" textLength="32">User</text><ellipse cx="33.5" cy="253.625" fill="#FEFECE" filter="url(#f1aez5c80uitda)" rx="16" ry="16" style="stroke:#a80036;stroke-width:1.5"/><path fill="#FEFECE" d="M33.5,273.625 C37.5,273.625 40.5,273.625 44.5,269.625 C52.5,269.625 60.5,277.625 60.5,285.625 L60.5,289.625 C60.5,293.625 56.5,297.625 52.5,297.625 L14.5,297.625 C10.5,297.625 6.5,293.625 6.5,289.625 L6.5,285.625 C6.5,277.625 14.5,269.625 22.5,269.625 C26.5,273.625 29.5,273.625 33.5,273.625" filter="url(#f1aez5c80uitda)" style="stroke:#a80036;stroke-width:1.5"/><rect width="68" height="30.297" x="126.5" y="49" fill="#FEFECE" filter="url(#f1aez5c80uitda)" style="stroke:#a80036;stroke-width:1.5"/><text x="133.5" y="68.995" fill="#000" font-family="sans-serif" font-size="14" lengthAdjust="spacing" textLength="54">SecHub</text><rect width="68" height="30.297" x="126.5" y="219.828" fill="#FEFECE" filter="url(#f1aez5c80uitda)" style="stroke:#a80036;stroke-width:1.5"/><text x="133.5" y="239.823" fill="#000" font-family="sans-serif" font-size="14" lengthAdjust="spacing" textLength="54">SecHub</text><rect width="109" height="30.297" x="211" y="49" fill="#FEFECE" filter="url(#f1aez5c80uitda)" style="stroke:#a80036;stroke-width:1.5"/><text x="218" y="68.995" fill="#000" font-family="sans-serif" font-size="14" lengthAdjust="spacing" textLength="95">GoSec + PDS</text><rect width="109" height="30.297" x="211" y="219.828" fill="#FEFECE" filter="url(#f1aez5c80uitda)" style="stroke:#a80036;stroke-width:1.5"/><text x="218" y="239.823" fill="#000" font-family="sans-serif" font-size="14" lengthAdjust="spacing" textLength="95">GoSec + PDS</text><polygon fill="#A80036" points="150.5 111.43 160.5 115.43 150.5 119.43 154.5 115.43" style="stroke:#a80036;stroke-width:1"/><line style="stroke:#a80036;stroke-width:1" x1="33.5" x2="156.5" y1="115.43" y2="115.43"/><text x="40.5" y="110.364" fill="#000" font-family="sans-serif" font-size="13" lengthAdjust="spacing" textLength="81">Uploads files</text><polygon fill="#A80036" points="255.5 140.563 265.5 144.563 255.5 148.563 259.5 144.563" style="stroke:#a80036;stroke-width:1"/><line style="stroke:#a80036;stroke-width:1" x1="162.5" x2="261.5" y1="144.563" y2="144.563"/><text x="169.5" y="139.497" fill="#000" font-family="sans-serif" font-size="13" lengthAdjust="spacing" textLength="81">Uploads files</text><polygon fill="#A80036" points="173.5 169.695 163.5 173.695 173.5 177.695 169.5 173.695" style="stroke:#a80036;stroke-width:1"/><line style="stroke:#a80036;stroke-width:1" x1="167.5" x2="266.5" y1="173.695" y2="173.695"/><text x="179.5" y="168.629" fill="#000" font-family="sans-serif" font-size="13" lengthAdjust="spacing" textLength="70">Gets result</text><polygon fill="#A80036" points="44.5 198.828 34.5 202.828 44.5 206.828 40.5 202.828" style="stroke:#a80036;stroke-width:1"/><line style="stroke:#a80036;stroke-width:1" x1="38.5" x2="161.5" y1="202.828" y2="202.828"/><text x="50.5" y="197.762" fill="#000" font-family="sans-serif" font-size="13" lengthAdjust="spacing" textLength="105">Download report</text></g></svg>