<svg xmlns="http://www.w3.org/2000/svg" xmlns:xlink="http://www.w3.org/1999/xlink" width="1395" height="532" contentScriptType="application/ecmascript" contentStyleType="text/css" preserveAspectRatio="none" style="width:1395px;height:532px;background:#fff" version="1.1" viewBox="0 0 1395 532" zoomAndPan="magnify"><defs><filter id="f13fl4xamk1137" width="300%" height="300%" x="-1" y="-1"><feGaussianBlur result="blurOut" stdDeviation="2"/><feColorMatrix in="blurOut" result="blurOut2" type="matrix" values="0 0 0 0 0 0 0 0 0 0 0 0 0 0 0 0 0 0 .4 0"/><feOffset dx="4" dy="4" in="blurOut2" result="blurOut3"/><feBlend in="SourceGraphic" in2="blurOut3" mode="normal"/></filter></defs><g><polygon fill="#FFF" points="482 102 841 102 848 124.297 851 124.297 851 525 482 525 482 102" filter="url(#f13fl4xamk1137)" style="stroke:#000;stroke-width:1.5"/><line style="stroke:#000;stroke-width:1.5" x1="482" x2="848" y1="124.297" y2="124.297"/><text x="486" y="116.995" fill="#000" font-family="sans-serif" font-size="14" font-weight="bold" lengthAdjust="spacing" textLength="353">com.mercedesbenz.sechub.commons.model</text><rect id="SecHubMessageType" width="165" height="78.414" x="527.5" y="431" fill="#FEFECE" codeLine="7" filter="url(#f13fl4xamk1137)" style="stroke:#a80036;stroke-width:1.5"/><ellipse cx="542.5" cy="447" fill="#EB937F" rx="11" ry="11" style="stroke:#a80036;stroke-width:1"/><path fill="#000" d="M546.6094,453 L538.8906,453 L538.8906,440.6094 L546.6094,440.6094 L546.6094,442.7656 L541.3438,442.7656 L541.3438,445.4375 L546.1094,445.4375 L546.1094,447.5938 L541.3438,447.5938 L541.3438,450.8438 L546.6094,450.8438 L546.6094,453 Z"/><text x="556.5" y="451.154" fill="#000" font-family="sans-serif" font-size="12" lengthAdjust="spacing" textLength="133">SecHubMessageType</text><line style="stroke:#a80036;stroke-width:1.5" x1="528.5" x2="691.5" y1="463" y2="463"/><text x="533.5" y="477.21" fill="#000" font-family="sans-serif" font-size="11" lengthAdjust="spacing" textLength="37">ERROR</text><text x="533.5" y="490.015" fill="#000" font-family="sans-serif" font-size="11" lengthAdjust="spacing" textLength="51">WARNING</text><text x="533.5" y="502.82" fill="#000" font-family="sans-serif" font-size="11" lengthAdjust="spacing" textLength="26">INFO</text><rect id="SecHubMessage" width="161" height="65.609" x="529.5" y="288" fill="#FEFECE" codeLine="13" filter="url(#f13fl4xamk1137)" style="stroke:#a80036;stroke-width:1.5"/><ellipse cx="555.75" cy="304" fill="#ADD1B2" rx="11" ry="11" style="stroke:#a80036;stroke-width:1"/><path fill="#000" d="M558.7188,309.6406 Q558.1406,309.9375 557.5,310.0781 Q556.8594,310.2344 556.1563,310.2344 Q553.6563,310.2344 552.3281,308.5938 Q551.0156,306.9375 551.0156,303.8125 Q551.0156,300.6875 552.3281,299.0313 Q553.6563,297.375 556.1563,297.375 Q556.8594,297.375 557.5,297.5313 Q558.1563,297.6875 558.7188,297.9844 L558.7188,300.7031 Q558.0938,300.125 557.5,299.8594 Q556.9063,299.5781 556.2813,299.5781 Q554.9375,299.5781 554.25,300.6563 Q553.5625,301.7188 553.5625,303.8125 Q553.5625,305.9063 554.25,306.9844 Q554.9375,308.0469 556.2813,308.0469 Q556.9063,308.0469 557.5,307.7813 Q558.0938,307.5 558.7188,306.9219 L558.7188,309.6406 Z"/><text x="572.25" y="308.154" fill="#000" font-family="sans-serif" font-size="12" lengthAdjust="spacing" textLength="104">SecHubMessage</text><line style="stroke:#a80036;stroke-width:1.5" x1="530.5" x2="689.5" y1="320" y2="320"/><text x="535.5" y="334.21" fill="#000" font-family="sans-serif" font-size="11" lengthAdjust="spacing" textLength="149">SecHubMessageType type</text><text x="535.5" y="347.015" fill="#000" font-family="sans-serif" font-size="11" lengthAdjust="spacing" textLength="59">String text</text><rect id="SecHubMessagesList" width="275" height="73.609" x="500.5" y="137" fill="#FEFECE" codeLine="19" filter="url(#f13fl4xamk1137)" style="stroke:#a80036;stroke-width:1.5"/><ellipse cx="567.75" cy="153" fill="#ADD1B2" rx="11" ry="11" style="stroke:#a80036;stroke-width:1"/><path fill="#000" d="M570.7188,158.6406 Q570.1406,158.9375 569.5,159.0781 Q568.8594,159.2344 568.1563,159.2344 Q565.6563,159.2344 564.3281,157.5938 Q563.0156,155.9375 563.0156,152.8125 Q563.0156,149.6875 564.3281,148.0313 Q565.6563,146.375 568.1563,146.375 Q568.8594,146.375 569.5,146.5313 Q570.1563,146.6875 570.7188,146.9844 L570.7188,149.7031 Q570.0938,149.125 569.5,148.8594 Q568.9063,148.5781 568.2813,148.5781 Q566.9375,148.5781 566.25,149.6563 Q565.5625,150.7188 565.5625,152.8125 Q565.5625,154.9063 566.25,155.9844 Q566.9375,157.0469 568.2813,157.0469 Q568.9063,157.0469 569.5,156.7813 Q570.0938,156.5 570.7188,155.9219 L570.7188,158.6406 Z"/><text x="588.25" y="157.154" fill="#000" font-family="sans-serif" font-size="12" lengthAdjust="spacing" textLength="132">SecHubMessagesList</text><line style="stroke:#a80036;stroke-width:1.5" x1="501.5" x2="774.5" y1="169" y2="169"/><text x="506.5" y="183.21" fill="#000" font-family="sans-serif" font-size="11" lengthAdjust="spacing" textLength="66">«JSONable»</text><line style="stroke:#a80036;stroke-width:1.5" x1="501.5" x2="774.5" y1="189.805" y2="189.805"/><text x="506.5" y="204.015" fill="#000" font-family="sans-serif" font-size="11" lengthAdjust="spacing" textLength="263">List&lt;SecHubMessage&gt; getSecHubMessages()</text><rect id="PDSExecutionCallable" width="167" height="32" x="554.5" y="7" fill="#FEFECE" codeLine="31" filter="url(#f13fl4xamk1137)" style="stroke:#a80036;stroke-width:1.5"/><ellipse cx="569.5" cy="23" fill="#ADD1B2" rx="11" ry="11" style="stroke:#a80036;stroke-width:1"/><path fill="#000" d="M572.4688,28.6406 Q571.8906,28.9375 571.25,29.0781 Q570.6094,29.2344 569.9063,29.2344 Q567.4063,29.2344 566.0781,27.5938 Q564.7656,25.9375 564.7656,22.8125 Q564.7656,19.6875 566.0781,18.0313 Q567.4063,16.375 569.9063,16.375 Q570.6094,16.375 571.25,16.5313 Q571.9063,16.6875 572.4688,16.9844 L572.4688,19.7031 Q571.8438,19.125 571.25,18.8594 Q570.6563,18.5781 570.0313,18.5781 Q568.6875,18.5781 568,19.6563 Q567.3125,20.7188 567.3125,22.8125 Q567.3125,24.9063 568,25.9844 Q568.6875,27.0469 570.0313,27.0469 Q570.6563,27.0469 571.25,26.7813 Q571.8438,26.5 572.4688,25.9219 L572.4688,28.6406 Z"/><text x="583.5" y="27.154" fill="#000" font-family="sans-serif" font-size="12" lengthAdjust="spacing" textLength="135">PDSExecutionCallable</text><rect id="PDSMessageCollector" width="248" height="52.805" x="7" y="147.5" fill="#FEFECE" codeLine="35" filter="url(#f13fl4xamk1137)" style="stroke:#a80036;stroke-width:1.5"/><ellipse cx="58.75" cy="163.5" fill="#ADD1B2" rx="11" ry="11" style="stroke:#a80036;stroke-width:1"/><path fill="#000" d="M61.7188,169.1406 Q61.1406,169.4375 60.5,169.5781 Q59.8594,169.7344 59.1563,169.7344 Q56.6563,169.7344 55.3281,168.0938 Q54.0156,166.4375 54.0156,163.3125 Q54.0156,160.1875 55.3281,158.5313 Q56.6563,156.875 59.1563,156.875 Q59.8594,156.875 60.5,157.0313 Q61.1563,157.1875 61.7188,157.4844 L61.7188,160.2031 Q61.0938,159.625 60.5,159.3594 Q59.9063,159.0781 59.2813,159.0781 Q57.9375,159.0781 57.25,160.1563 Q56.5625,161.2188 56.5625,163.3125 Q56.5625,165.4063 57.25,166.4844 Q57.9375,167.5469 59.2813,167.5469 Q59.9063,167.5469 60.5,167.2813 Q61.0938,167 61.7188,166.4219 L61.7188,169.1406 Z"/><text x="79.25" y="167.654" fill="#000" font-family="sans-serif" font-size="12" lengthAdjust="spacing" textLength="136">PDSMessageCollector</text><line style="stroke:#a80036;stroke-width:1.5" x1="8" x2="254" y1="179.5" y2="179.5"/><text x="13" y="193.71" fill="#000" font-family="sans-serif" font-size="11" lengthAdjust="spacing" textLength="236">List&lt;SecHubMessage&gt; collect(File folder)</text><path fill="#FBFB77" d="M290.5,141.5 L290.5,165.1992 L249,189.9023 L290.5,173.1992 L290.5,196.8984 A0,0 0 0 0 290.5,196.8984 L465.5,196.8984 A0,0 0 0 0 465.5,196.8984 L465.5,151.5 L455.5,141.5 L290.5,141.5 A0,0 0 0 0 290.5,141.5" filter="url(#f13fl4xamk1137)" style="stroke:#a80036;stroke-width:1"/><path fill="#FBFB77" d="M455.5,141.5 L455.5,151.5 L465.5,151.5 L455.5,141.5" style="stroke:#a80036;stroke-width:1"/><text x="296.5" y="158.567" fill="#000" font-family="sans-serif" font-size="13" lengthAdjust="spacing" textLength="148">collects all files created</text><text x="296.5" y="173.7" fill="#000" font-family="sans-serif" font-size="13" lengthAdjust="spacing" textLength="154">by launcher script inside</text><text x="296.5" y="188.833" fill="#000" font-family="sans-serif" font-size="13" lengthAdjust="spacing" textLength="106">messages folder</text><rect id="PDSJobTransactionService" width="423" height="52.805" x="867.5" y="147.5" fill="#FEFECE" codeLine="52" filter="url(#f13fl4xamk1137)" style="stroke:#a80036;stroke-width:1.5"/><ellipse cx="993.25" cy="163.5" fill="#ADD1B2" rx="11" ry="11" style="stroke:#a80036;stroke-width:1"/><path fill="#000" d="M996.2188,169.1406 Q995.6406,169.4375 995,169.5781 Q994.3594,169.7344 993.6563,169.7344 Q991.1563,169.7344 989.8281,168.0938 Q988.5156,166.4375 988.5156,163.3125 Q988.5156,160.1875 989.8281,158.5313 Q991.1563,156.875 993.6563,156.875 Q994.3594,156.875 995,157.0313 Q995.6563,157.1875 996.2188,157.4844 L996.2188,160.2031 Q995.5938,159.625 995,159.3594 Q994.4063,159.0781 993.7813,159.0781 Q992.4375,159.0781 991.75,160.1563 Q991.0625,161.2188 991.0625,163.3125 Q991.0625,165.4063 991.75,166.4844 Q992.4375,167.5469 993.7813,167.5469 Q994.4063,167.5469 995,167.2813 Q995.5938,167 996.2188,166.4219 L996.2188,169.1406 Z"/><text x="1013.75" y="167.654" fill="#000" font-family="sans-serif" font-size="12" lengthAdjust="spacing" textLength="163">PDSJobTransactionService</text><line style="stroke:#a80036;stroke-width:1.5" x1="868.5" x2="1289.5" y1="179.5" y2="179.5"/><text x="873.5" y="193.71" fill="#000" font-family="sans-serif" font-size="11" lengthAdjust="spacing" textLength="411">void updateJobMessagesInOwnTransaction(UUID, SecHubMessagesList);</text><rect id="PDSJob" width="110" height="52.805" x="1024" y="294.5" fill="#FEFECE" codeLine="56" filter="url(#f13fl4xamk1137)" style="stroke:#a80036;stroke-width:1.5"/><ellipse cx="1054.3" cy="310.5" fill="#ADD1B2" rx="11" ry="11" style="stroke:#a80036;stroke-width:1"/><path fill="#000" d="M1057.2688,316.1406 Q1056.6906,316.4375 1056.05,316.5781 Q1055.4094,316.7344 1054.7063,316.7344 Q1052.2063,316.7344 1050.8781,315.0938 Q1049.5656,313.4375 1049.5656,310.3125 Q1049.5656,307.1875 1050.8781,305.5313 Q1052.2063,303.875 1054.7063,303.875 Q1055.4094,303.875 1056.05,304.0313 Q1056.7063,304.1875 1057.2688,304.4844 L1057.2688,307.2031 Q1056.6438,306.625 1056.05,306.3594 Q1055.4563,306.0781 1054.8313,306.0781 Q1053.4875,306.0781 1052.8,307.1563 Q1052.1125,308.2188 1052.1125,310.3125 Q1052.1125,312.4063 1052.8,313.4844 Q1053.4875,314.5469 1054.8313,314.5469 Q1055.4563,314.5469 1056.05,314.2813 Q1056.6438,314 1057.2688,313.4219 L1057.2688,316.1406 Z"/><text x="1071.7" y="314.654" fill="#000" font-family="sans-serif" font-size="12" lengthAdjust="spacing" textLength="44">PDSJob</text><line style="stroke:#a80036;stroke-width:1.5" x1="1025" x2="1133" y1="326.5" y2="326.5"/><text x="1030" y="340.71" fill="#000" font-family="sans-serif" font-size="11" lengthAdjust="spacing" textLength="98">String messages</text><path fill="#FBFB77" d="M1169.5,288.5 L1169.5,312.1992 L1128,336.9023 L1169.5,320.1992 L1169.5,343.8984 A0,0 0 0 0 1169.5,343.8984 L1386.5,343.8984 A0,0 0 0 0 1386.5,343.8984 L1386.5,298.5 L1376.5,288.5 L1169.5,288.5 A0,0 0 0 0 1169.5,288.5" filter="url(#f13fl4xamk1137)" style="stroke:#a80036;stroke-width:1"/><path fill="#FBFB77" d="M1376.5,288.5 L1376.5,298.5 L1386.5,298.5 L1376.5,288.5" style="stroke:#a80036;stroke-width:1"/><text x="1175.5" y="305.567" fill="#000" font-family="sans-serif" font-size="13" lengthAdjust="spacing" textLength="196">Contains SecHubMessagesList</text><text x="1175.5" y="320.7" fill="#000" font-family="sans-serif" font-size="13" lengthAdjust="spacing" textLength="134">as JSON after update</text><text x="1175.5" y="335.832" fill="#000" font-family="sans-serif" font-size="13" lengthAdjust="spacing" textLength="186">by PDSJobTransactionService</text><path id="SecHubMessage-backto-SecHubMessageType" fill="none" d="M610,367.38 C610,387.71 610,411.42 610,430.83" codeLine="28" style="stroke:#a80036;stroke-width:1"/><polygon fill="#FFF" points="610 354.26 606 360.26 610 366.26 614 360.26 610 354.26" style="stroke:#a80036;stroke-width:1"/><text x="611" y="397.067" fill="#000" font-family="sans-serif" font-size="13" lengthAdjust="spacing" textLength="23">has</text><path id="SecHubMessagesList-backto-SecHubMessage" fill="none" d="M628.51,224.16 C624.46,245.13 619.84,269.02 616.24,287.7" codeLine="29" style="stroke:#a80036;stroke-width:1"/><polygon fill="#FFF" points="631.01 211.22 625.948 216.356 628.743 223.004 633.804 217.868 631.01 211.22" style="stroke:#a80036;stroke-width:1"/><path id="PDSMessageCollector-to-SecHubMessage" fill="none" d="M215.26,200.51 C302.2,226.82 437.1,267.66 524.5,294.12" codeLine="39" style="stroke:#a80036;stroke-width:1"/><polygon fill="#A80036" points="529.41 295.6 521.965 289.152 524.627 294.144 519.635 296.805 529.41 295.6" style="stroke:#a80036;stroke-width:1"/><text x="401" y="254.067" fill="#000" font-family="sans-serif" font-size="13" lengthAdjust="spacing" textLength="48">creates</text><path id="PDSExecutionCallable-to-PDSMessageCollector" fill="none" d="M554.45,32.36 C479.14,41.68 366.24,60.11 273,94 C237.76,106.81 200.85,127.6 173.49,144.65" codeLine="47" style="stroke:#a80036;stroke-width:1"/><polygon fill="#A80036" points="169.18 147.35 178.929 145.948 173.414 144.69 174.672 139.175 169.18 147.35" style="stroke:#a80036;stroke-width:1"/><text x="352" y="82.067" fill="#000" font-family="sans-serif" font-size="13" lengthAdjust="spacing" textLength="52">uses (1)</text><path id="PDSExecutionCallable-to-SecHubMessagesList" fill="none" d="M638,39.11 C638,60.58 638,100.73 638,131.48" codeLine="49" style="stroke:#a80036;stroke-width:1"/><polygon fill="#A80036" points="638 136.72 642 127.72 638 131.72 634 127.72 638 136.72" style="stroke:#a80036;stroke-width:1"/><text x="639" y="82.067" fill="#000" font-family="sans-serif" font-size="13" lengthAdjust="spacing" textLength="70">creates (2)</text><path id="PDSExecutionCallable-to-PDSJobTransactionService" fill="none" d="M682.71,39.11 C756.72,64.11 905.68,114.44 998.41,145.77" codeLine="50" style="stroke:#a80036;stroke-width:1"/><polygon fill="#A80036" points="1003.33 147.43 996.087 140.756 998.594 145.827 993.523 148.334 1003.33 147.43" style="stroke:#a80036;stroke-width:1"/><text x="820" y="82.067" fill="#000" font-family="sans-serif" font-size="13" lengthAdjust="spacing" textLength="91">stores with (3)</text><path id="PDSJobTransactionService-to-PDSJob" fill="none" d="M1079,200.59 C1079,225.28 1079,262.71 1079,289.06" codeLine="66" style="stroke:#a80036;stroke-width:1"/><polygon fill="#A80036" points="1079 294.18 1083 285.18 1079 289.18 1075 285.18 1079 294.18" style="stroke:#a80036;stroke-width:1"/><text x="1080" y="254.067" fill="#000" font-family="sans-serif" font-size="13" lengthAdjust="spacing" textLength="52">updates</text></g></svg>