<svg xmlns="http://www.w3.org/2000/svg" xmlns:xlink="http://www.w3.org/1999/xlink" width="847" height="944" contentScriptType="application/ecmascript" contentStyleType="text/css" preserveAspectRatio="none" style="width:847px;height:944px;background:#fff" version="1.1" viewBox="0 0 847 944" zoomAndPan="magnify"><defs><filter id="fxw1zxc6vlwy8" width="300%" height="300%" x="-1" y="-1"><feGaussianBlur result="blurOut" stdDeviation="2"/><feColorMatrix in="blurOut" result="blurOut2" type="matrix" values="0 0 0 0 0 0 0 0 0 0 0 0 0 0 0 0 0 0 .4 0"/><feOffset dx="4" dy="4" in="blurOut2" result="blurOut3"/><feBlend in="SourceGraphic" in2="blurOut3" mode="normal"/></filter></defs><g><polygon fill="#FFF" points="237 641 283 641 290 662 472 662 472 696.594 237 696.594 237 641" filter="url(#fxw1zxc6vlwy8)" style="stroke:#000;stroke-width:1.5"/><line style="stroke:#000;stroke-width:1.5" x1="237" x2="290" y1="662" y2="662"/><text x="247" y="681.995" fill="#000" font-family="sans-serif" font-size="14" lengthAdjust="spacing" textLength="205">$workspace/$jobUUID/events</text><path fill="#FFF" d="M330,254 L447,254 C452,254 452,267.1484 452,267.1484 C452,267.1484 452,280.2969 447,280.2969 L330,280.2969 C325,280.2969 325,267.1484 325,267.1484 C325,267.1484 325,254 330,254" filter="url(#fxw1zxc6vlwy8)" style="stroke:#a80036;stroke-width:1.5"/><path fill="none" d="M447,254 C442,254 442,267.1484 442,267.1484 C442,280.2969 447,280.2969 447,280.2969" style="stroke:#a80036;stroke-width:1.5"/><text x="330" y="271.995" fill="#000" font-family="sans-serif" font-size="14" lengthAdjust="spacing" textLength="107">PDS-Job-Queue</text><polygon fill="#FFF" points="618 370 628 360 757 360 757 396.297 747 406.297 618 406.297 618 370" filter="url(#fxw1zxc6vlwy8)" style="stroke:#000;stroke-width:1.5"/><line style="stroke:#000;stroke-width:1.5" x1="747" x2="757" y1="370" y2="360"/><line style="stroke:#000;stroke-width:1.5" x1="618" x2="747" y1="370" y2="370"/><line style="stroke:#000;stroke-width:1.5" x1="747" x2="747" y1="370" y2="406.297"/><text x="633" y="392.995" fill="#000" font-family="sans-serif" font-size="14" lengthAdjust="spacing" textLength="99">launcherScript</text><polygon fill="#FFF" points="507.5 656 517.5 646 613.5 646 613.5 682.297 603.5 692.297 507.5 692.297 507.5 656" filter="url(#fxw1zxc6vlwy8)" style="stroke:#000;stroke-width:1.5"/><line style="stroke:#000;stroke-width:1.5" x1="603.5" x2="613.5" y1="656" y2="646"/><line style="stroke:#000;stroke-width:1.5" x1="507.5" x2="603.5" y1="656" y2="656"/><line style="stroke:#000;stroke-width:1.5" x1="603.5" x2="603.5" y1="656" y2="692.297"/><text x="522.5" y="678.995" fill="#000" font-family="sans-serif" font-size="14" lengthAdjust="spacing" textLength="66">Event File</text><rect id="PDSWorkspaceService" width="553" height="65.609" x="78" y="483" fill="#FEFECE" codeLine="6" filter="url(#fxw1zxc6vlwy8)" style="stroke:#a80036;stroke-width:1.5"/><ellipse cx="280.75" cy="499" fill="#ADD1B2" rx="11" ry="11" style="stroke:#a80036;stroke-width:1"/><path fill="#000" d="M283.7188,504.6406 Q283.1406,504.9375 282.5,505.0781 Q281.8594,505.2344 281.1563,505.2344 Q278.6563,505.2344 277.3281,503.5938 Q276.0156,501.9375 276.0156,498.8125 Q276.0156,495.6875 277.3281,494.0313 Q278.6563,492.375 281.1563,492.375 Q281.8594,492.375 282.5,492.5313 Q283.1563,492.6875 283.7188,492.9844 L283.7188,495.7031 Q283.0938,495.125 282.5,494.8594 Q281.9063,494.5781 281.2813,494.5781 Q279.9375,494.5781 279.25,495.6563 Q278.5625,496.7188 278.5625,498.8125 Q278.5625,500.9063 279.25,501.9844 Q279.9375,503.0469 281.2813,503.0469 Q281.9063,503.0469 282.5,502.7813 Q283.0938,502.5 283.7188,501.9219 L283.7188,504.6406 Z"/><text x="301.25" y="503.154" fill="#000" font-family="sans-serif" font-size="12" lengthAdjust="spacing" textLength="139">PDSWorkspaceService</text><line style="stroke:#a80036;stroke-width:1.5" x1="79" x2="630" y1="515" y2="515"/><ellipse cx="89" cy="526" fill="#84BE84" rx="3" ry="3" style="stroke:#038048;stroke-width:1"/><text x="98" y="529.21" fill="#000" font-family="sans-serif" font-size="11" lengthAdjust="spacing" textLength="527">void sendEvent(UUID jobUUID, ExecutionEventType eventType,ExecutionEventData eventData)</text><ellipse cx="89" cy="538.805" fill="#84BE84" rx="3" ry="3" style="stroke:#038048;stroke-width:1"/><text x="98" y="542.015" fill="#000" font-family="sans-serif" font-size="11" lengthAdjust="spacing" textLength="511">ExecutionEventData fetchEventDataOrNull(UUID jobUUID, ExecutionEventType eventType) {</text><rect id="ExecutionEventData" width="158" height="32" x="351.5" y="846" fill="#FEFECE" codeLine="11" filter="url(#fxw1zxc6vlwy8)" style="stroke:#a80036;stroke-width:1.5"/><ellipse cx="366.5" cy="862" fill="#ADD1B2" rx="11" ry="11" style="stroke:#a80036;stroke-width:1"/><path fill="#000" d="M369.4688,867.6406 Q368.8906,867.9375 368.25,868.0781 Q367.6094,868.2344 366.9063,868.2344 Q364.4063,868.2344 363.0781,866.5938 Q361.7656,864.9375 361.7656,861.8125 Q361.7656,858.6875 363.0781,857.0313 Q364.4063,855.375 366.9063,855.375 Q367.6094,855.375 368.25,855.5313 Q368.9063,855.6875 369.4688,855.9844 L369.4688,858.7031 Q368.8438,858.125 368.25,857.8594 Q367.6563,857.5781 367.0313,857.5781 Q365.6875,857.5781 365,858.6563 Q364.3125,859.7188 364.3125,861.8125 Q364.3125,863.9063 365,864.9844 Q365.6875,866.0469 367.0313,866.0469 Q367.6563,866.0469 368.25,865.7813 Q368.8438,865.5 369.4688,864.9219 L369.4688,867.6406 Z"/><text x="380.5" y="866.154" fill="#000" font-family="sans-serif" font-size="12" lengthAdjust="spacing" textLength="126">ExecutionEventData</text><rect id="PDSExecutionCallableFactory" width="213" height="32" x="7" y="367" fill="#FEFECE" codeLine="20" filter="url(#fxw1zxc6vlwy8)" style="stroke:#a80036;stroke-width:1.5"/><ellipse cx="22" cy="383" fill="#ADD1B2" rx="11" ry="11" style="stroke:#a80036;stroke-width:1"/><path fill="#000" d="M24.9688,388.6406 Q24.3906,388.9375 23.75,389.0781 Q23.1094,389.2344 22.4063,389.2344 Q19.9063,389.2344 18.5781,387.5938 Q17.2656,385.9375 17.2656,382.8125 Q17.2656,379.6875 18.5781,378.0313 Q19.9063,376.375 22.4063,376.375 Q23.1094,376.375 23.75,376.5313 Q24.4063,376.6875 24.9688,376.9844 L24.9688,379.7031 Q24.3438,379.125 23.75,378.8594 Q23.1563,378.5781 22.5313,378.5781 Q21.1875,378.5781 20.5,379.6563 Q19.8125,380.7188 19.8125,382.8125 Q19.8125,384.9063 20.5,385.9844 Q21.1875,387.0469 22.5313,387.0469 Q23.1563,387.0469 23.75,386.7813 Q24.3438,386.5 24.9688,385.9219 L24.9688,388.6406 Z"/><text x="36" y="387.154" fill="#000" font-family="sans-serif" font-size="12" lengthAdjust="spacing" textLength="181">PDSExecutionCallableFactory</text><rect id="PDSExecutionCallable" width="167" height="32" x="305" y="367" fill="#FEFECE" codeLine="22" filter="url(#fxw1zxc6vlwy8)" style="stroke:#a80036;stroke-width:1.5"/><ellipse cx="320" cy="383" fill="#ADD1B2" rx="11" ry="11" style="stroke:#a80036;stroke-width:1"/><path fill="#000" d="M322.9688,388.6406 Q322.3906,388.9375 321.75,389.0781 Q321.1094,389.2344 320.4063,389.2344 Q317.9063,389.2344 316.5781,387.5938 Q315.2656,385.9375 315.2656,382.8125 Q315.2656,379.6875 316.5781,378.0313 Q317.9063,376.375 320.4063,376.375 Q321.1094,376.375 321.75,376.5313 Q322.4063,376.6875 322.9688,376.9844 L322.9688,379.7031 Q322.3438,379.125 321.75,378.8594 Q321.1563,378.5781 320.5313,378.5781 Q319.1875,378.5781 318.5,379.6563 Q317.8125,380.7188 317.8125,382.8125 Q317.8125,384.9063 318.5,385.9844 Q319.1875,387.0469 320.5313,387.0469 Q321.1563,387.0469 321.75,386.7813 Q322.3438,386.5 322.9688,385.9219 L322.9688,388.6406 Z"/><text x="334" y="387.154" fill="#000" font-family="sans-serif" font-size="12" lengthAdjust="spacing" textLength="135">PDSExecutionCallable</text><rect id="PDSBatchTriggerService" width="208" height="52.805" x="75.5" y="121" fill="#FEFECE" codeLine="33" filter="url(#fxw1zxc6vlwy8)" style="stroke:#a80036;stroke-width:1.5"/><ellipse cx="102.2" cy="137" fill="#ADD1B2" rx="11" ry="11" style="stroke:#a80036;stroke-width:1"/><path fill="#000" d="M105.1688,142.6406 Q104.5906,142.9375 103.95,143.0781 Q103.3094,143.2344 102.6063,143.2344 Q100.1063,143.2344 98.7781,141.5938 Q97.4656,139.9375 97.4656,136.8125 Q97.4656,133.6875 98.7781,132.0313 Q100.1063,130.375 102.6063,130.375 Q103.3094,130.375 103.95,130.5313 Q104.6063,130.6875 105.1688,130.9844 L105.1688,133.7031 Q104.5438,133.125 103.95,132.8594 Q103.3563,132.5781 102.7313,132.5781 Q101.3875,132.5781 100.7,133.6563 Q100.0125,134.7188 100.0125,136.8125 Q100.0125,138.9063 100.7,139.9844 Q101.3875,141.0469 102.7313,141.0469 Q103.3563,141.0469 103.95,140.7813 Q104.5438,140.5 105.1688,139.9219 L105.1688,142.6406 Z"/><text x="118.8" y="141.154" fill="#000" font-family="sans-serif" font-size="12" lengthAdjust="spacing" textLength="150">PDSBatchTriggerService</text><line style="stroke:#a80036;stroke-width:1.5" x1="76.5" x2="282.5" y1="153" y2="153"/><ellipse cx="86.5" cy="164" fill="#84BE84" rx="3" ry="3" style="stroke:#038048;stroke-width:1"/><text x="95.5" y="167.21" fill="#000" font-family="sans-serif" font-size="11" lengthAdjust="spacing" textLength="182">void triggerExecutionOfNextJob()</text><rect id="PDSJobCancelTriggerService" width="229" height="52.805" x="308" y="7" fill="silver" codeLine="37" filter="url(#fxw1zxc6vlwy8)" style="stroke:#696969;stroke-width:1;stroke-dasharray:1,3"/><ellipse cx="332.9" cy="23" fill="#ADD1B2" rx="11" ry="11" style="stroke:#696969;stroke-width:1"/><path fill="#000" d="M335.8688,28.6406 Q335.2906,28.9375 334.65,29.0781 Q334.0094,29.2344 333.3063,29.2344 Q330.8063,29.2344 329.4781,27.5938 Q328.1656,25.9375 328.1656,22.8125 Q328.1656,19.6875 329.4781,18.0313 Q330.8063,16.375 333.3063,16.375 Q334.0094,16.375 334.65,16.5313 Q335.3063,16.6875 335.8688,16.9844 L335.8688,19.7031 Q335.2438,19.125 334.65,18.8594 Q334.0563,18.5781 333.4313,18.5781 Q332.0875,18.5781 331.4,19.6563 Q330.7125,20.7188 330.7125,22.8125 Q330.7125,24.9063 331.4,25.9844 Q332.0875,27.0469 333.4313,27.0469 Q334.0563,27.0469 334.65,26.7813 Q335.2438,26.5 335.8688,25.9219 L335.8688,28.6406 Z"/><text x="349.1" y="27.154" fill="#000" font-family="sans-serif" font-size="12" lengthAdjust="spacing" textLength="175">PDSJobCancelTriggerService</text><line style="stroke:#696969;stroke-width:1;stroke-dasharray:1,3" x1="309" x2="536" y1="39" y2="39"/><ellipse cx="319" cy="50" fill="#84BE84" rx="3" ry="3" style="stroke:#038048;stroke-width:1"/><text x="328" y="53.21" fill="#000" font-family="sans-serif" font-size="11" lengthAdjust="spacing" textLength="203">void triggerHandleCancelRequests()</text><rect id="PDSCancelService" width="207" height="52.805" x="319" y="121" fill="silver" codeLine="41" filter="url(#fxw1zxc6vlwy8)" style="stroke:#696969;stroke-width:1;stroke-dasharray:1,3"/><ellipse cx="362.35" cy="137" fill="#ADD1B2" rx="11" ry="11" style="stroke:#696969;stroke-width:1"/><path fill="#000" d="M365.3188,142.6406 Q364.7406,142.9375 364.1,143.0781 Q363.4594,143.2344 362.7563,143.2344 Q360.2563,143.2344 358.9281,141.5938 Q357.6156,139.9375 357.6156,136.8125 Q357.6156,133.6875 358.9281,132.0313 Q360.2563,130.375 362.7563,130.375 Q363.4594,130.375 364.1,130.5313 Q364.7563,130.6875 365.3188,130.9844 L365.3188,133.7031 Q364.6938,133.125 364.1,132.8594 Q363.5063,132.5781 362.8813,132.5781 Q361.5375,132.5781 360.85,133.6563 Q360.1625,134.7188 360.1625,136.8125 Q360.1625,138.9063 360.85,139.9844 Q361.5375,141.0469 362.8813,141.0469 Q363.5063,141.0469 364.1,140.7813 Q364.6938,140.5 365.3188,139.9219 L365.3188,142.6406 Z"/><text x="382.65" y="141.154" fill="#000" font-family="sans-serif" font-size="12" lengthAdjust="spacing" textLength="112">PDSCancelService</text><line style="stroke:#696969;stroke-width:1;stroke-dasharray:1,3" x1="320" x2="525" y1="153" y2="153"/><ellipse cx="330" cy="164" fill="#84BE84" rx="3" ry="3" style="stroke:#038048;stroke-width:1"/><text x="339" y="167.21" fill="#000" font-family="sans-serif" font-size="11" lengthAdjust="spacing" textLength="181">void handleJobCancelRequests()</text><rect id="PDSExecutionService" width="163" height="32" x="127" y="251" fill="#FEFECE" filter="url(#fxw1zxc6vlwy8)" style="stroke:#a80036;stroke-width:1.5"/><ellipse cx="142" cy="267" fill="#ADD1B2" rx="11" ry="11" style="stroke:#a80036;stroke-width:1"/><path fill="#000" d="M144.9688,272.6406 Q144.3906,272.9375 143.75,273.0781 Q143.1094,273.2344 142.4063,273.2344 Q139.9063,273.2344 138.5781,271.5938 Q137.2656,269.9375 137.2656,266.8125 Q137.2656,263.6875 138.5781,262.0313 Q139.9063,260.375 142.4063,260.375 Q143.1094,260.375 143.75,260.5313 Q144.4063,260.6875 144.9688,260.9844 L144.9688,263.7031 Q144.3438,263.125 143.75,262.8594 Q143.1563,262.5781 142.5313,262.5781 Q141.1875,262.5781 140.5,263.6563 Q139.8125,264.7188 139.8125,266.8125 Q139.8125,268.9063 140.5,269.9844 Q141.1875,271.0469 142.5313,271.0469 Q143.1563,271.0469 143.75,270.7813 Q144.3438,270.5 144.9688,269.9219 L144.9688,272.6406 Z"/><text x="156" y="271.154" fill="#000" font-family="sans-serif" font-size="12" lengthAdjust="spacing" textLength="131">PDSExecutionService</text><path fill="#FBFB77" d="M545,789 L545,935.1953 L838,935.1953 L838,799 L828,789 L545,789" filter="url(#fxw1zxc6vlwy8)" style="stroke:#a80036;stroke-width:1"/><path fill="#FBFB77" d="M828,789 L828,799 L838,799 L828,789" style="stroke:#a80036;stroke-width:1"/><text x="551" y="806.067" fill="#000" font-family="sans-serif" font-size="13" lengthAdjust="spacing" textLength="198">Inside the event folder we have</text><text x="551" y="821.2" fill="#000" font-family="sans-serif" font-size="13" lengthAdjust="spacing" textLength="146">files with name pattern</text><text x="551" y="836.332" fill="#000" font-family="sans-serif" font-size="13" lengthAdjust="spacing" textLength="215">&quot;${eventTypeName}.json&quot;. Some</text><text x="551" y="851.465" fill="#000" font-family="sans-serif" font-size="13" lengthAdjust="spacing" textLength="162">events have only one file.</text><text x="551" y="881.731" fill="#000" font-family="sans-serif" font-size="13" lengthAdjust="spacing" textLength="233">Remark: Currently not implemented,</text><text x="551" y="896.864" fill="#000" font-family="sans-serif" font-size="13" lengthAdjust="spacing" textLength="272">but if an event type shall supports multiple</text><text x="551" y="911.997" fill="#000" font-family="sans-serif" font-size="13" lengthAdjust="spacing" textLength="248">files in fture the name pattern shall be:</text><text x="551" y="927.129" fill="#000" font-family="sans-serif" font-size="13" lengthAdjust="spacing" textLength="216">&quot;${eventTypeName}[${nr}].json&quot;</text><path id="PDSBatchTriggerService-to-PDSExecutionService" fill="none" d="M185.86,174.29 C191.16,195.74 198.6,225.87 203.48,245.66" codeLine="45" style="stroke:#a80036;stroke-width:1"/><polygon fill="#A80036" points="204.72 250.7 206.438 241.002 203.517 245.847 198.673 242.926 204.72 250.7" style="stroke:#a80036;stroke-width:1"/><path id="PDSJobCancelTriggerService-to-PDSCancelService" fill="none" d="M422.5,60.2 C422.5,76.7 422.5,98.23 422.5,115.66" codeLine="47" style="stroke:silver;stroke-width:1;stroke-dasharray:1,3"/><polygon fill="silver" points="422.5 120.92 426.5 111.92 422.5 115.92 418.5 111.92 422.5 120.92" style="stroke:silver;stroke-width:1"/><path id="PDSCancelService-to-PDSExecutionService" fill="none" d="M375.8,174.14 C334.84,196.63 276.38,228.73 240.52,248.42" codeLine="48" style="stroke:silver;stroke-width:1;stroke-dasharray:1,3"/><polygon fill="silver" points="235.83 251 245.644 250.175 240.213 248.594 241.794 243.162 235.83 251" style="stroke:silver;stroke-width:1"/><text x="316.5" y="217.067" fill="#696969" font-family="sans-serif" font-size="13" lengthAdjust="spacing" textLength="143">cancel job by job UUID</text><path id="PDSExecutionCallableFactory-to-PDSExecutionCallable" fill="none" d="M220.22,383 C246.54,383 274.46,383 299.82,383" codeLine="50" style="stroke:#a80036;stroke-width:1"/><polygon fill="#A80036" points="304.86 383 295.86 379 299.86 383 295.86 387 304.86 383" style="stroke:#a80036;stroke-width:1"/><text x="238.5" y="376.067" fill="#000" font-family="sans-serif" font-size="13" lengthAdjust="spacing" textLength="48">creates</text><path id="PDSWorkspaceService-to-eventFile" fill="none" d="M463.65,549.16 C480.47,557.18 496.79,567.01 510.5,579 C529.56,595.67 542.92,621.46 551.01,640.99" codeLine="51" style="stroke:#a80036;stroke-width:1"/><polygon fill="#A80036" points="552.95 645.82 553.285 635.977 551.076 641.185 545.868 638.976 552.95 645.82" style="stroke:#a80036;stroke-width:1"/><text x="535.5" y="599.567" fill="#000" font-family="sans-serif" font-size="13" lengthAdjust="spacing" textLength="82">creates/uses</text><path id="PDSWorkspaceService-to-eventFolder" fill="none" d="M354.5,549.02 C354.5,574.4 354.5,609.72 354.5,635.28" codeLine="52" style="stroke:#a80036;stroke-width:1"/><polygon fill="#A80036" points="354.5 640.58 358.5 631.58 354.5 635.58 350.5 631.58 354.5 640.58" style="stroke:#a80036;stroke-width:1"/><text x="355.5" y="592.067" fill="#000" font-family="sans-serif" font-size="13" lengthAdjust="spacing" textLength="146">writes/reads event files</text><text x="361" y="607.2" fill="#000" font-family="sans-serif" font-size="13" lengthAdjust="spacing" textLength="135">into workspace folder</text><path id="eventFolder-to-eventFile" fill="none" d="M472.39,669 C482.35,669 492.32,669 502.28,669" style="stroke:#a80036;stroke-width:1"/><polygon fill="#A80036" points="507.49 669 498.49 665 502.49 669 498.49 673 507.49 669" style="stroke:#a80036;stroke-width:1"/><path id="eventFile-to-ExecutionEventData" fill="none" d="M545.33,692.28 C519.59,730.11 467.78,806.23 443.55,841.83" codeLine="54" style="stroke:#a80036;stroke-width:1"/><polygon fill="#A80036" points="440.73 845.96 449.104 840.776 443.546 841.829 442.494 836.27 440.73 845.96" style="stroke:#a80036;stroke-width:1"/><text x="518.5" y="740.067" fill="#000" font-family="sans-serif" font-size="13" lengthAdjust="spacing" textLength="122">contains files which</text><text x="522.5" y="755.2" fill="#000" font-family="sans-serif" font-size="13" lengthAdjust="spacing" textLength="118">have JSOn content</text><path id="launcherScript-to-eventFile" fill="none" d="M686.34,406.33 C683.11,449.48 671.07,545.82 626.5,611 C618.43,622.8 607.34,633.65 596.55,642.64" style="stroke:#a80036;stroke-width:1"/><polygon fill="#A80036" points="592.59 645.87 602.087 643.261 596.458 642.702 597.017 637.072 592.59 645.87" style="stroke:#a80036;stroke-width:1"/><text x="676.5" y="520.567" fill="#000" font-family="sans-serif" font-size="13" lengthAdjust="spacing" textLength="56">can read</text><path id="PDSExecutionCallable-to-launcherScript" fill="none" d="M472.19,383 C516.35,383 570.08,383 612.82,383" codeLine="57" style="stroke:#a80036;stroke-width:1"/><polygon fill="#A80036" points="617.97 383 608.97 379 612.97 383 608.97 387 617.97 383" style="stroke:#a80036;stroke-width:1"/><text x="494" y="376.067" fill="#000" font-family="sans-serif" font-size="13" lengthAdjust="spacing" textLength="102">creates process</text><path id="PDSExecutionCallable-to-PDSWorkspaceService" fill="none" d="M384.6,399.03 C379.64,418.12 370.92,451.72 364.14,477.86" codeLine="58" style="stroke:#a80036;stroke-width:1"/><polygon fill="#A80036" points="362.81 482.98 368.943 475.274 364.066 478.14 361.2 473.264 362.81 482.98" style="stroke:#a80036;stroke-width:1"/><text x="375.5" y="449.067" fill="#000" font-family="sans-serif" font-size="13" lengthAdjust="spacing" textLength="221">prepares workspace, sends events</text><path id="PDSExecutionService-to-PDSExecutionCallableFactory" fill="none" d="M195.69,283.37 C178.52,303.97 148.07,340.51 129.44,362.87" codeLine="59" style="stroke:#a80036;stroke-width:1"/><polygon fill="#A80036" points="126.11 366.87 134.951 362.53 129.317 363.034 128.813 357.399 126.11 366.87" style="stroke:#a80036;stroke-width:1"/><text x="171.5" y="326.067" fill="#000" font-family="sans-serif" font-size="13" lengthAdjust="spacing" textLength="28">calls</text><path id="PDSExecutionService-to-PDSExecutionCallable" fill="none" d="M232.4,283.14 C265.44,304.06 324.97,341.76 360.19,364.07" codeLine="60" style="stroke:#a80036;stroke-width:1;stroke-dasharray:7,7"/><polygon fill="#A80036" points="364.79 366.98 359.35 358.77 360.574 364.293 355.05 365.516 364.79 366.98" style="stroke:#a80036;stroke-width:1"/><text x="304.5" y="326.067" fill="#000" font-family="sans-serif" font-size="13" lengthAdjust="spacing" textLength="30">uses</text><path id="PDSExecutionService-backto-queue" fill="none" d="M303.31,267 C310.43,267 317.55,267 324.67,267" codeLine="61" style="stroke:#a80036;stroke-width:1"/><polygon fill="#A80036" points="290.06 267 296.06 271 302.06 267 296.06 263 290.06 267" style="stroke:#a80036;stroke-width:1"/><path id="queue-backto-PDSExecutionCallable" fill="none" d="M388.5,293.33 C388.5,315.79 388.5,347.86 388.5,366.64" codeLine="62" style="stroke:#a80036;stroke-width:1"/><polygon fill="#FFF" points="388.5 280.2 384.5 286.2 388.5 292.2 392.5 286.2 388.5 280.2" style="stroke:#a80036;stroke-width:1"/><path id="eventFile-GMN1023" fill="none" d="M611.69,692.27 C627.02,701.12 642.63,712.66 653.5,727 C667.01,744.82 675.72,767.26 681.33,788.65" style="stroke:#a80036;stroke-width:1;stroke-dasharray:7,7"/></g></svg>