<svg xmlns="http://www.w3.org/2000/svg" xmlns:xlink="http://www.w3.org/1999/xlink" width="506" height="375" contentScriptType="application/ecmascript" contentStyleType="text/css" preserveAspectRatio="none" style="width:506px;height:375px;background:#fff" version="1.1" viewBox="0 0 506 375" zoomAndPan="magnify"><defs><filter id="f1jk6qzt5f9gp8" width="300%" height="300%" x="-1" y="-1"><feGaussianBlur result="blurOut" stdDeviation="2"/><feColorMatrix in="blurOut" result="blurOut2" type="matrix" values="0 0 0 0 0 0 0 0 0 0 0 0 0 0 0 0 0 0 .4 0"/><feOffset dx="4" dy="4" in="blurOut2" result="blurOut3"/><feBlend in="SourceGraphic" in2="blurOut3" mode="normal"/></filter></defs><g><rect id="SecHubReportData" width="152" height="32" x="340.481" y="99" fill="#FEFECE" codeLine="5" filter="url(#f1jk6qzt5f9gp8)" style="stroke:#a80036;stroke-width:1.5"/><ellipse cx="355.481" cy="115" fill="#B4A7E5" rx="11" ry="11" style="stroke:#a80036;stroke-width:1"/><path fill="#000" d="M351.4028,110.7656 L351.4028,108.6094 L358.7934,108.6094 L358.7934,110.7656 L356.3247,110.7656 L356.3247,118.8438 L358.7934,118.8438 L358.7934,121 L351.4028,121 L351.4028,118.8438 L353.8716,118.8438 L353.8716,110.7656 L351.4028,110.7656 Z"/><text x="369.481" y="119.154" fill="#000" font-family="sans-serif" font-size="12" font-style="italic" lengthAdjust="spacing" textLength="120">SecHubReportData</text><rect id="ScanSecHubReport" width="153" height="32" x="210.981" y="214" fill="#FEFECE" codeLine="7" filter="url(#f1jk6qzt5f9gp8)" style="stroke:#a80036;stroke-width:1.5"/><ellipse cx="225.981" cy="230" fill="#ADD1B2" rx="11" ry="11" style="stroke:#a80036;stroke-width:1"/><path fill="#000" d="M228.9497,235.6406 Q228.3716,235.9375 227.7309,236.0781 Q227.0903,236.2344 226.3872,236.2344 Q223.8872,236.2344 222.5591,234.5938 Q221.2466,232.9375 221.2466,229.8125 Q221.2466,226.6875 222.5591,225.0313 Q223.8872,223.375 226.3872,223.375 Q227.0903,223.375 227.7309,223.5313 Q228.3872,223.6875 228.9497,223.9844 L228.9497,226.7031 Q228.3247,226.125 227.7309,225.8594 Q227.1372,225.5781 226.5122,225.5781 Q225.1684,225.5781 224.4809,226.6563 Q223.7934,227.7188 223.7934,229.8125 Q223.7934,231.9063 224.4809,232.9844 Q225.1684,234.0469 226.5122,234.0469 Q227.1372,234.0469 227.7309,233.7813 Q228.3247,233.5 228.9497,232.9219 L228.9497,235.6406 Z"/><text x="239.981" y="234.154" fill="#000" font-family="sans-serif" font-size="12" lengthAdjust="spacing" textLength="121">ScanSecHubReport</text><rect id="SecHubReportModel" width="159" height="32" x="207.981" y="329" fill="#FEFECE" codeLine="9" filter="url(#f1jk6qzt5f9gp8)" style="stroke:#a80036;stroke-width:1.5"/><ellipse cx="222.981" cy="345" fill="#ADD1B2" rx="11" ry="11" style="stroke:#a80036;stroke-width:1"/><path fill="#000" d="M225.9497,350.6406 Q225.3716,350.9375 224.7309,351.0781 Q224.0903,351.2344 223.3872,351.2344 Q220.8872,351.2344 219.5591,349.5938 Q218.2466,347.9375 218.2466,344.8125 Q218.2466,341.6875 219.5591,340.0313 Q220.8872,338.375 223.3872,338.375 Q224.0903,338.375 224.7309,338.5313 Q225.3872,338.6875 225.9497,338.9844 L225.9497,341.7031 Q225.3247,341.125 224.7309,340.8594 Q224.1372,340.5781 223.5122,340.5781 Q222.1684,340.5781 221.4809,341.6563 Q220.7934,342.7188 220.7934,344.8125 Q220.7934,346.9063 221.4809,347.9844 Q222.1684,349.0469 223.5122,349.0469 Q224.1372,349.0469 224.7309,348.7813 Q225.3247,348.5 225.9497,347.9219 L225.9497,350.6406 Z"/><text x="236.981" y="349.154" fill="#000" font-family="sans-serif" font-size="12" lengthAdjust="spacing" textLength="127">SecHubReportModel</text><rect id="ScanReport" width="167" height="78.414" x="8.981" y="191" fill="#FEFECE" codeLine="11" filter="url(#f1jk6qzt5f9gp8)" style="stroke:#a80036;stroke-width:1.5"/><ellipse cx="51.881" cy="207" fill="#ADD1B2" rx="11" ry="11" style="stroke:#a80036;stroke-width:1"/><path fill="#000" d="M54.8497,212.6406 Q54.2716,212.9375 53.6309,213.0781 Q52.9903,213.2344 52.2872,213.2344 Q49.7872,213.2344 48.4591,211.5938 Q47.1466,209.9375 47.1466,206.8125 Q47.1466,203.6875 48.4591,202.0313 Q49.7872,200.375 52.2872,200.375 Q52.9903,200.375 53.6309,200.5313 Q54.2872,200.6875 54.8497,200.9844 L54.8497,203.7031 Q54.2247,203.125 53.6309,202.8594 Q53.0372,202.5781 52.4122,202.5781 Q51.0684,202.5781 50.3809,203.6563 Q49.6934,204.7188 49.6934,206.8125 Q49.6934,208.9063 50.3809,209.9844 Q51.0684,211.0469 52.4122,211.0469 Q53.0372,211.0469 53.6309,210.7813 Q54.2247,210.5 54.8497,209.9219 L54.8497,212.6406 Z"/><text x="72.081" y="211.154" fill="#000" font-family="sans-serif" font-size="12" lengthAdjust="spacing" textLength="73">ScanReport</text><line style="stroke:#a80036;stroke-width:1.5" x1="9.981" x2="174.981" y1="223" y2="223"/><text x="14.981" y="237.21" fill="#000" font-family="sans-serif" font-size="11" lengthAdjust="spacing" textLength="45">«Entity»</text><text x="14.981" y="250.015" fill="#000" font-family="sans-serif" font-size="11" lengthAdjust="spacing" textLength="71">String result</text><text x="14.981" y="262.82" fill="#000" font-family="sans-serif" font-size="11" lengthAdjust="spacing" textLength="155">ScanReportResultType type</text><rect id="ScanReportRestController" width="194" height="32" x="110.481" y="7" fill="#FEFECE" filter="url(#f1jk6qzt5f9gp8)" style="stroke:#a80036;stroke-width:1.5"/><ellipse cx="125.481" cy="23" fill="#ADD1B2" rx="11" ry="11" style="stroke:#a80036;stroke-width:1"/><path fill="#000" d="M128.4497,28.6406 Q127.8716,28.9375 127.2309,29.0781 Q126.5903,29.2344 125.8872,29.2344 Q123.3872,29.2344 122.0591,27.5938 Q120.7466,25.9375 120.7466,22.8125 Q120.7466,19.6875 122.0591,18.0313 Q123.3872,16.375 125.8872,16.375 Q126.5903,16.375 127.2309,16.5313 Q127.8872,16.6875 128.4497,16.9844 L128.4497,19.7031 Q127.8247,19.125 127.2309,18.8594 Q126.6372,18.5781 126.0122,18.5781 Q124.6684,18.5781 123.9809,19.6563 Q123.2934,20.7188 123.2934,22.8125 Q123.2934,24.9063 123.9809,25.9844 Q124.6684,27.0469 126.0122,27.0469 Q126.6372,27.0469 127.2309,26.7813 Q127.8247,26.5 128.4497,25.9219 L128.4497,28.6406 Z"/><text x="139.481" y="27.154" fill="#000" font-family="sans-serif" font-size="12" lengthAdjust="spacing" textLength="162">ScanReportRestController</text><rect id="DownloadScanReportService" width="211" height="32" x="22.981" y="99" fill="#FEFECE" filter="url(#f1jk6qzt5f9gp8)" style="stroke:#a80036;stroke-width:1.5"/><ellipse cx="37.981" cy="115" fill="#ADD1B2" rx="11" ry="11" style="stroke:#a80036;stroke-width:1"/><path fill="#000" d="M40.9497,120.6406 Q40.3716,120.9375 39.7309,121.0781 Q39.0903,121.2344 38.3872,121.2344 Q35.8872,121.2344 34.5591,119.5938 Q33.2466,117.9375 33.2466,114.8125 Q33.2466,111.6875 34.5591,110.0313 Q35.8872,108.375 38.3872,108.375 Q39.0903,108.375 39.7309,108.5313 Q40.3872,108.6875 40.9497,108.9844 L40.9497,111.7031 Q40.3247,111.125 39.7309,110.8594 Q39.1372,110.5781 38.5122,110.5781 Q37.1684,110.5781 36.4809,111.6563 Q35.7934,112.7188 35.7934,114.8125 Q35.7934,116.9063 36.4809,117.9844 Q37.1684,119.0469 38.5122,119.0469 Q39.1372,119.0469 39.7309,118.7813 Q40.3247,118.5 40.9497,117.9219 L40.9497,120.6406 Z"/><text x="51.981" y="119.154" fill="#000" font-family="sans-serif" font-size="12" lengthAdjust="spacing" textLength="179">DownloadScanReportService</text><path id="SecHubReportData-backto-ScanSecHubReport" fill="none" d="M384.2909,144.2 C359.0709,166.29 324.9509,196.17 304.6809,213.93" style="stroke:#a80036;stroke-width:1;stroke-dasharray:7,7"/><polygon fill="none" points="379.691 138.92 399.351 131.01 388.921 149.45 379.691 138.92" style="stroke:#a80036;stroke-width:1"/><path id="SecHubReportData-backto-SecHubReportModel" fill="none" d="M414.9909,151.29 C412.1509,184.03 404.1109,233 381.4809,269 C365.1509,294.98 336.5809,315.86 315.2109,328.92" style="stroke:#a80036;stroke-width:1;stroke-dasharray:7,7"/><polygon fill="none" points="408.011 150.67 416.251 131.15 421.991 151.55 408.011 150.67" style="stroke:#a80036;stroke-width:1"/><path id="ScanReportRestController-backto-ScanSecHubReport" fill="none" d="M220.8609,43.54 C230.4509,58.26 243.1109,79.22 251.4809,99 C268.3709,138.9 279.6509,189.02 284.6109,213.75" codeLine="17" style="stroke:green;stroke-width:2;stroke-dasharray:7,7"/><polygon fill="green" points="217.991 39.18 219.617 48.894 220.748 43.351 226.291 44.483 217.991 39.18" style="stroke:green;stroke-width:2"/><path id="ScanReportRestController-to-DownloadScanReportService" fill="none" d="M194.0809,39.27 C180.6109,54.62 159.8009,78.32 145.2409,94.9" codeLine="18" style="stroke:#00f;stroke-width:2;stroke-dasharray:7,7"/><polygon fill="#00F" points="141.681 98.96 150.617 94.818 144.972 95.196 144.595 89.552 141.681 98.96" style="stroke:#00f;stroke-width:2"/><text x="113.406" y="87.958" fill="#000" font-family="sans-serif" font-size="13" lengthAdjust="spacing" textLength="28">calls</text><path id="DownloadScanReportService-to-ScanReport" fill="none" d="M123.6209,131.24 C119.1709,145.23 112.3409,166.66 106.2209,185.88" codeLine="19" style="stroke:#00f;stroke-width:2;stroke-dasharray:7,7"/><polygon fill="#00F" points="104.681 190.72 111.242 183.375 106.21 185.96 103.626 180.928 104.681 190.72" style="stroke:#00f;stroke-width:2"/><text x="6" y="180.016" fill="#000" font-family="sans-serif" font-size="13" lengthAdjust="spacing" textLength="93">reads from DB</text><path id="DownloadScanReportService-to-ScanSecHubReport" fill="none" d="M149.5909,131.01 C178.5809,151.61 230.6409,188.61 261.8309,210.77" codeLine="20" style="stroke:green;stroke-width:2;stroke-dasharray:7,7"/><polygon fill="green" points="266.281 213.93 261.271 205.451 262.208 211.029 256.63 211.967 266.281 213.93" style="stroke:green;stroke-width:2"/><text x="202.743" y="202.917" fill="#000" font-family="sans-serif" font-size="13" lengthAdjust="spacing" textLength="48">creates</text><path id="ScanReport-SecHubReportModel" fill="none" d="M158.2309,269.1 C193.6109,289.6 235.2509,313.73 261.5109,328.95" codeLine="22" style="stroke:#a80036;stroke-width:1;stroke-dasharray:7,7"/><path id="ScanSecHubReport-backto-SecHubReportModel" fill="none" d="M287.4809,259.37 C287.4809,281.33 287.4809,310.9 287.4809,328.64" codeLine="23" style="stroke:#a80036;stroke-width:1"/><polygon fill="#FFF" points="287.481 246.24 283.481 252.24 287.481 258.24 291.481 252.24 287.481 246.24" style="stroke:#a80036;stroke-width:1"/></g></svg>