<svg xmlns="http://www.w3.org/2000/svg" xmlns:xlink="http://www.w3.org/1999/xlink" width="1533" height="342" contentScriptType="application/ecmascript" contentStyleType="text/css" preserveAspectRatio="none" style="width:1533px;height:342px;background:#fff" version="1.1" viewBox="0 0 1533 342" zoomAndPan="magnify"><defs><filter id="f1w9kgxtou6ip9" width="300%" height="300%" x="-1" y="-1"><feGaussianBlur result="blurOut" stdDeviation="2"/><feColorMatrix in="blurOut" result="blurOut2" type="matrix" values="0 0 0 0 0 0 0 0 0 0 0 0 0 0 0 0 0 0 .4 0"/><feOffset dx="4" dy="4" in="blurOut2" result="blurOut3"/><feBlend in="SourceGraphic" in2="blurOut3" mode="normal"/></filter></defs><g><polygon fill="#FFF" points="16 43.3 39 43.3 46 65.597 1516 65.597 1516 226.3 16 226.3 16 43.3" filter="url(#f1w9kgxtou6ip9)" style="stroke:#000;stroke-width:1.5"/><line style="stroke:#000;stroke-width:1.5" x1="16" x2="46" y1="65.597" y2="65.597"/><text x="20" y="58.295" fill="#000" font-family="sans-serif" font-size="14" font-weight="bold" lengthAdjust="spacing" textLength="17">all</text><polygon fill="#FFF" points="40 86.3 207 86.3 214 108.597 635 108.597 635 202.3 40 202.3 40 86.3" filter="url(#f1w9kgxtou6ip9)" style="stroke:#000;stroke-width:1.5"/><line style="stroke:#000;stroke-width:1.5" x1="40" x2="214" y1="108.597" y2="108.597"/><text x="44" y="101.295" fill="#000" font-family="sans-serif" font-size="14" font-weight="bold" lengthAdjust="spacing" textLength="161">without-api (default)</text><polygon fill="#FFF" points="659 86.3 776 86.3 783 108.597 1492 108.597 1492 202.3 659 202.3 659 86.3" filter="url(#f1w9kgxtou6ip9)" style="stroke:#000;stroke-width:1.5"/><line style="stroke:#000;stroke-width:1.5" x1="659" x2="783" y1="108.597" y2="108.597"/><text x="663" y="101.295" fill="#000" font-family="sans-serif" font-size="14" font-weight="bold" lengthAdjust="spacing" textLength="111">api-necessary</text><rect width="140" height="46.297" x="479" y="140.3" fill="#FEFECE" filter="url(#f1w9kgxtou6ip9)" style="stroke:#a80036;stroke-width:1.5"/><rect width="15" height="10" x="599" fill="#FEFECE" style="stroke:#a80036;stroke-width:1.5" y="145.3"/><rect width="4" height="2" x="597" fill="#FEFECE" style="stroke:#a80036;stroke-width:1.5" y="147.3"/><rect width="4" height="2" x="597" fill="#FEFECE" style="stroke:#a80036;stroke-width:1.5" y="151.3"/><text x="494" y="173.295" fill="#000" font-family="sans-serif" font-size="14" lengthAdjust="spacing" textLength="100">sechub-server</text><rect width="172" height="46.297" x="56" y="140.3" fill="#FEFECE" filter="url(#f1w9kgxtou6ip9)" style="stroke:#a80036;stroke-width:1.5"/><rect width="15" height="10" x="208" fill="#FEFECE" style="stroke:#a80036;stroke-width:1.5" y="145.3"/><rect width="4" height="2" x="206" fill="#FEFECE" style="stroke:#a80036;stroke-width:1.5" y="147.3"/><rect width="4" height="2" x="206" fill="#FEFECE" style="stroke:#a80036;stroke-width:1.5" y="151.3"/><text x="71" y="173.295" fill="#000" font-family="sans-serif" font-size="14" lengthAdjust="spacing" textLength="132">sechub-doc (tests)</text><rect width="89" height="46.297" x="354.5" y="140.3" fill="#FEFECE" filter="url(#f1w9kgxtou6ip9)" style="stroke:#a80036;stroke-width:1.5"/><rect width="15" height="10" x="423.5" fill="#FEFECE" style="stroke:#a80036;stroke-width:1.5" y="145.3"/><rect width="4" height="2" x="421.5" fill="#FEFECE" style="stroke:#a80036;stroke-width:1.5" y="147.3"/><rect width="4" height="2" x="421.5" fill="#FEFECE" style="stroke:#a80036;stroke-width:1.5" y="151.3"/><text x="369.5" y="173.295" fill="#000" font-family="sans-serif" font-size="14" lengthAdjust="spacing" textLength="49">...other</text><rect width="148" height="46.297" x="1328" y="140.3" fill="#FEFECE" filter="url(#f1w9kgxtou6ip9)" style="stroke:#a80036;stroke-width:1.5"/><rect width="15" height="10" x="1456" fill="#FEFECE" style="stroke:#a80036;stroke-width:1.5" y="145.3"/><rect width="4" height="2" x="1454" fill="#FEFECE" style="stroke:#a80036;stroke-width:1.5" y="147.3"/><rect width="4" height="2" x="1454" fill="#FEFECE" style="stroke:#a80036;stroke-width:1.5" y="151.3"/><text x="1343" y="173.295" fill="#000" font-family="sans-serif" font-size="14" lengthAdjust="spacing" textLength="108">sechub-api-java</text><rect width="174" height="46.297" x="1119" y="140.3" fill="#FEFECE" filter="url(#f1w9kgxtou6ip9)" style="stroke:#a80036;stroke-width:1.5"/><rect width="15" height="10" x="1273" fill="#FEFECE" style="stroke:#a80036;stroke-width:1.5" y="145.3"/><rect width="4" height="2" x="1271" fill="#FEFECE" style="stroke:#a80036;stroke-width:1.5" y="147.3"/><rect width="4" height="2" x="1271" fill="#FEFECE" style="stroke:#a80036;stroke-width:1.5" y="151.3"/><text x="1134" y="173.295" fill="#000" font-family="sans-serif" font-size="14" lengthAdjust="spacing" textLength="134">sechub-systemtest</text><rect width="211" height="46.297" x="675.5" y="140.3" fill="#FEFECE" filter="url(#f1w9kgxtou6ip9)" style="stroke:#a80036;stroke-width:1.5"/><rect width="15" height="10" x="866.5" fill="#FEFECE" style="stroke:#a80036;stroke-width:1.5" y="145.3"/><rect width="4" height="2" x="864.5" fill="#FEFECE" style="stroke:#a80036;stroke-width:1.5" y="147.3"/><rect width="4" height="2" x="864.5" fill="#FEFECE" style="stroke:#a80036;stroke-width:1.5" y="151.3"/><text x="690.5" y="173.295" fill="#000" font-family="sans-serif" font-size="14" lengthAdjust="spacing" textLength="171">example-sechub-api-java</text><rect width="162" height="46.297" x="922" y="140.3" fill="#FEFECE" filter="url(#f1w9kgxtou6ip9)" style="stroke:#a80036;stroke-width:1.5"/><rect width="15" height="10" x="1064" fill="#FEFECE" style="stroke:#a80036;stroke-width:1.5" y="145.3"/><rect width="4" height="2" x="1062" fill="#FEFECE" style="stroke:#a80036;stroke-width:1.5" y="147.3"/><rect width="4" height="2" x="1062" fill="#FEFECE" style="stroke:#a80036;stroke-width:1.5" y="151.3"/><text x="937" y="173.295" fill="#000" font-family="sans-serif" font-size="14" lengthAdjust="spacing" textLength="122">sechub-pds-tools</text><ellipse cx="771" cy="305.3" fill="#FEFECE" filter="url(#f1w9kgxtou6ip9)" rx="12" ry="12" style="stroke:#a80036;stroke-width:1.5"/><line style="stroke:#a80036;stroke-width:1.5" x1="759" x2="783" y1="319.3" y2="319.3"/><text x="721.5" y="334.295" fill="#000" font-family="sans-serif" font-size="14" lengthAdjust="spacing" textLength="99">openApi3.json</text><path id="sechub_doc-to-sechub_server" fill="none" d="M168.72,140.05 C204.28,110.8 270.45,62.14 337,43.3 C390.03,28.29 411.84,18.39 461,43.3 C498.69,62.4 524.14,106.07 537.6,135.12" style="stroke:#a80036;stroke-width:1"/><polygon fill="#A80036" points="539.82 140.01 539.737 130.161 537.751 135.458 532.454 133.472 539.82 140.01" style="stroke:#a80036;stroke-width:1"/><text x="308" y="23.367" fill="#000" font-family="sans-serif" font-size="13" lengthAdjust="spacing" textLength="90">needs classes</text><path id="sechub_doc-to-other" fill="none" d="M228.29,163.3 C268.43,163.3 314.76,163.3 349.01,163.3" style="stroke:#a80036;stroke-width:1"/><polygon fill="#A80036" points="354.4 163.3 345.4 159.3 349.4 163.3 345.4 167.3 354.4 163.3" style="stroke:#a80036;stroke-width:1"/><text x="246.25" y="156.367" fill="#000" font-family="sans-serif" font-size="13" lengthAdjust="spacing" textLength="90">needs classes</text><path id="sechub_pds_tools-to-sechub_systemtest" fill="none" d="M1084.28,163.3 C1094.13,163.3 1103.98,163.3 1113.84,163.3" style="stroke:#a80036;stroke-width:1"/><polygon fill="#A80036" points="1118.99 163.3 1109.99 159.3 1113.99 163.3 1109.99 167.3 1118.99 163.3" style="stroke:#a80036;stroke-width:1"/><path id="sechub_systemtest-to-sechub_api_java" fill="none" d="M1293.28,163.3 C1303.05,163.3 1312.81,163.3 1322.57,163.3" style="stroke:#a80036;stroke-width:1"/><polygon fill="#A80036" points="1327.68 163.3 1318.68 159.3 1322.68 163.3 1318.68 167.3 1327.68 163.3" style="stroke:#a80036;stroke-width:1"/><path id="sechub_example_api_java-to-sechub_api_java" fill="none" d="M794.51,140.17 C816.26,105.67 862.72,42.41 922.5,20.3 C961.16,6 1254.84,6 1293.5,20.3 C1344.83,39.29 1376.79,99.52 1391.81,135.47" style="stroke:#a80036;stroke-width:1"/><polygon fill="#A80036" points="1393.73 140.16 1394.013 130.315 1391.831 135.535 1386.612 133.353 1393.73 140.16" style="stroke:#a80036;stroke-width:1"/><path id="sechub_doc-to-open_api" fill="none" d="M195.86,186.38 C234.59,201.58 288.35,221.29 337,234.3 C471.06,270.14 632.87,294.33 715.92,305.4" style="stroke:#a80036;stroke-width:1"/><polygon fill="#A80036" points="721.27 306.11 712.874 300.962 716.313 305.453 711.822 308.893 721.27 306.11" style="stroke:#a80036;stroke-width:1"/><text x="431" y="255.367" fill="#000" font-family="sans-serif" font-size="13" lengthAdjust="spacing" textLength="65">generates</text><path id="sechub_api_java-to-open_api" fill="none" d="M1380.17,186.36 C1362.93,202.38 1337.44,223.13 1311,234.3 C1224.05,271.02 945.23,297.84 825.96,307.92" style="stroke:#a80036;stroke-width:1"/><polygon fill="#A80036" points="820.75 308.36 830.059 311.575 825.732 307.932 829.374 303.604 820.75 308.36" style="stroke:#a80036;stroke-width:1"/><text x="1288" y="255.367" fill="#000" font-family="sans-serif" font-size="13" lengthAdjust="spacing" textLength="189">needs generated OpenAPI file</text></g></svg>