<svg xmlns="http://www.w3.org/2000/svg" xmlns:xlink="http://www.w3.org/1999/xlink" width="906" height="710" contentScriptType="application/ecmascript" contentStyleType="text/css" preserveAspectRatio="none" style="width:906px;height:710px;background:#fff" version="1.1" viewBox="0 0 906 710" zoomAndPan="magnify"><defs><filter id="fpxwkeh3af8ca" width="300%" height="300%" x="-1" y="-1"><feGaussianBlur result="blurOut" stdDeviation="2"/><feColorMatrix in="blurOut" result="blurOut2" type="matrix" values="0 0 0 0 0 0 0 0 0 0 0 0 0 0 0 0 0 0 .4 0"/><feOffset dx="4" dy="4" in="blurOut2" result="blurOut3"/><feBlend in="SourceGraphic" in2="blurOut3" mode="normal"/></filter></defs><g><polygon fill="#FFF" points="16 278 375 278 382 300.297 385 300.297 385 703 16 703 16 278" filter="url(#fpxwkeh3af8ca)" style="stroke:#000;stroke-width:1.5"/><line style="stroke:#000;stroke-width:1.5" x1="16" x2="382" y1="300.297" y2="300.297"/><text x="20" y="292.995" fill="#000" font-family="sans-serif" font-size="14" font-weight="bold" lengthAdjust="spacing" textLength="353">com.mercedesbenz.sechub.commons.model</text><rect id="SecHubMessageType" width="165" height="78.414" x="180.5" y="609" fill="#FEFECE" codeLine="7" filter="url(#fpxwkeh3af8ca)" style="stroke:#a80036;stroke-width:1.5"/><ellipse cx="195.5" cy="625" fill="#EB937F" rx="11" ry="11" style="stroke:#a80036;stroke-width:1"/><path fill="#000" d="M199.6094,631 L191.8906,631 L191.8906,618.6094 L199.6094,618.6094 L199.6094,620.7656 L194.3438,620.7656 L194.3438,623.4375 L199.1094,623.4375 L199.1094,625.5938 L194.3438,625.5938 L194.3438,628.8438 L199.6094,628.8438 L199.6094,631 Z"/><text x="209.5" y="629.154" fill="#000" font-family="sans-serif" font-size="12" lengthAdjust="spacing" textLength="133">SecHubMessageType</text><line style="stroke:#a80036;stroke-width:1.5" x1="181.5" x2="344.5" y1="641" y2="641"/><text x="186.5" y="655.21" fill="#000" font-family="sans-serif" font-size="11" lengthAdjust="spacing" textLength="37">ERROR</text><text x="186.5" y="668.015" fill="#000" font-family="sans-serif" font-size="11" lengthAdjust="spacing" textLength="51">WARNING</text><text x="186.5" y="680.82" fill="#000" font-family="sans-serif" font-size="11" lengthAdjust="spacing" textLength="26">INFO</text><rect id="SecHubMessage" width="161" height="65.609" x="182.5" y="466" fill="#FEFECE" codeLine="13" filter="url(#fpxwkeh3af8ca)" style="stroke:#a80036;stroke-width:1.5"/><ellipse cx="208.75" cy="482" fill="#ADD1B2" rx="11" ry="11" style="stroke:#a80036;stroke-width:1"/><path fill="#000" d="M211.7188,487.6406 Q211.1406,487.9375 210.5,488.0781 Q209.8594,488.2344 209.1563,488.2344 Q206.6563,488.2344 205.3281,486.5938 Q204.0156,484.9375 204.0156,481.8125 Q204.0156,478.6875 205.3281,477.0313 Q206.6563,475.375 209.1563,475.375 Q209.8594,475.375 210.5,475.5313 Q211.1563,475.6875 211.7188,475.9844 L211.7188,478.7031 Q211.0938,478.125 210.5,477.8594 Q209.9063,477.5781 209.2813,477.5781 Q207.9375,477.5781 207.25,478.6563 Q206.5625,479.7188 206.5625,481.8125 Q206.5625,483.9063 207.25,484.9844 Q207.9375,486.0469 209.2813,486.0469 Q209.9063,486.0469 210.5,485.7813 Q211.0938,485.5 211.7188,484.9219 L211.7188,487.6406 Z"/><text x="225.25" y="486.154" fill="#000" font-family="sans-serif" font-size="12" lengthAdjust="spacing" textLength="104">SecHubMessage</text><line style="stroke:#a80036;stroke-width:1.5" x1="183.5" x2="342.5" y1="498" y2="498"/><text x="188.5" y="512.21" fill="#000" font-family="sans-serif" font-size="11" lengthAdjust="spacing" textLength="149">SecHubMessageType type</text><text x="188.5" y="525.015" fill="#000" font-family="sans-serif" font-size="11" lengthAdjust="spacing" textLength="59">String text</text><rect id="SecHubMessagesList" width="275" height="73.609" x="91.5" y="313" fill="#FEFECE" codeLine="19" filter="url(#fpxwkeh3af8ca)" style="stroke:#a80036;stroke-width:1.5"/><ellipse cx="158.75" cy="329" fill="#ADD1B2" rx="11" ry="11" style="stroke:#a80036;stroke-width:1"/><path fill="#000" d="M161.7188,334.6406 Q161.1406,334.9375 160.5,335.0781 Q159.8594,335.2344 159.1563,335.2344 Q156.6563,335.2344 155.3281,333.5938 Q154.0156,331.9375 154.0156,328.8125 Q154.0156,325.6875 155.3281,324.0313 Q156.6563,322.375 159.1563,322.375 Q159.8594,322.375 160.5,322.5313 Q161.1563,322.6875 161.7188,322.9844 L161.7188,325.7031 Q161.0938,325.125 160.5,324.8594 Q159.9063,324.5781 159.2813,324.5781 Q157.9375,324.5781 157.25,325.6563 Q156.5625,326.7188 156.5625,328.8125 Q156.5625,330.9063 157.25,331.9844 Q157.9375,333.0469 159.2813,333.0469 Q159.9063,333.0469 160.5,332.7813 Q161.0938,332.5 161.7188,331.9219 L161.7188,334.6406 Z"/><text x="179.25" y="333.154" fill="#000" font-family="sans-serif" font-size="12" lengthAdjust="spacing" textLength="132">SecHubMessagesList</text><line style="stroke:#a80036;stroke-width:1.5" x1="92.5" x2="365.5" y1="345" y2="345"/><text x="97.5" y="359.21" fill="#000" font-family="sans-serif" font-size="11" lengthAdjust="spacing" textLength="66">«JSONable»</text><line style="stroke:#a80036;stroke-width:1.5" x1="92.5" x2="365.5" y1="365.805" y2="365.805"/><text x="97.5" y="380.015" fill="#000" font-family="sans-serif" font-size="11" lengthAdjust="spacing" textLength="263">List&lt;SecHubMessage&gt; getSecHubMessages()</text><rect id="AdapterExecutionResult" width="275" height="65.609" x="557.5" y="466" fill="#FEFECE" codeLine="31" filter="url(#fpxwkeh3af8ca)" style="stroke:#a80036;stroke-width:1.5"/><ellipse cx="615.75" cy="482" fill="#ADD1B2" rx="11" ry="11" style="stroke:#a80036;stroke-width:1"/><path fill="#000" d="M618.7188,487.6406 Q618.1406,487.9375 617.5,488.0781 Q616.8594,488.2344 616.1563,488.2344 Q613.6563,488.2344 612.3281,486.5938 Q611.0156,484.9375 611.0156,481.8125 Q611.0156,478.6875 612.3281,477.0313 Q613.6563,475.375 616.1563,475.375 Q616.8594,475.375 617.5,475.5313 Q618.1563,475.6875 618.7188,475.9844 L618.7188,478.7031 Q618.0938,478.125 617.5,477.8594 Q616.9063,477.5781 616.2813,477.5781 Q614.9375,477.5781 614.25,478.6563 Q613.5625,479.7188 613.5625,481.8125 Q613.5625,483.9063 614.25,484.9844 Q614.9375,486.0469 616.2813,486.0469 Q616.9063,486.0469 617.5,485.7813 Q618.0938,485.5 618.7188,484.9219 L618.7188,487.6406 Z"/><text x="636.25" y="486.154" fill="#000" font-family="sans-serif" font-size="12" lengthAdjust="spacing" textLength="150">AdapterExecutionResult</text><line style="stroke:#a80036;stroke-width:1.5" x1="558.5" x2="831.5" y1="498" y2="498"/><text x="563.5" y="512.21" fill="#000" font-family="sans-serif" font-size="11" lengthAdjust="spacing" textLength="263">List&lt;SecHubMessage&gt; getProductMessages()</text><text x="563.5" y="525.015" fill="#000" font-family="sans-serif" font-size="11" lengthAdjust="spacing" textLength="142">String getProductResult()</text><rect id="AbstractProductExecutor" width="333" height="52.805" x="295.5" y="100" fill="#FEFECE" codeLine="35" filter="url(#fpxwkeh3af8ca)" style="stroke:#a80036;stroke-width:1.5"/><ellipse cx="379.75" cy="116" fill="#A9DCDF" rx="11" ry="11" style="stroke:#a80036;stroke-width:1"/><path fill="#000" d="M379.8594,111.3438 L378.7031,116.4219 L381.0313,116.4219 L379.8594,111.3438 Z M378.375,109.1094 L381.3594,109.1094 L384.7188,121.5 L382.2656,121.5 L381.5,118.4375 L378.2188,118.4375 L377.4688,121.5 L375.0313,121.5 L378.375,109.1094 Z"/><text x="400.25" y="120.154" fill="#000" font-family="sans-serif" font-size="12" font-style="italic" lengthAdjust="spacing" textLength="156">AbstractProductExecutor</text><line style="stroke:#a80036;stroke-width:1.5" x1="296.5" x2="627.5" y1="132" y2="132"/><text x="301.5" y="146.21" fill="#000" font-family="sans-serif" font-size="11" lengthAdjust="spacing" textLength="321">updateCurrentProductResult(AdapterExecutionResult, ...)</text><rect id="ProductExecutor" width="136" height="32" x="394" y="7" fill="#FEFECE" filter="url(#fpxwkeh3af8ca)" style="stroke:#a80036;stroke-width:1.5"/><ellipse cx="409" cy="23" fill="#B4A7E5" rx="11" ry="11" style="stroke:#a80036;stroke-width:1"/><path fill="#000" d="M404.9219,18.7656 L404.9219,16.6094 L412.3125,16.6094 L412.3125,18.7656 L409.8438,18.7656 L409.8438,26.8438 L412.3125,26.8438 L412.3125,29 L404.9219,29 L404.9219,26.8438 L407.3906,26.8438 L407.3906,18.7656 L404.9219,18.7656 Z"/><text x="423" y="27.154" fill="#000" font-family="sans-serif" font-size="12" font-style="italic" lengthAdjust="spacing" textLength="104">ProductExecutor</text><rect id="Adapter" width="82" height="32" x="810" y="334" fill="#FEFECE" codeLine="39" filter="url(#fpxwkeh3af8ca)" style="stroke:#a80036;stroke-width:1.5"/><ellipse cx="825" cy="350" fill="#ADD1B2" rx="11" ry="11" style="stroke:#a80036;stroke-width:1"/><path fill="#000" d="M827.9688,355.6406 Q827.3906,355.9375 826.75,356.0781 Q826.1094,356.2344 825.4063,356.2344 Q822.9063,356.2344 821.5781,354.5938 Q820.2656,352.9375 820.2656,349.8125 Q820.2656,346.6875 821.5781,345.0313 Q822.9063,343.375 825.4063,343.375 Q826.1094,343.375 826.75,343.5313 Q827.4063,343.6875 827.9688,343.9844 L827.9688,346.7031 Q827.3438,346.125 826.75,345.8594 Q826.1563,345.5781 825.5313,345.5781 Q824.1875,345.5781 823.5,346.6563 Q822.8125,347.7188 822.8125,349.8125 Q822.8125,351.9063 823.5,352.9844 Q824.1875,354.0469 825.5313,354.0469 Q826.1563,354.0469 826.75,353.7813 Q827.3438,353.5 827.9688,352.9219 L827.9688,355.6406 Z"/><text x="839" y="354.154" fill="#000" font-family="sans-serif" font-size="12" lengthAdjust="spacing" textLength="50">Adapter</text><rect id="ProductResult" width="120" height="78.414" x="402" y="311" fill="#FEFECE" codeLine="43" filter="url(#fpxwkeh3af8ca)" style="stroke:#a80036;stroke-width:1.5"/><ellipse cx="417" cy="327" fill="#ADD1B2" rx="11" ry="11" style="stroke:#a80036;stroke-width:1"/><path fill="#000" d="M419.9688,332.6406 Q419.3906,332.9375 418.75,333.0781 Q418.1094,333.2344 417.4063,333.2344 Q414.9063,333.2344 413.5781,331.5938 Q412.2656,329.9375 412.2656,326.8125 Q412.2656,323.6875 413.5781,322.0313 Q414.9063,320.375 417.4063,320.375 Q418.1094,320.375 418.75,320.5313 Q419.4063,320.6875 419.9688,320.9844 L419.9688,323.7031 Q419.3438,323.125 418.75,322.8594 Q418.1563,322.5781 417.5313,322.5781 Q416.1875,322.5781 415.5,323.6563 Q414.8125,324.7188 414.8125,326.8125 Q414.8125,328.9063 415.5,329.9844 Q416.1875,331.0469 417.5313,331.0469 Q418.1563,331.0469 418.75,330.7813 Q419.3438,330.5 419.9688,329.9219 L419.9688,332.6406 Z"/><text x="431" y="331.154" fill="#000" font-family="sans-serif" font-size="12" lengthAdjust="spacing" textLength="88">ProductResult</text><line style="stroke:#a80036;stroke-width:1.5" x1="403" x2="521" y1="343" y2="343"/><text x="408" y="357.21" fill="#000" font-family="sans-serif" font-size="11" lengthAdjust="spacing" textLength="45">«Entity»</text><text x="408" y="370.015" fill="#000" font-family="sans-serif" font-size="11" lengthAdjust="spacing" textLength="98">String messages</text><text x="408" y="382.82" fill="#000" font-family="sans-serif" font-size="11" lengthAdjust="spacing" textLength="71">String result</text><path fill="#FBFB77" d="M557.5,317.5 L557.5,341.1992 L506,366.207 L557.5,349.1992 L557.5,372.8984 A0,0 0 0 0 557.5,372.8984 L774.5,372.8984 A0,0 0 0 0 774.5,372.8984 L774.5,327.5 L764.5,317.5 L557.5,317.5 A0,0 0 0 0 557.5,317.5" filter="url(#fpxwkeh3af8ca)" style="stroke:#a80036;stroke-width:1"/><path fill="#FBFB77" d="M764.5,317.5 L764.5,327.5 L774.5,327.5 L764.5,317.5" style="stroke:#a80036;stroke-width:1"/><text x="563.5" y="334.567" fill="#000" font-family="sans-serif" font-size="13" lengthAdjust="spacing" textLength="196">Contains SecHubMessagesList</text><text x="563.5" y="349.7" fill="#000" font-family="sans-serif" font-size="13" lengthAdjust="spacing" textLength="134">as JSON after update</text><text x="563.5" y="364.832" fill="#000" font-family="sans-serif" font-size="13" lengthAdjust="spacing" textLength="178">by AbstractProductExecutor</text><path id="SecHubMessage-backto-SecHubMessageType" fill="none" d="M263,545.38 C263,565.71 263,589.42 263,608.83" codeLine="28" style="stroke:#a80036;stroke-width:1"/><polygon fill="#FFF" points="263 532.26 259 538.26 263 544.26 267 538.26 263 532.26" style="stroke:#a80036;stroke-width:1"/><text x="264" y="575.067" fill="#000" font-family="sans-serif" font-size="13" lengthAdjust="spacing" textLength="23">has</text><path id="SecHubMessagesList-backto-SecHubMessage" fill="none" d="M240.39,400.26 C245.37,421.78 251.07,446.43 255.5,465.58" codeLine="29" style="stroke:#a80036;stroke-width:1"/><polygon fill="#FFF" points="237.4 387.34 234.854 394.087 240.102 399.032 242.648 392.285 237.4 387.34" style="stroke:#a80036;stroke-width:1"/><path id="ProductExecutor-backto-AbstractProductExecutor" fill="none" d="M462,59.51 C462,72.73 462,87.47 462,99.66" style="stroke:#a80036;stroke-width:1;stroke-dasharray:7,7"/><polygon fill="none" points="455 59.42 462 39.42 469 59.42 455 59.42" style="stroke:#a80036;stroke-width:1"/><path id="AdapterExecutionResult-to-SecHubMessage" fill="none" d="M557.31,499 C488.98,499 408.57,499 349.08,499" codeLine="48" style="stroke:#a80036;stroke-width:1"/><polygon fill="#A80036" points="343.75 499 352.75 503 348.75 499 352.75 495 343.75 499" style="stroke:#a80036;stroke-width:1"/><text x="436.5" y="492.067" fill="#000" font-family="sans-serif" font-size="13" lengthAdjust="spacing" textLength="28">1...n</text><path id="AbstractProductExecutor-to-Adapter" fill="none" d="M554.27,153.01 C624.55,175.65 720.99,213.92 792,270 C812.63,286.29 829.74,311.46 840.13,329" codeLine="50" style="stroke:#a80036;stroke-width:1"/><polygon fill="#A80036" points="842.88 333.73 841.818 323.938 840.369 329.406 834.901 327.957 842.88 333.73" style="stroke:#a80036;stroke-width:1"/><text x="734" y="227.067" fill="#000" font-family="sans-serif" font-size="13" lengthAdjust="spacing" textLength="50">calls (1)</text><path id="AbstractProductExecutor-to-SecHubMessagesList" fill="none" d="M434.82,153.34 C394.45,191.71 318.34,264.07 270.84,309.23" codeLine="51" style="stroke:#a80036;stroke-width:1"/><polygon fill="#A80036" points="267.19 312.7 276.465 309.388 270.81 309.251 270.947 303.596 267.19 312.7" style="stroke:#a80036;stroke-width:1"/><text x="371" y="227.067" fill="#000" font-family="sans-serif" font-size="13" lengthAdjust="spacing" textLength="70">creates (2)</text><path id="AbstractProductExecutor-to-ProductResult" fill="none" d="M462,153.34 C462,190.7 462,260.28 462,305.6" codeLine="52" style="stroke:#a80036;stroke-width:1"/><polygon fill="#A80036" points="462 310.73 466 301.73 462 305.73 458 301.73 462 310.73" style="stroke:#a80036;stroke-width:1"/><text x="463" y="227.067" fill="#000" font-family="sans-serif" font-size="13" lengthAdjust="spacing" textLength="74">updates (3)</text><path id="Adapter-to-AdapterExecutionResult" fill="none" d="M834.89,366.18 C811.03,388.66 765.6,431.48 732.97,462.22" codeLine="53" style="stroke:#a80036;stroke-width:1"/><polygon fill="#A80036" points="729.06 465.9 738.355 462.644 732.701 462.473 732.872 456.819 729.06 465.9" style="stroke:#a80036;stroke-width:1"/><text x="778" y="432.067" fill="#000" font-family="sans-serif" font-size="13" lengthAdjust="spacing" textLength="46">returns</text></g></svg>