<svg xmlns="http://www.w3.org/2000/svg" xmlns:xlink="http://www.w3.org/1999/xlink" width="1799" height="780" contentScriptType="application/ecmascript" contentStyleType="text/css" preserveAspectRatio="none" style="width:1799px;height:780px;background:#fff" version="1.1" viewBox="0 0 1799 780" zoomAndPan="magnify"><defs><filter id="fn8zyioaoxzbp" width="300%" height="300%" x="-1" y="-1"><feGaussianBlur result="blurOut" stdDeviation="2"/><feColorMatrix in="blurOut" result="blurOut2" type="matrix" values="0 0 0 0 0 0 0 0 0 0 0 0 0 0 0 0 0 0 .4 0"/><feOffset dx="4" dy="4" in="blurOut2" result="blurOut3"/><feBlend in="SourceGraphic" in2="blurOut3" mode="normal"/></filter></defs><g><rect id="JobStatistic" width="140" height="86.414" x="751" y="121.5" fill="#FEFECE" codeLine="6" filter="url(#fn8zyioaoxzbp)" style="stroke:#a80036;stroke-width:1.5"/><ellipse cx="783.1" cy="137.5" fill="#ADD1B2" rx="11" ry="11" style="stroke:#a80036;stroke-width:1"/><path fill="#000" d="M787.2094,143.5 L779.4906,143.5 L779.4906,131.1094 L787.2094,131.1094 L787.2094,133.2656 L781.9438,133.2656 L781.9438,135.9375 L786.7094,135.9375 L786.7094,138.0938 L781.9438,138.0938 L781.9438,141.3438 L787.2094,141.3438 L787.2094,143.5 Z"/><text x="800.9" y="141.654" fill="#000" font-family="sans-serif" font-size="12" lengthAdjust="spacing" textLength="70">JobStatistic</text><line style="stroke:#a80036;stroke-width:1.5" x1="752" x2="890" y1="153.5" y2="153.5"/><ellipse cx="762" cy="164.5" fill="#000" rx="3" ry="3" style="stroke:#000;stroke-width:1"/><text x="771" y="167.71" fill="#000" font-family="sans-serif" font-size="11" lengthAdjust="spacing" textLength="114">secHubJobUUID:uuid</text><line style="stroke:#a80036;stroke-width:1" x1="752" x2="890" y1="174.305" y2="174.305"/><ellipse cx="762" cy="185.305" fill="#000" rx="3" ry="3" style="stroke:#000;stroke-width:1"/><text x="771" y="188.515" fill="#000" font-family="sans-serif" font-size="11" lengthAdjust="spacing" textLength="111">created:Timestamp</text><ellipse cx="762" cy="198.109" fill="#000" rx="3" ry="3" style="stroke:#000;stroke-width:1"/><text x="771" y="201.32" fill="#000" font-family="sans-serif" font-size="11" lengthAdjust="spacing" textLength="49">projectId</text><path fill="#FBFB77" d="M657.5,10.5 L657.5,35.6328 A0,0 0 0 0 657.5,35.6328 L817,35.6328 L821,121.25 L825,35.6328 L984.5,35.6328 A0,0 0 0 0 984.5,35.6328 L984.5,20.5 L974.5,10.5 L657.5,10.5 A0,0 0 0 0 657.5,10.5" filter="url(#fn8zyioaoxzbp)" style="stroke:#a80036;stroke-width:1"/><path fill="#FBFB77" d="M974.5,10.5 L974.5,20.5 L984.5,20.5 L974.5,10.5" style="stroke:#a80036;stroke-width:1"/><text x="663.5" y="27.567" fill="#000" font-family="sans-serif" font-size="13" lengthAdjust="spacing" textLength="306">This entity is written when job has been created.</text><rect id="JobRunStatistic" width="157" height="150.438" x="490.5" y="361" fill="#FEFECE" codeLine="17" filter="url(#fn8zyioaoxzbp)" style="stroke:#a80036;stroke-width:1.5"/><ellipse cx="519.45" cy="377" fill="#ADD1B2" rx="11" ry="11" style="stroke:#a80036;stroke-width:1"/><path fill="#000" d="M523.5594,383 L515.8406,383 L515.8406,370.6094 L523.5594,370.6094 L523.5594,372.7656 L518.2938,372.7656 L518.2938,375.4375 L523.0594,375.4375 L523.0594,377.5938 L518.2938,377.5938 L518.2938,380.8438 L523.5594,380.8438 L523.5594,383 Z"/><text x="536.55" y="381.154" fill="#000" font-family="sans-serif" font-size="12" lengthAdjust="spacing" textLength="94">JobRunStatistic</text><line style="stroke:#a80036;stroke-width:1.5" x1="491.5" x2="646.5" y1="393" y2="393"/><ellipse cx="501.5" cy="404" fill="#000" rx="3" ry="3" style="stroke:#000;stroke-width:1"/><text x="510.5" y="407.21" fill="#000" font-family="sans-serif" font-size="11" lengthAdjust="spacing" textLength="113">executionUUID: uuid</text><line style="stroke:#a80036;stroke-width:1" x1="491.5" x2="646.5" y1="413.805" y2="413.805"/><ellipse cx="501.5" cy="424.805" fill="#000" rx="3" ry="3" style="stroke:#000;stroke-width:1"/><text x="510.5" y="428.015" fill="#000" font-family="sans-serif" font-size="11" lengthAdjust="spacing" textLength="118">secHubJobUUID: uuid</text><ellipse cx="501.5" cy="437.609" fill="#000" rx="3" ry="3" style="stroke:#000;stroke-width:1"/><text x="510.5" y="440.82" fill="#000" font-family="sans-serif" font-size="11" lengthAdjust="spacing" textLength="81">projectId: Text</text><ellipse cx="501.5" cy="450.414" fill="#000" rx="3" ry="3" style="stroke:#000;stroke-width:1"/><text x="510.5" y="453.625" fill="#000" font-family="sans-serif" font-size="11" lengthAdjust="spacing" textLength="115">created: Timestamp</text><ellipse cx="501.5" cy="463.219" fill="#000" rx="3" ry="3" style="stroke:#000;stroke-width:1"/><text x="510.5" y="466.429" fill="#000" font-family="sans-serif" font-size="11" lengthAdjust="spacing" textLength="113">started: Timestamp</text><ellipse cx="501.5" cy="476.023" fill="#000" rx="3" ry="3" style="stroke:#000;stroke-width:1"/><text x="510.5" y="479.234" fill="#000" font-family="sans-serif" font-size="11" lengthAdjust="spacing" textLength="107">ended: Timestamp</text><ellipse cx="501.5" cy="488.828" fill="#000" rx="3" ry="3" style="stroke:#000;stroke-width:1"/><text x="510.5" y="492.039" fill="#000" font-family="sans-serif" font-size="11" lengthAdjust="spacing" textLength="84">failed: boolean</text><ellipse cx="501.5" cy="501.633" fill="#000" rx="3" ry="3" style="stroke:#000;stroke-width:1"/><text x="510.5" y="504.843" fill="#000" font-family="sans-serif" font-size="11" lengthAdjust="spacing" textLength="131">trafficLight: TrafficLight</text><path fill="#FBFB77" d="M390,114 L390,214.7969 A0,0 0 0 0 390,214.7969 L551.95,214.7969 L564.6,360.87 L559.95,214.7969 L716,214.7969 A0,0 0 0 0 716,214.7969 L716,124 L706,114 L390,114 A0,0 0 0 0 390,114" filter="url(#fn8zyioaoxzbp)" style="stroke:#a80036;stroke-width:1"/><path fill="#FBFB77" d="M706,114 L706,124 L716,124 L706,114" style="stroke:#a80036;stroke-width:1"/><text x="396" y="131.067" fill="#000" font-family="sans-serif" font-size="13" lengthAdjust="spacing" textLength="220">Contains statistic information for a</text><text x="396" y="146.2" fill="#000" font-family="sans-serif" font-size="13" lengthAdjust="spacing" textLength="266">SecHub job run which can occure multiple</text><text x="396" y="161.333" fill="#000" font-family="sans-serif" font-size="13" lengthAdjust="spacing" textLength="305">times (job restart). The execution uuid is unique</text><text x="396" y="176.465" fill="#000" font-family="sans-serif" font-size="13" lengthAdjust="spacing" textLength="288">for every run and is used as PK. Every job run</text><text x="396" y="191.598" fill="#000" font-family="sans-serif" font-size="13" lengthAdjust="spacing" textLength="126">has only ONE entry.</text><rect id="JobStatisticData" width="213" height="124.828" x="1007.5" y="373.5" fill="#FEFECE" codeLine="37" filter="url(#fn8zyioaoxzbp)" style="stroke:#a80036;stroke-width:1.5"/><ellipse cx="1059.75" cy="389.5" fill="#ADD1B2" rx="11" ry="11" style="stroke:#a80036;stroke-width:1"/><path fill="#000" d="M1063.8594,395.5 L1056.1406,395.5 L1056.1406,383.1094 L1063.8594,383.1094 L1063.8594,385.2656 L1058.5938,385.2656 L1058.5938,387.9375 L1063.3594,387.9375 L1063.3594,390.0938 L1058.5938,390.0938 L1058.5938,393.3438 L1063.8594,393.3438 L1063.8594,395.5 Z"/><text x="1080.25" y="393.654" fill="#000" font-family="sans-serif" font-size="12" lengthAdjust="spacing" textLength="100">JobStatisticData</text><line style="stroke:#a80036;stroke-width:1.5" x1="1008.5" x2="1219.5" y1="405.5" y2="405.5"/><ellipse cx="1018.5" cy="416.5" fill="#000" rx="3" ry="3" style="stroke:#000;stroke-width:1"/><text x="1027.5" y="419.71" fill="#000" font-family="sans-serif" font-size="11" lengthAdjust="spacing" textLength="56">uuid: uuid</text><line style="stroke:#a80036;stroke-width:1" x1="1008.5" x2="1219.5" y1="426.305" y2="426.305"/><ellipse cx="1018.5" cy="437.305" fill="#000" rx="3" ry="3" style="stroke:#000;stroke-width:1"/><text x="1027.5" y="440.515" fill="#000" font-family="sans-serif" font-size="11" lengthAdjust="spacing" textLength="118">secHubJobUUID: uuid</text><ellipse cx="1018.5" cy="450.109" fill="#000" rx="3" ry="3" style="stroke:#000;stroke-width:1"/><text x="1027.5" y="453.32" fill="#000" font-family="sans-serif" font-size="11" lengthAdjust="spacing" textLength="187">type: JobStatisticDataType (3*30)</text><ellipse cx="1018.5" cy="462.914" fill="#000" rx="3" ry="3" style="stroke:#000;stroke-width:1"/><text x="1027.5" y="466.125" fill="#000" font-family="sans-serif" font-size="11" lengthAdjust="spacing" textLength="81">id: Text (3*30)</text><ellipse cx="1018.5" cy="475.719" fill="#000" rx="3" ry="3" style="stroke:#000;stroke-width:1"/><text x="1027.5" y="478.929" fill="#000" font-family="sans-serif" font-size="11" lengthAdjust="spacing" textLength="70">value: BigInt</text><ellipse cx="1018.5" cy="488.523" fill="#000" rx="3" ry="3" style="stroke:#000;stroke-width:1"/><text x="1027.5" y="491.734" fill="#000" font-family="sans-serif" font-size="11" lengthAdjust="spacing" textLength="133">timestamp: Timestamp</text><path fill="#FBFB77" d="M926,99 L926,230.0625 A0,0 0 0 0 926,230.0625 L1121.41,230.0625 L1117.43,373.29 L1129.41,230.0625 L1332,230.0625 A0,0 0 0 0 1332,230.0625 L1332,109 L1322,99 L926,99 A0,0 0 0 0 926,99" filter="url(#fn8zyioaoxzbp)" style="stroke:#a80036;stroke-width:1"/><path fill="#FBFB77" d="M1322,99 L1322,109 L1332,109 L1322,99" style="stroke:#a80036;stroke-width:1"/><text x="932" y="116.067" fill="#000" font-family="sans-serif" font-size="13" lengthAdjust="spacing" textLength="266">Contains data for job which is NOT related</text><text x="932" y="131.2" fill="#000" font-family="sans-serif" font-size="13" lengthAdjust="spacing" textLength="385">to a job run but is representative for every run/complete job.</text><text x="932" y="161.465" fill="#000" font-family="sans-serif" font-size="13" font-weight="bold" lengthAdjust="spacing" textLength="193">Some potential examples:</text><text x="932" y="176.598" fill="#000" font-family="sans-serif" font-size="13" lengthAdjust="spacing" textLength="244">type: UPLOAD, id: size_mb, value: 123</text><text x="932" y="191.731" fill="#000" font-family="sans-serif" font-size="13" lengthAdjust="spacing" textLength="226">type: UPLOAD, id: variant, value:src</text><text x="932" y="206.864" fill="#000" font-family="sans-serif" font-size="13" lengthAdjust="spacing" textLength="253">type: UPLOAD, id: s3_problems, value:1</text><path fill="#FBFB77" d="M1256,290 L1256,427.1953 L1083.5,415.9023 L1256,435.1953 L1256,572.3906 A0,0 0 0 0 1256,572.3906 L1790,572.3906 A0,0 0 0 0 1790,572.3906 L1790,300 L1780,290 L1256,290 A0,0 0 0 0 1256,290" filter="url(#fn8zyioaoxzbp)" style="stroke:#a80036;stroke-width:1"/><path fill="#FBFB77" d="M1780,290 L1780,300 L1790,300 L1780,290" style="stroke:#a80036;stroke-width:1"/><text x="1262" y="307.067" fill="#000" font-family="sans-serif" font-size="13" lengthAdjust="spacing" textLength="346">We do not reuse the sechub job uuid as a PK, because</text><text x="1262" y="322.2" fill="#000" font-family="sans-serif" font-size="13" lengthAdjust="spacing" textLength="352">we could have some data which needs multiple entries.</text><text x="1262" y="352.465" fill="#000" font-family="sans-serif" font-size="13" lengthAdjust="spacing" textLength="83">For example:</text><text x="1262" y="367.598" fill="#000" font-family="sans-serif" font-size="13" lengthAdjust="spacing" textLength="243">type: UPLOAD, id: size_MB, value: 123</text><text x="1262" y="382.731" fill="#000" font-family="sans-serif" font-size="13" lengthAdjust="spacing" textLength="243">type: UPLOAD, id: size_MB, value: 234</text><text x="1262" y="412.997" fill="#000" font-family="sans-serif" font-size="13" lengthAdjust="spacing" textLength="397">If a user would upload different content two times, the statistic</text><text x="1262" y="428.129" fill="#000" font-family="sans-serif" font-size="13" lengthAdjust="spacing" textLength="203">must have two different entries.</text><text x="1262" y="458.395" fill="#000" font-family="sans-serif" font-size="13" lengthAdjust="spacing" textLength="383">On the other hand: If we want to update an existing enry like</text><text x="1262" y="473.528" fill="#000" font-family="sans-serif" font-size="13" lengthAdjust="spacing" textLength="253">type: UPLOAD, id: s3_problems, value:1</text><text x="1262" y="503.793" fill="#000" font-family="sans-serif" font-size="13" lengthAdjust="spacing" textLength="415">we can just try to load by type + key an existing entry and do the</text><text x="1262" y="518.926" fill="#000" font-family="sans-serif" font-size="13" lengthAdjust="spacing" textLength="49">update.</text><text x="1262" y="549.192" fill="#000" font-family="sans-serif" font-size="13" lengthAdjust="spacing" textLength="513">This means, using here a new generated UUID, we can use both variants without</text><text x="1262" y="564.325" fill="#000" font-family="sans-serif" font-size="13" lengthAdjust="spacing" textLength="91">any problems.</text><path fill="#FBFB77" d="M714,411 L714,451.2656 A0,0 0 0 0 714,451.2656 L972,451.2656 A0,0 0 0 0 972,451.2656 L972,435.1328 L1011.5,487.9258 L972,427.1328 L972,421 L962,411 L714,411 A0,0 0 0 0 714,411" filter="url(#fn8zyioaoxzbp)" style="stroke:#a80036;stroke-width:1"/><path fill="#FBFB77" d="M962,411 L962,421 L972,421 L962,411" style="stroke:#a80036;stroke-width:1"/><text x="720" y="428.067" fill="#000" font-family="sans-serif" font-size="13" lengthAdjust="spacing" textLength="233">Timestamp represents the UTC date</text><text x="720" y="443.2" fill="#000" font-family="sans-serif" font-size="13" lengthAdjust="spacing" textLength="237">when the data entry was first created</text><rect id="JobRunStatisticData" width="213" height="124.828" x="299.5" y="642" fill="#FEFECE" codeLine="85" filter="url(#fn8zyioaoxzbp)" style="stroke:#a80036;stroke-width:1.5"/><ellipse cx="340.15" cy="658" fill="#ADD1B2" rx="11" ry="11" style="stroke:#a80036;stroke-width:1"/><path fill="#000" d="M344.2594,664 L336.5406,664 L336.5406,651.6094 L344.2594,651.6094 L344.2594,653.7656 L338.9938,653.7656 L338.9938,656.4375 L343.7594,656.4375 L343.7594,658.5938 L338.9938,658.5938 L338.9938,661.8438 L344.2594,661.8438 L344.2594,664 Z"/><text x="359.85" y="662.154" fill="#000" font-family="sans-serif" font-size="12" lengthAdjust="spacing" textLength="124">JobRunStatisticData</text><line style="stroke:#a80036;stroke-width:1.5" x1="300.5" x2="511.5" y1="674" y2="674"/><ellipse cx="310.5" cy="685" fill="#000" rx="3" ry="3" style="stroke:#000;stroke-width:1"/><text x="319.5" y="688.21" fill="#000" font-family="sans-serif" font-size="11" lengthAdjust="spacing" textLength="52">uuid:uuid</text><line style="stroke:#a80036;stroke-width:1" x1="300.5" x2="511.5" y1="694.805" y2="694.805"/><ellipse cx="310.5" cy="705.805" fill="#000" rx="3" ry="3" style="stroke:#000;stroke-width:1"/><text x="319.5" y="709.015" fill="#000" font-family="sans-serif" font-size="11" lengthAdjust="spacing" textLength="109">executionUUID:uuid</text><ellipse cx="310.5" cy="718.609" fill="#000" rx="3" ry="3" style="stroke:#000;stroke-width:1"/><text x="319.5" y="721.82" fill="#000" font-family="sans-serif" font-size="11" lengthAdjust="spacing" textLength="187">type: JobStatisticDataType (3*30)</text><ellipse cx="310.5" cy="731.414" fill="#000" rx="3" ry="3" style="stroke:#000;stroke-width:1"/><text x="319.5" y="734.625" fill="#000" font-family="sans-serif" font-size="11" lengthAdjust="spacing" textLength="81">id: Text (3*30)</text><ellipse cx="310.5" cy="744.219" fill="#000" rx="3" ry="3" style="stroke:#000;stroke-width:1"/><text x="319.5" y="747.429" fill="#000" font-family="sans-serif" font-size="11" lengthAdjust="spacing" textLength="70">value: BigInt</text><ellipse cx="310.5" cy="757.023" fill="#000" rx="3" ry="3" style="stroke:#000;stroke-width:1"/><text x="319.5" y="760.234" fill="#000" font-family="sans-serif" font-size="11" lengthAdjust="spacing" textLength="133">timestamp: Timestamp</text><path fill="#FBFB77" d="M6,679.5 L6,719.7656 A0,0 0 0 0 6,719.7656 L264,719.7656 A0,0 0 0 0 264,719.7656 L264,703.6328 L303.5,756.4258 L264,695.6328 L264,689.5 L254,679.5 L6,679.5 A0,0 0 0 0 6,679.5" filter="url(#fn8zyioaoxzbp)" style="stroke:#a80036;stroke-width:1"/><path fill="#FBFB77" d="M254,679.5 L254,689.5 L264,689.5 L254,679.5" style="stroke:#a80036;stroke-width:1"/><text x="12" y="696.567" fill="#000" font-family="sans-serif" font-size="13" lengthAdjust="spacing" textLength="233">Timestamp represents the UTC date</text><text x="12" y="711.7" fill="#000" font-family="sans-serif" font-size="13" lengthAdjust="spacing" textLength="237">when the data entry was first created</text><path fill="#FBFB77" d="M32.5,348 L32.5,524.4609 A0,0 0 0 0 32.5,524.4609 L293.04,524.4609 L368.49,641.79 L301.04,524.4609 L455.5,524.4609 A0,0 0 0 0 455.5,524.4609 L455.5,358 L445.5,348 L32.5,348 A0,0 0 0 0 32.5,348" filter="url(#fn8zyioaoxzbp)" style="stroke:#a80036;stroke-width:1"/><path fill="#FBFB77" d="M445.5,348 L445.5,358 L455.5,358 L445.5,348" style="stroke:#a80036;stroke-width:1"/><text x="38.5" y="365.067" fill="#000" font-family="sans-serif" font-size="13" lengthAdjust="spacing" textLength="296">Contains information gathered while execution</text><text x="38.5" y="380.2" fill="#000" font-family="sans-serif" font-size="13" lengthAdjust="spacing" textLength="128">phase is happening.</text><text x="38.5" y="410.465" fill="#000" font-family="sans-serif" font-size="13" font-weight="bold" lengthAdjust="spacing" textLength="193">Some potential examples:</text><text x="38.5" y="425.598" fill="#000" font-family="sans-serif" font-size="13" lengthAdjust="spacing" textLength="239">type: LOC, id: &lt;null&gt;, value: 3002345</text><text x="38.5" y="440.731" fill="#000" font-family="sans-serif" font-size="13" lengthAdjust="spacing" textLength="221">type: LOC, id: java, value: 1232345</text><text x="38.5" y="455.864" fill="#000" font-family="sans-serif" font-size="13" lengthAdjust="spacing" textLength="183">type: LANG, id: java, value: 1</text><text x="38.5" y="470.997" fill="#000" font-family="sans-serif" font-size="13" lengthAdjust="spacing" textLength="258">type: SCAN_TYPE, id: codeScan, value: 1</text><text x="38.5" y="486.129" fill="#000" font-family="sans-serif" font-size="13" lengthAdjust="spacing" textLength="388">type: USED_PRODUCT_CODESCAN, id: PDS_GOSEC, value: 1</text><text x="38.5" y="501.262" fill="#000" font-family="sans-serif" font-size="13" lengthAdjust="spacing" textLength="402">type: PRODUCT_RUN_TIME_SECONDS, id: PDS_GOSEC, value:2</text><text x="38.5" y="516.395" fill="#000" font-family="sans-serif" font-size="13" lengthAdjust="spacing" textLength="318">type: PRODUCT_FAILURE, id: PDS_GOSEC, value:1</text><path fill="#FBFB77" d="M547.5,656.5 L547.5,695.332 L371.5,684.4023 L547.5,703.332 L547.5,742.1641 A0,0 0 0 0 547.5,742.1641 L974.5,742.1641 A0,0 0 0 0 974.5,742.1641 L974.5,666.5 L964.5,656.5 L547.5,656.5 A0,0 0 0 0 547.5,656.5" filter="url(#fn8zyioaoxzbp)" style="stroke:#a80036;stroke-width:1"/><path fill="#FBFB77" d="M964.5,656.5 L964.5,666.5 L974.5,666.5 L964.5,656.5" style="stroke:#a80036;stroke-width:1"/><text x="553.5" y="673.567" fill="#000" font-family="sans-serif" font-size="13" lengthAdjust="spacing" textLength="399">We do not reuse the execution uuid as PK, because we want to</text><text x="553.5" y="688.7" fill="#000" font-family="sans-serif" font-size="13" lengthAdjust="spacing" textLength="406">have the possibility to create multiple entries and the possibility</text><text x="553.5" y="703.832" fill="#000" font-family="sans-serif" font-size="13" lengthAdjust="spacing" textLength="231">to update existing ones on demand.</text><text x="553.5" y="734.098" fill="#000" font-family="sans-serif" font-size="13" lengthAdjust="spacing" textLength="331">For an explanation look at the JobStatisticData::uuid</text><rect id="JobRunStatisticDataType" width="185" height="32" x="1019.5" y="7" fill="#FEFECE" codeLine="129" filter="url(#fn8zyioaoxzbp)" style="stroke:#a80036;stroke-width:1.5"/><ellipse cx="1034.5" cy="23" fill="#EB937F" rx="11" ry="11" style="stroke:#a80036;stroke-width:1"/><path fill="#000" d="M1038.6094,29 L1030.8906,29 L1030.8906,16.6094 L1038.6094,16.6094 L1038.6094,18.7656 L1033.3438,18.7656 L1033.3438,21.4375 L1038.1094,21.4375 L1038.1094,23.5938 L1033.3438,23.5938 L1033.3438,26.8438 L1038.6094,26.8438 L1038.6094,29 Z"/><text x="1048.5" y="27.154" fill="#000" font-family="sans-serif" font-size="12" lengthAdjust="spacing" textLength="153">JobRunStatisticDataType</text><rect id="JobStatisticDataType" width="161" height="32" x="1239.5" y="7" fill="#FEFECE" codeLine="131" filter="url(#fn8zyioaoxzbp)" style="stroke:#a80036;stroke-width:1.5"/><ellipse cx="1254.5" cy="23" fill="#EB937F" rx="11" ry="11" style="stroke:#a80036;stroke-width:1"/><path fill="#000" d="M1258.6094,29 L1250.8906,29 L1250.8906,16.6094 L1258.6094,16.6094 L1258.6094,18.7656 L1253.3438,18.7656 L1253.3438,21.4375 L1258.1094,21.4375 L1258.1094,23.5938 L1253.3438,23.5938 L1253.3438,26.8438 L1258.6094,26.8438 L1258.6094,29 Z"/><text x="1268.5" y="27.154" fill="#000" font-family="sans-serif" font-size="12" lengthAdjust="spacing" textLength="129">JobStatisticDataType</text><path id="JobStatistic-JobStatisticData" fill="none" d="M884.96,212.36 C931.77,246.7 987.54,287.71 990,290 C1015.16,313.39 1040.28,341.63 1061.27,366.95" codeLine="123" style="stroke:#a80036;stroke-width:1;stroke-dasharray:7,7"/><line style="stroke:#a80036;stroke-width:1" x1="1061.432" x2="1071.15" y1="367.146" y2="369.504"/><line style="stroke:#a80036;stroke-width:1" x1="1061.432" x2="1061.89" y1="367.146" y2="377.136"/><line style="stroke:#a80036;stroke-width:1" x1="1061.432" x2="1066.52" y1="367.146" y2="373.32"/><ellipse cx="1057.617" cy="362.516" rx="4" ry="4" style="stroke:#a80036;stroke-width:1;fill:none"/><line style="stroke:#a80036;stroke-width:1;fill:none" x1="879.27" x2="884.013" y1="213.153" y2="206.71"/><line style="stroke:#a80036;stroke-width:1;fill:none" x1="881.686" x2="886.429" y1="214.931" y2="208.488"/><line style="stroke:#a80036;stroke-width:1;fill:none" x1="884.863" x2="878.42" y1="212.303" y2="207.56"/><path id="JobStatistic-JobRunStatistic" fill="none" d="M772.12,213.23 C749.01,236.13 721.24,264.15 697,290 C677.66,310.62 657.2,333.36 638.44,354.6" codeLine="125" style="stroke:#a80036;stroke-width:1;stroke-dasharray:7,7"/><line style="stroke:#a80036;stroke-width:1" x1="638.236" x2="637.437" y1="354.844" y2="364.812"/><line style="stroke:#a80036;stroke-width:1" x1="638.236" x2="628.443" y1="354.844" y2="356.868"/><line style="stroke:#a80036;stroke-width:1" x1="638.236" x2="632.94" y1="354.844" y2="360.84"/><ellipse cx="642.208" cy="350.347" rx="4" ry="4" style="stroke:#a80036;stroke-width:1;fill:none"/><line style="stroke:#a80036;stroke-width:1;fill:none" x1="772.233" x2="777.854" y1="207.484" y2="213.177"/><line style="stroke:#a80036;stroke-width:1;fill:none" x1="770.099" x2="775.72" y1="209.592" y2="215.285"/><line style="stroke:#a80036;stroke-width:1;fill:none" x1="772.198" x2="777.89" y1="213.141" y2="207.52"/><path id="JobRunStatistic-JobRunStatisticData" fill="none" d="M519.42,518.06 C496.61,555.36 469.83,599.14 448.03,634.79" codeLine="126" style="stroke:#a80036;stroke-width:1;stroke-dasharray:7,7"/><line style="stroke:#a80036;stroke-width:1" x1="447.9" x2="448.85" y1="634.983" y2="644.938"/><line style="stroke:#a80036;stroke-width:1" x1="447.9" x2="438.61" y1="634.983" y2="638.682"/><line style="stroke:#a80036;stroke-width:1" x1="447.9" x2="443.73" y1="634.983" y2="641.81"/><ellipse cx="451.028" cy="629.863" rx="4" ry="4" style="stroke:#a80036;stroke-width:1;fill:none"/><line style="stroke:#a80036;stroke-width:1;fill:none" x1="518.101" x2="524.928" y1="512.568" y2="516.739"/><line style="stroke:#a80036;stroke-width:1;fill:none" x1="516.537" x2="523.364" y1="515.128" y2="519.299"/><line style="stroke:#a80036;stroke-width:1;fill:none" x1="519.43" x2="523.6" y1="518.067" y2="511.24"/></g></svg>