<svg xmlns="http://www.w3.org/2000/svg" xmlns:xlink="http://www.w3.org/1999/xlink" width="744" height="771" contentScriptType="application/ecmascript" contentStyleType="text/css" preserveAspectRatio="none" style="width:744px;height:771px;background:#fff" version="1.1" viewBox="0 0 744 771" zoomAndPan="magnify"><defs><filter id="fh4dwy8833oti" width="300%" height="300%" x="-1" y="-1"><feGaussianBlur result="blurOut" stdDeviation="2"/><feColorMatrix in="blurOut" result="blurOut2" type="matrix" values="0 0 0 0 0 0 0 0 0 0 0 0 0 0 0 0 0 0 .4 0"/><feOffset dx="4" dy="4" in="blurOut2" result="blurOut3"/><feBlend in="SourceGraphic" in2="blurOut3" mode="normal"/></filter></defs><g><polygon fill="#FFF" points="16 357 375 357 382 379.297 385 379.297 385 764 16 764 16 357" filter="url(#fh4dwy8833oti)" style="stroke:#000;stroke-width:1.5"/><line style="stroke:#000;stroke-width:1.5" x1="16" x2="382" y1="379.297" y2="379.297"/><text x="20" y="371.995" fill="#000" font-family="sans-serif" font-size="14" font-weight="bold" lengthAdjust="spacing" textLength="353">com.mercedesbenz.sechub.commons.model</text><polygon fill="#FFF" points="183 86 468 86 475 108.297 727 108.297 727 169 183 169 183 86" filter="url(#fh4dwy8833oti)" style="stroke:#000;stroke-width:1.5"/><line style="stroke:#000;stroke-width:1.5" x1="183" x2="475" y1="108.297" y2="108.297"/><text x="187" y="100.995" fill="#000" font-family="sans-serif" font-size="14" font-weight="bold" lengthAdjust="spacing" textLength="279">com.mercedesbenz.sechub.sereco</text><rect id="SecHubMessageType" width="165" height="78.414" x="117.5" y="670" fill="#FEFECE" codeLine="8" filter="url(#fh4dwy8833oti)" style="stroke:#a80036;stroke-width:1.5"/><ellipse cx="132.5" cy="686" fill="#EB937F" rx="11" ry="11" style="stroke:#a80036;stroke-width:1"/><path fill="#000" d="M136.6094,692 L128.8906,692 L128.8906,679.6094 L136.6094,679.6094 L136.6094,681.7656 L131.3438,681.7656 L131.3438,684.4375 L136.1094,684.4375 L136.1094,686.5938 L131.3438,686.5938 L131.3438,689.8438 L136.6094,689.8438 L136.6094,692 Z"/><text x="146.5" y="690.154" fill="#000" font-family="sans-serif" font-size="12" lengthAdjust="spacing" textLength="133">SecHubMessageType</text><line style="stroke:#a80036;stroke-width:1.5" x1="118.5" x2="281.5" y1="702" y2="702"/><text x="123.5" y="716.21" fill="#000" font-family="sans-serif" font-size="11" lengthAdjust="spacing" textLength="37">ERROR</text><text x="123.5" y="729.015" fill="#000" font-family="sans-serif" font-size="11" lengthAdjust="spacing" textLength="51">WARNING</text><text x="123.5" y="741.82" fill="#000" font-family="sans-serif" font-size="11" lengthAdjust="spacing" textLength="26">INFO</text><rect id="SecHubMessage" width="161" height="65.609" x="119.5" y="527" fill="#FEFECE" codeLine="14" filter="url(#fh4dwy8833oti)" style="stroke:#a80036;stroke-width:1.5"/><ellipse cx="145.75" cy="543" fill="#ADD1B2" rx="11" ry="11" style="stroke:#a80036;stroke-width:1"/><path fill="#000" d="M148.7188,548.6406 Q148.1406,548.9375 147.5,549.0781 Q146.8594,549.2344 146.1563,549.2344 Q143.6563,549.2344 142.3281,547.5938 Q141.0156,545.9375 141.0156,542.8125 Q141.0156,539.6875 142.3281,538.0313 Q143.6563,536.375 146.1563,536.375 Q146.8594,536.375 147.5,536.5313 Q148.1563,536.6875 148.7188,536.9844 L148.7188,539.7031 Q148.0938,539.125 147.5,538.8594 Q146.9063,538.5781 146.2813,538.5781 Q144.9375,538.5781 144.25,539.6563 Q143.5625,540.7188 143.5625,542.8125 Q143.5625,544.9063 144.25,545.9844 Q144.9375,547.0469 146.2813,547.0469 Q146.9063,547.0469 147.5,546.7813 Q148.0938,546.5 148.7188,545.9219 L148.7188,548.6406 Z"/><text x="162.25" y="547.154" fill="#000" font-family="sans-serif" font-size="12" lengthAdjust="spacing" textLength="104">SecHubMessage</text><line style="stroke:#a80036;stroke-width:1.5" x1="120.5" x2="279.5" y1="559" y2="559"/><text x="125.5" y="573.21" fill="#000" font-family="sans-serif" font-size="11" lengthAdjust="spacing" textLength="149">SecHubMessageType type</text><text x="125.5" y="586.015" fill="#000" font-family="sans-serif" font-size="11" lengthAdjust="spacing" textLength="59">String text</text><rect id="SecHubMessagesList" width="275" height="73.609" x="62.5" y="392" fill="#FEFECE" codeLine="20" filter="url(#fh4dwy8833oti)" style="stroke:#a80036;stroke-width:1.5"/><ellipse cx="129.75" cy="408" fill="#ADD1B2" rx="11" ry="11" style="stroke:#a80036;stroke-width:1"/><path fill="#000" d="M132.7188,413.6406 Q132.1406,413.9375 131.5,414.0781 Q130.8594,414.2344 130.1563,414.2344 Q127.6563,414.2344 126.3281,412.5938 Q125.0156,410.9375 125.0156,407.8125 Q125.0156,404.6875 126.3281,403.0313 Q127.6563,401.375 130.1563,401.375 Q130.8594,401.375 131.5,401.5313 Q132.1563,401.6875 132.7188,401.9844 L132.7188,404.7031 Q132.0938,404.125 131.5,403.8594 Q130.9063,403.5781 130.2813,403.5781 Q128.9375,403.5781 128.25,404.6563 Q127.5625,405.7188 127.5625,407.8125 Q127.5625,409.9063 128.25,410.9844 Q128.9375,412.0469 130.2813,412.0469 Q130.9063,412.0469 131.5,411.7813 Q132.0938,411.5 132.7188,410.9219 L132.7188,413.6406 Z"/><text x="150.25" y="412.154" fill="#000" font-family="sans-serif" font-size="12" lengthAdjust="spacing" textLength="132">SecHubMessagesList</text><line style="stroke:#a80036;stroke-width:1.5" x1="63.5" x2="336.5" y1="424" y2="424"/><text x="68.5" y="438.21" fill="#000" font-family="sans-serif" font-size="11" lengthAdjust="spacing" textLength="66">«JSONable»</text><line style="stroke:#a80036;stroke-width:1.5" x1="63.5" x2="336.5" y1="444.805" y2="444.805"/><text x="68.5" y="459.015" fill="#000" font-family="sans-serif" font-size="11" lengthAdjust="spacing" textLength="263">List&lt;SecHubMessage&gt; getSecHubMessages()</text><rect id="SerecoAnnotation" width="145" height="32" x="565.5" y="121" fill="#FEFECE" codeLine="41" filter="url(#fh4dwy8833oti)" style="stroke:#a80036;stroke-width:1.5"/><ellipse cx="580.5" cy="137" fill="#ADD1B2" rx="11" ry="11" style="stroke:#a80036;stroke-width:1"/><path fill="#000" d="M583.4688,142.6406 Q582.8906,142.9375 582.25,143.0781 Q581.6094,143.2344 580.9063,143.2344 Q578.4063,143.2344 577.0781,141.5938 Q575.7656,139.9375 575.7656,136.8125 Q575.7656,133.6875 577.0781,132.0313 Q578.4063,130.375 580.9063,130.375 Q581.6094,130.375 582.25,130.5313 Q582.9063,130.6875 583.4688,130.9844 L583.4688,133.7031 Q582.8438,133.125 582.25,132.8594 Q581.6563,132.5781 581.0313,132.5781 Q579.6875,132.5781 579,133.6563 Q578.3125,134.7188 578.3125,136.8125 Q578.3125,138.9063 579,139.9844 Q579.6875,141.0469 581.0313,141.0469 Q581.6563,141.0469 582.25,140.7813 Q582.8438,140.5 583.4688,139.9219 L583.4688,142.6406 Z"/><text x="594.5" y="141.154" fill="#000" font-family="sans-serif" font-size="12" lengthAdjust="spacing" textLength="113">SerecoAnnotation</text><rect id="SerecoProductExecutor" width="180" height="32" x="199" y="121" fill="#FEFECE" codeLine="43" filter="url(#fh4dwy8833oti)" style="stroke:#a80036;stroke-width:1.5"/><ellipse cx="214" cy="137" fill="#ADD1B2" rx="11" ry="11" style="stroke:#a80036;stroke-width:1"/><path fill="#000" d="M216.9688,142.6406 Q216.3906,142.9375 215.75,143.0781 Q215.1094,143.2344 214.4063,143.2344 Q211.9063,143.2344 210.5781,141.5938 Q209.2656,139.9375 209.2656,136.8125 Q209.2656,133.6875 210.5781,132.0313 Q211.9063,130.375 214.4063,130.375 Q215.1094,130.375 215.75,130.5313 Q216.4063,130.6875 216.9688,130.9844 L216.9688,133.7031 Q216.3438,133.125 215.75,132.8594 Q215.1563,132.5781 214.5313,132.5781 Q213.1875,132.5781 212.5,133.6563 Q211.8125,134.7188 211.8125,136.8125 Q211.8125,138.9063 212.5,139.9844 Q213.1875,141.0469 214.5313,141.0469 Q215.1563,141.0469 215.75,140.7813 Q216.3438,140.5 216.9688,139.9219 L216.9688,142.6406 Z"/><text x="228" y="141.154" fill="#000" font-family="sans-serif" font-size="12" lengthAdjust="spacing" textLength="148">SerecoProductExecutor</text><rect id="ProductResult" width="120" height="78.414" x="140" y="232" fill="#FEFECE" codeLine="32" filter="url(#fh4dwy8833oti)" style="stroke:#a80036;stroke-width:1.5"/><ellipse cx="155" cy="248" fill="#ADD1B2" rx="11" ry="11" style="stroke:#a80036;stroke-width:1"/><path fill="#000" d="M157.9688,253.6406 Q157.3906,253.9375 156.75,254.0781 Q156.1094,254.2344 155.4063,254.2344 Q152.9063,254.2344 151.5781,252.5938 Q150.2656,250.9375 150.2656,247.8125 Q150.2656,244.6875 151.5781,243.0313 Q152.9063,241.375 155.4063,241.375 Q156.1094,241.375 156.75,241.5313 Q157.4063,241.6875 157.9688,241.9844 L157.9688,244.7031 Q157.3438,244.125 156.75,243.8594 Q156.1563,243.5781 155.5313,243.5781 Q154.1875,243.5781 153.5,244.6563 Q152.8125,245.7188 152.8125,247.8125 Q152.8125,249.9063 153.5,250.9844 Q154.1875,252.0469 155.5313,252.0469 Q156.1563,252.0469 156.75,251.7813 Q157.3438,251.5 157.9688,250.9219 L157.9688,253.6406 Z"/><text x="169" y="252.154" fill="#000" font-family="sans-serif" font-size="12" lengthAdjust="spacing" textLength="88">ProductResult</text><line style="stroke:#a80036;stroke-width:1.5" x1="141" x2="259" y1="264" y2="264"/><text x="146" y="278.21" fill="#000" font-family="sans-serif" font-size="11" lengthAdjust="spacing" textLength="45">«Entity»</text><text x="146" y="291.015" fill="#000" font-family="sans-serif" font-size="11" lengthAdjust="spacing" textLength="98">String messages</text><text x="146" y="303.82" fill="#000" font-family="sans-serif" font-size="11" lengthAdjust="spacing" textLength="71">String result</text><rect id="ProductExecutor" width="136" height="32" x="221" y="7" fill="#FEFECE" codeLine="38" filter="url(#fh4dwy8833oti)" style="stroke:#a80036;stroke-width:1.5"/><ellipse cx="236" cy="23" fill="#B4A7E5" rx="11" ry="11" style="stroke:#a80036;stroke-width:1"/><path fill="#000" d="M231.9219,18.7656 L231.9219,16.6094 L239.3125,16.6094 L239.3125,18.7656 L236.8438,18.7656 L236.8438,26.8438 L239.3125,26.8438 L239.3125,29 L231.9219,29 L231.9219,26.8438 L234.3906,26.8438 L234.3906,18.7656 L231.9219,18.7656 Z"/><text x="250" y="27.154" fill="#000" font-family="sans-serif" font-size="12" font-style="italic" lengthAdjust="spacing" textLength="104">ProductExecutor</text><path fill="#FBFB77" d="M295.5,238.5 L295.5,262.1992 L244,287.207 L295.5,270.1992 L295.5,293.8984 A0,0 0 0 0 295.5,293.8984 L512.5,293.8984 A0,0 0 0 0 512.5,293.8984 L512.5,248.5 L502.5,238.5 L295.5,238.5 A0,0 0 0 0 295.5,238.5" filter="url(#fh4dwy8833oti)" style="stroke:#a80036;stroke-width:1"/><path fill="#FBFB77" d="M502.5,238.5 L502.5,248.5 L512.5,248.5 L502.5,238.5" style="stroke:#a80036;stroke-width:1"/><text x="301.5" y="255.567" fill="#000" font-family="sans-serif" font-size="13" lengthAdjust="spacing" textLength="196">Contains SecHubMessagesList</text><text x="301.5" y="270.7" fill="#000" font-family="sans-serif" font-size="13" lengthAdjust="spacing" textLength="134">as JSON after update</text><text x="301.5" y="285.832" fill="#000" font-family="sans-serif" font-size="13" lengthAdjust="spacing" textLength="178">by AbstractProductExecutor</text><path id="SecHubMessage-backto-SecHubMessageType" fill="none" d="M200,606.38 C200,626.71 200,650.42 200,669.83" codeLine="29" style="stroke:#a80036;stroke-width:1"/><polygon fill="#FFF" points="200 593.26 196 599.26 200 605.26 204 599.26 200 593.26" style="stroke:#a80036;stroke-width:1"/><text x="201" y="636.067" fill="#000" font-family="sans-serif" font-size="13" lengthAdjust="spacing" textLength="23">has</text><path id="SecHubMessagesList-backto-SecHubMessage" fill="none" d="M200,479.29 C200,495.27 200,512.56 200,526.95" codeLine="30" style="stroke:#a80036;stroke-width:1"/><polygon fill="#FFF" points="200 466.28 196 472.28 200 478.28 204 472.28 200 466.28" style="stroke:#a80036;stroke-width:1"/><path id="ProductExecutor-backto-SerecoProductExecutor" fill="none" d="M289,59.18 C289,79.89 289,105.03 289,120.78" style="stroke:#a80036;stroke-width:1;stroke-dasharray:7,7"/><polygon fill="none" points="282 59.1 289 39.1 296 59.1 282 59.1" style="stroke:#a80036;stroke-width:1"/><path id="ProductResult-to-SecHubMessagesList" fill="none" d="M200,310.16 C200,333.31 200,362.85 200,386.56" codeLine="49" style="stroke:#a80036;stroke-width:1"/><polygon fill="#A80036" points="200 391.84 204 382.84 200 386.84 196 382.84 200 391.84" style="stroke:#a80036;stroke-width:1"/><path id="SerecoProductExecutor-to-ProductResult" fill="none" d="M200.78,153.04 C183.99,160.01 168.43,170.18 158,185 C148.82,198.05 152.61,213.41 160.88,227.46" codeLine="50" style="stroke:#a80036;stroke-width:1"/><polygon fill="#A80036" points="163.58 231.77 162.217 222.016 160.936 227.526 155.426 226.246 163.58 231.77" style="stroke:#a80036;stroke-width:1"/><text x="159" y="198.067" fill="#000" font-family="sans-serif" font-size="13" lengthAdjust="spacing" textLength="214">reads all other product results (1)</text><path id="SerecoProductExecutor-to-ProductResult-1" fill="none" d="M338.9,153.07 C366.98,164.22 393.56,181.08 378,202 C350.3,239.23 321.22,215.12 278,232 C273.67,233.69 269.26,235.53 264.83,237.44" codeLine="52" style="stroke:#a80036;stroke-width:1"/><polygon fill="#A80036" points="260.04 239.56 269.889 239.591 264.615 237.544 266.663 232.271 260.04 239.56" style="stroke:#a80036;stroke-width:1"/><text x="383" y="198.067" fill="#000" font-family="sans-serif" font-size="13" lengthAdjust="spacing" textLength="202">stores sereco product result (3)</text><path id="SerecoProductExecutor-to-SerecoAnnotation" fill="none" d="M379.33,137 C435.39,137 506.68,137 560.22,137" codeLine="51" style="stroke:#a80036;stroke-width:1"/><polygon fill="#A80036" points="565.34 137 556.34 133 560.34 137 556.34 141 565.34 137" style="stroke:#a80036;stroke-width:1"/><text x="397.25" y="130.067" fill="#000" font-family="sans-serif" font-size="13" lengthAdjust="spacing" textLength="150">creates annotations (2)</text></g></svg>