<svg xmlns="http://www.w3.org/2000/svg" xmlns:xlink="http://www.w3.org/1999/xlink" width="886" height="399" contentScriptType="application/ecmascript" contentStyleType="text/css" preserveAspectRatio="none" style="width:886px;height:399px;background:#fff" version="1.1" viewBox="0 0 886 399" zoomAndPan="magnify"><g><line style="stroke:#a80036;stroke-width:1;stroke-dasharray:5,5" x1="168" x2="168" y1="84.297" y2="392.359"/><line style="stroke:#a80036;stroke-width:1;stroke-dasharray:5,5" x1="398" x2="398" y1="84.297" y2="392.359"/><line style="stroke:#a80036;stroke-width:1;stroke-dasharray:5,5" x1="667.5" x2="667.5" y1="84.297" y2="392.359"/><line style="stroke:#a80036;stroke-width:1;stroke-dasharray:5,5" x1="756.5" x2="756.5" y1="84.297" y2="392.359"/><line style="stroke:#a80036;stroke-width:1;stroke-dasharray:5,5" x1="833.5" x2="833.5" y1="84.297" y2="392.359"/><text x="5" y="80.995" fill="#000" font-family="sans-serif" font-size="14" lengthAdjust="spacing" textLength="320">UC_ADMIN_UNASSIGNS_USER_FROM_PROJECT</text><ellipse cx="168" cy="15" fill="#FEFECE" rx="8" ry="8" style="stroke:#a80036;stroke-width:2"/><path fill="none" d="M168,23 L168,50 M155,31 L181,31 M168,50 L155,65 M168,50 L181,65" style="stroke:#a80036;stroke-width:2"/><rect width="111" height="30.297" x="345" fill="#FEFECE" style="stroke:#a80036;stroke-width:1.5" y="49"/><rect width="111" height="30.297" x="341" fill="#FEFECE" style="stroke:#a80036;stroke-width:1.5" y="53"/><text x="348" y="72.995" fill="#000" font-family="sans-serif" font-size="14" lengthAdjust="spacing" textLength="97">administration</text><rect width="104" height="30.297" x="617.5" fill="#FEFECE" style="stroke:#a80036;stroke-width:1.5" y="49"/><rect width="104" height="30.297" x="613.5" fill="#FEFECE" style="stroke:#a80036;stroke-width:1.5" y="53"/><text x="620.5" y="72.995" fill="#000" font-family="sans-serif" font-size="14" lengthAdjust="spacing" textLength="90">authorization</text><rect width="47" height="30.297" x="735.5" fill="#FEFECE" style="stroke:#a80036;stroke-width:1.5" y="49"/><rect width="47" height="30.297" x="731.5" fill="#FEFECE" style="stroke:#a80036;stroke-width:1.5" y="53"/><text x="738.5" y="72.995" fill="#000" font-family="sans-serif" font-size="14" lengthAdjust="spacing" textLength="33">scan</text><rect width="78" height="30.297" x="796.5" fill="#FEFECE" style="stroke:#a80036;stroke-width:1.5" y="49"/><rect width="78" height="30.297" x="792.5" fill="#FEFECE" style="stroke:#a80036;stroke-width:1.5" y="53"/><text x="799.5" y="72.995" fill="#000" font-family="sans-serif" font-size="14" lengthAdjust="spacing" textLength="64">schedule</text><rect width="879.5" height="3" x="0" fill="#EEE" style="stroke:#eee;stroke-width:1" y="114.863"/><line style="stroke:#000;stroke-width:1" x1="0" x2="879.5" y1="114.863" y2="114.863"/><line style="stroke:#000;stroke-width:1" x1="0" x2="879.5" y1="117.863" y2="117.863"/><rect width="28" height="23.133" x="425.75" fill="#EEE" style="stroke:#000;stroke-width:2" y="104.297"/><text x="431.75" y="120.364" fill="#000" font-family="sans-serif" font-size="13" font-weight="bold" lengthAdjust="spacing" textLength="9">0</text><polygon fill="#A80036" points="386.5 154.563 396.5 158.563 386.5 162.563" style="stroke:#a80036;stroke-width:1"/><line style="stroke:#a80036;stroke-width:1" x1="168" x2="392.5" y1="158.563" y2="158.563"/><text x="175" y="153.497" fill="#000" font-family="sans-serif" font-size="13" lengthAdjust="spacing" textLength="59">executed</text><line style="stroke:#a80036;stroke-width:1" x1="755" x2="745" y1="187.695" y2="183.695"/><line style="stroke:#a80036;stroke-width:1" x1="755" x2="745" y1="187.695" y2="191.695"/><line style="stroke:#a80036;stroke-width:1" x1="398.5" x2="756" y1="187.695" y2="187.695"/><text x="405.5" y="182.629" fill="#000" font-family="sans-serif" font-size="13" lengthAdjust="spacing" textLength="209">USER_REMOVED_FROM_PROJECT</text><line style="stroke:#a80036;stroke-width:1" x1="831.5" x2="821.5" y1="216.828" y2="212.828"/><line style="stroke:#a80036;stroke-width:1" x1="831.5" x2="821.5" y1="216.828" y2="220.828"/><line style="stroke:#a80036;stroke-width:1" x1="398.5" x2="832.5" y1="216.828" y2="216.828"/><text x="405.5" y="211.762" fill="#000" font-family="sans-serif" font-size="13" lengthAdjust="spacing" textLength="209">USER_REMOVED_FROM_PROJECT</text><rect width="879.5" height="3" x="0" fill="#EEE" style="stroke:#eee;stroke-width:1" y="245.394"/><line style="stroke:#000;stroke-width:1" x1="0" x2="879.5" y1="245.394" y2="245.394"/><line style="stroke:#000;stroke-width:1" x1="0" x2="879.5" y1="248.394" y2="248.394"/><rect width="28" height="23.133" x="425.75" fill="#EEE" style="stroke:#000;stroke-width:2" y="234.828"/><text x="431.75" y="250.895" fill="#000" font-family="sans-serif" font-size="13" font-weight="bold" lengthAdjust="spacing" textLength="9">1</text><line style="stroke:#a80036;stroke-width:1" x1="398.5" x2="440.5" y1="289.094" y2="289.094"/><line style="stroke:#a80036;stroke-width:1" x1="440.5" x2="440.5" y1="289.094" y2="302.094"/><line style="stroke:#a80036;stroke-width:1" x1="399.5" x2="440.5" y1="302.094" y2="302.094"/><line style="stroke:#a80036;stroke-width:1" x1="399.5" x2="409.5" y1="302.094" y2="298.094"/><line style="stroke:#a80036;stroke-width:1" x1="399.5" x2="409.5" y1="302.094" y2="306.094"/><text x="405.5" y="284.028" fill="#000" font-family="sans-serif" font-size="13" lengthAdjust="spacing" textLength="255">REQUEST_USER_ROLE_RECALCULATION</text><rect width="879.5" height="3" x="0" fill="#EEE" style="stroke:#eee;stroke-width:1" y="330.66"/><line style="stroke:#000;stroke-width:1" x1="0" x2="879.5" y1="330.66" y2="330.66"/><line style="stroke:#000;stroke-width:1" x1="0" x2="879.5" y1="333.66" y2="333.66"/><rect width="28" height="23.133" x="425.75" fill="#EEE" style="stroke:#000;stroke-width:2" y="320.094"/><text x="431.75" y="336.161" fill="#000" font-family="sans-serif" font-size="13" font-weight="bold" lengthAdjust="spacing" textLength="9">2</text><line style="stroke:#a80036;stroke-width:1" x1="665.5" x2="655.5" y1="374.359" y2="370.359"/><line style="stroke:#a80036;stroke-width:1" x1="665.5" x2="655.5" y1="374.359" y2="378.359"/><line style="stroke:#a80036;stroke-width:1" x1="398.5" x2="666.5" y1="374.359" y2="374.359"/><text x="405.5" y="369.293" fill="#000" font-family="sans-serif" font-size="13" lengthAdjust="spacing" textLength="157">USER_ROLES_CHANGED</text></g></svg>