<svg xmlns="http://www.w3.org/2000/svg" xmlns:xlink="http://www.w3.org/1999/xlink" width="959" height="675" contentScriptType="application/ecmascript" contentStyleType="text/css" preserveAspectRatio="none" style="width:959px;height:675px;background:#fff" version="1.1" viewBox="0 0 959 675" zoomAndPan="magnify"><g><line style="stroke:#a80036;stroke-width:1;stroke-dasharray:5,5" x1="100" x2="100" y1="84.297" y2="668.422"/><line style="stroke:#a80036;stroke-width:1;stroke-dasharray:5,5" x1="262" x2="262" y1="84.297" y2="668.422"/><line style="stroke:#a80036;stroke-width:1;stroke-dasharray:5,5" x1="376" x2="376" y1="84.297" y2="668.422"/><line style="stroke:#a80036;stroke-width:1;stroke-dasharray:5,5" x1="458" x2="458" y1="84.297" y2="668.422"/><line style="stroke:#a80036;stroke-width:1;stroke-dasharray:5,5" x1="715.5" x2="715.5" y1="84.297" y2="668.422"/><line style="stroke:#a80036;stroke-width:1;stroke-dasharray:5,5" x1="911" x2="911" y1="84.297" y2="668.422"/><text x="5" y="80.995" fill="#000" font-family="sans-serif" font-size="14" lengthAdjust="spacing" textLength="184">UC_ADMIN_RESTARTS_JOB</text><ellipse cx="100" cy="15" fill="#FEFECE" rx="8" ry="8" style="stroke:#a80036;stroke-width:2"/><path fill="none" d="M100,23 L100,50 M87,31 L113,31 M100,50 L87,65 M100,50 L113,65" style="stroke:#a80036;stroke-width:2"/><rect width="111" height="30.297" x="209" fill="#FEFECE" style="stroke:#a80036;stroke-width:1.5" y="49"/><rect width="111" height="30.297" x="205" fill="#FEFECE" style="stroke:#a80036;stroke-width:1.5" y="53"/><text x="212" y="72.995" fill="#000" font-family="sans-serif" font-size="14" lengthAdjust="spacing" textLength="97">administration</text><rect width="89" height="30.297" x="334" fill="#FEFECE" style="stroke:#a80036;stroke-width:1.5" y="49"/><rect width="89" height="30.297" x="330" fill="#FEFECE" style="stroke:#a80036;stroke-width:1.5" y="53"/><text x="337" y="72.995" fill="#000" font-family="sans-serif" font-size="14" lengthAdjust="spacing" textLength="75">notification</text><rect width="47" height="30.297" x="437" fill="#FEFECE" style="stroke:#a80036;stroke-width:1.5" y="49"/><rect width="47" height="30.297" x="433" fill="#FEFECE" style="stroke:#a80036;stroke-width:1.5" y="53"/><text x="440" y="72.995" fill="#000" font-family="sans-serif" font-size="14" lengthAdjust="spacing" textLength="33">scan</text><rect width="78" height="30.297" x="678.5" fill="#FEFECE" style="stroke:#a80036;stroke-width:1.5" y="49"/><rect width="78" height="30.297" x="674.5" fill="#FEFECE" style="stroke:#a80036;stroke-width:1.5" y="53"/><text x="681.5" y="72.995" fill="#000" font-family="sans-serif" font-size="14" lengthAdjust="spacing" textLength="64">schedule</text><rect width="67" height="30.297" x="880" fill="#FEFECE" style="stroke:#a80036;stroke-width:1.5" y="49"/><rect width="67" height="30.297" x="876" fill="#FEFECE" style="stroke:#a80036;stroke-width:1.5" y="53"/><text x="883" y="72.995" fill="#000" font-family="sans-serif" font-size="14" lengthAdjust="spacing" textLength="53">statistic</text><rect width="952" height="3" x="0" fill="#EEE" style="stroke:#eee;stroke-width:1" y="114.863"/><line style="stroke:#000;stroke-width:1" x1="0" x2="952" y1="114.863" y2="114.863"/><line style="stroke:#000;stroke-width:1" x1="0" x2="952" y1="117.863" y2="117.863"/><rect width="28" height="23.133" x="462" fill="#EEE" style="stroke:#000;stroke-width:2" y="104.297"/><text x="468" y="120.364" fill="#000" font-family="sans-serif" font-size="13" font-weight="bold" lengthAdjust="spacing" textLength="9">0</text><polygon fill="#A80036" points="250.5 154.563 260.5 158.563 250.5 162.563" style="stroke:#a80036;stroke-width:1"/><line style="stroke:#a80036;stroke-width:1" x1="100" x2="256.5" y1="158.563" y2="158.563"/><text x="107" y="153.497" fill="#000" font-family="sans-serif" font-size="13" lengthAdjust="spacing" textLength="59">executed</text><line style="stroke:#a80036;stroke-width:1" x1="713.5" x2="703.5" y1="187.695" y2="183.695"/><line style="stroke:#a80036;stroke-width:1" x1="713.5" x2="703.5" y1="187.695" y2="191.695"/><line style="stroke:#a80036;stroke-width:1" x1="262.5" x2="714.5" y1="187.695" y2="187.695"/><text x="269.5" y="182.629" fill="#000" font-family="sans-serif" font-size="13" lengthAdjust="spacing" textLength="152">REQUEST_JOB_RESTART</text><rect width="952" height="3" x="0" fill="#EEE" style="stroke:#eee;stroke-width:1" y="216.262"/><line style="stroke:#000;stroke-width:1" x1="0" x2="952" y1="216.262" y2="216.262"/><line style="stroke:#000;stroke-width:1" x1="0" x2="952" y1="219.262" y2="219.262"/><rect width="28" height="23.133" x="462" fill="#EEE" style="stroke:#000;stroke-width:2" y="205.695"/><text x="468" y="221.762" fill="#000" font-family="sans-serif" font-size="13" font-weight="bold" lengthAdjust="spacing" textLength="9">1</text><line style="stroke:#a80036;stroke-width:1" x1="376.5" x2="386.5" y1="259.961" y2="255.961"/><line style="stroke:#a80036;stroke-width:1" x1="376.5" x2="386.5" y1="259.961" y2="263.961"/><line style="stroke:#a80036;stroke-width:1" x1="376.5" x2="714.5" y1="259.961" y2="259.961"/><text x="393.5" y="254.895" fill="#000" font-family="sans-serif" font-size="13" lengthAdjust="spacing" textLength="164">JOB_RESTART_TRIGGERED</text><rect width="952" height="3" x="0" fill="#EEE" style="stroke:#eee;stroke-width:1" y="288.527"/><line style="stroke:#000;stroke-width:1" x1="0" x2="952" y1="288.527" y2="288.527"/><line style="stroke:#000;stroke-width:1" x1="0" x2="952" y1="291.527" y2="291.527"/><rect width="28" height="23.133" x="462" fill="#EEE" style="stroke:#000;stroke-width:2" y="277.961"/><text x="468" y="294.028" fill="#000" font-family="sans-serif" font-size="13" font-weight="bold" lengthAdjust="spacing" textLength="9">2</text><line style="stroke:#a80036;stroke-width:1" x1="262.5" x2="272.5" y1="332.227" y2="328.227"/><line style="stroke:#a80036;stroke-width:1" x1="262.5" x2="272.5" y1="332.227" y2="336.227"/><line style="stroke:#a80036;stroke-width:1" x1="262.5" x2="714.5" y1="332.227" y2="332.227"/><text x="279.5" y="327.161" fill="#000" font-family="sans-serif" font-size="13" lengthAdjust="spacing" textLength="87">JOB_STARTED</text><rect width="952" height="3" x="0" fill="#EEE" style="stroke:#eee;stroke-width:1" y="360.793"/><line style="stroke:#000;stroke-width:1" x1="0" x2="952" y1="360.793" y2="360.793"/><line style="stroke:#000;stroke-width:1" x1="0" x2="952" y1="363.793" y2="363.793"/><rect width="28" height="23.133" x="462" fill="#EEE" style="stroke:#000;stroke-width:2" y="350.227"/><text x="468" y="366.293" fill="#000" font-family="sans-serif" font-size="13" font-weight="bold" lengthAdjust="spacing" textLength="9">3</text><line style="stroke:#a80036;stroke-width:1" x1="909.5" x2="899.5" y1="404.492" y2="400.492"/><line style="stroke:#a80036;stroke-width:1" x1="909.5" x2="899.5" y1="404.492" y2="408.492"/><line style="stroke:#a80036;stroke-width:1" x1="715.5" x2="910.5" y1="404.492" y2="404.492"/><text x="722.5" y="399.426" fill="#000" font-family="sans-serif" font-size="13" lengthAdjust="spacing" textLength="172">JOB_EXECUTION_STARTING</text><rect width="952" height="3" x="0" fill="#EEE" style="stroke:#eee;stroke-width:1" y="433.059"/><line style="stroke:#000;stroke-width:1" x1="0" x2="952" y1="433.059" y2="433.059"/><line style="stroke:#000;stroke-width:1" x1="0" x2="952" y1="436.059" y2="436.059"/><rect width="28" height="23.133" x="462" fill="#EEE" style="stroke:#000;stroke-width:2" y="422.492"/><text x="468" y="438.559" fill="#000" font-family="sans-serif" font-size="13" font-weight="bold" lengthAdjust="spacing" textLength="9">4</text><polygon fill="#A80036" points="469.5 472.758 459.5 476.758 469.5 480.758" style="stroke:#a80036;stroke-width:1"/><line style="stroke:#a80036;stroke-width:1" x1="463.5" x2="714.5" y1="476.758" y2="476.758"/><text x="475.5" y="471.692" fill="#000" font-family="sans-serif" font-size="13" lengthAdjust="spacing" textLength="84">START_SCAN</text><rect width="952" height="3" x="0" fill="#EEE" style="stroke:#eee;stroke-width:1" y="505.324"/><line style="stroke:#000;stroke-width:1" x1="0" x2="952" y1="505.324" y2="505.324"/><line style="stroke:#000;stroke-width:1" x1="0" x2="952" y1="508.324" y2="508.324"/><rect width="28" height="23.133" x="462" fill="#EEE" style="stroke:#000;stroke-width:2" y="494.758"/><text x="468" y="510.825" fill="#000" font-family="sans-serif" font-size="13" font-weight="bold" lengthAdjust="spacing" textLength="9">5</text><polygon fill="#A80036" points="703.5 545.023 713.5 549.023 703.5 553.023" style="stroke:#a80036;stroke-width:1"/><line style="stroke:#a80036;stroke-width:1" x1="458.5" x2="709.5" y1="549.023" y2="549.023"/><text x="465.5" y="543.957" fill="#000" font-family="sans-serif" font-size="13" lengthAdjust="spacing" textLength="233">REQUEST_SCHEDULER_JOB_STATUS</text><rect width="952" height="3" x="0" fill="#EEE" style="stroke:#eee;stroke-width:1" y="577.59"/><line style="stroke:#000;stroke-width:1" x1="0" x2="952" y1="577.59" y2="577.59"/><line style="stroke:#000;stroke-width:1" x1="0" x2="952" y1="580.59" y2="580.59"/><rect width="28" height="23.133" x="462" fill="#EEE" style="stroke:#000;stroke-width:2" y="567.023"/><text x="468" y="583.09" fill="#000" font-family="sans-serif" font-size="13" font-weight="bold" lengthAdjust="spacing" textLength="9">6</text><line style="stroke:#a80036;stroke-width:1" x1="262.5" x2="272.5" y1="621.289" y2="617.289"/><line style="stroke:#a80036;stroke-width:1" x1="262.5" x2="272.5" y1="621.289" y2="625.289"/><line style="stroke:#a80036;stroke-width:1" x1="262.5" x2="714.5" y1="621.289" y2="621.289"/><text x="279.5" y="616.223" fill="#000" font-family="sans-serif" font-size="13" lengthAdjust="spacing" textLength="67">JOB_DONE</text><line style="stroke:#a80036;stroke-width:1" x1="909.5" x2="899.5" y1="650.422" y2="646.422"/><line style="stroke:#a80036;stroke-width:1" x1="909.5" x2="899.5" y1="650.422" y2="654.422"/><line style="stroke:#a80036;stroke-width:1" x1="715.5" x2="910.5" y1="650.422" y2="650.422"/><text x="722.5" y="645.356" fill="#000" font-family="sans-serif" font-size="13" lengthAdjust="spacing" textLength="67">JOB_DONE</text></g></svg>