<svg xmlns="http://www.w3.org/2000/svg" xmlns:xlink="http://www.w3.org/1999/xlink" width="555" height="353" contentScriptType="application/ecmascript" contentStyleType="text/css" preserveAspectRatio="none" style="width:555px;height:353px;background:#fff" version="1.1" viewBox="0 0 555 353" zoomAndPan="magnify"><g><text x="45" y="28.708" fill="#000" font-family="sans-serif" font-size="18" lengthAdjust="spacing" text-decoration="underline" textLength="201">Communication details</text><text x="258" y="28.708" fill="#000" font-family="sans-serif" font-size="18" lengthAdjust="spacing" textLength="17">of</text><text x="281" y="28.708" fill="#000" font-family="sans-serif" font-size="18" font-weight="bold" lengthAdjust="spacing" textLength="224">message START_SCAN</text><rect width="106" height="299.969" x="218" fill="#C8C8CF" style="stroke:#a80036;stroke-width:1" y="40.953"/><text x="254" y="53.02" fill="#000" font-family="sans-serif" font-size="13" font-weight="bold" lengthAdjust="spacing" textLength="34">scan</text><rect width="223" height="299.969" x="326" fill="#F8F8FF" style="stroke:#a80036;stroke-width:1" y="40.953"/><text x="404.5" y="53.02" fill="#000" font-family="sans-serif" font-size="13" font-weight="bold" lengthAdjust="spacing" textLength="66">schedule</text><rect width="320" height="134.141" x="10" fill="#FFF" style="stroke:#000;stroke-width:2" y="166.648"/><rect width="320" height="43.938" x="10" fill="#FFF" style="stroke:none;stroke-width:1" y="212.914"/><rect width="320" height="43.938" x="10" fill="#FFF" style="stroke:none;stroke-width:1" y="256.852"/><line style="stroke:#a80036;stroke-width:1;stroke-dasharray:5,5" x1="56" x2="56" y1="91.383" y2="346.922"/><line style="stroke:#a80036;stroke-width:1;stroke-dasharray:5,5" x1="271" x2="271" y1="91.383" y2="346.922"/><line style="stroke:#a80036;stroke-width:1;stroke-dasharray:5,5" x1="437" x2="437" y1="91.383" y2="346.922"/><text x="20" y="88.081" fill="#000" font-family="sans-serif" font-size="14" lengthAdjust="spacing" textLength="66">EventBus</text><ellipse cx="56" cy="59.086" fill="#FEFECE" rx="12" ry="12" style="stroke:#a80036;stroke-width:2"/><polygon fill="#A80036" points="52 47.086 58 42.086 56 47.086 58 52.086 52 47.086" style="stroke:#a80036;stroke-width:1"/><rect width="98" height="30.297" x="222" fill="#FEFECE" style="stroke:#a80036;stroke-width:1.5" y="60.086"/><text x="229" y="80.081" fill="#000" font-family="sans-serif" font-size="14" lengthAdjust="spacing" textLength="84">ScanService</text><rect width="215" height="30.297" x="330" fill="#FEFECE" style="stroke:#a80036;stroke-width:1.5" y="60.086"/><text x="337" y="80.081" fill="#000" font-family="sans-serif" font-size="14" lengthAdjust="spacing" textLength="201">SynchronSecHubJobExecutor</text><polygon fill="#A80036" points="67 118.516 57 122.516 67 126.516" style="stroke:#a80036;stroke-width:1"/><line style="stroke:#a80036;stroke-width:1" x1="61" x2="436.5" y1="122.516" y2="122.516"/><text x="73" y="117.45" fill="#000" font-family="sans-serif" font-size="13" font-weight="bold" lengthAdjust="spacing" textLength="9">1</text><text x="86" y="117.45" fill="#000" font-family="sans-serif" font-size="13" lengthAdjust="spacing" textLength="84">START_SCAN</text><polygon fill="#A80036" points="259 147.648 269 151.648 259 155.648" style="stroke:#a80036;stroke-width:1"/><line style="stroke:#a80036;stroke-width:1" x1="56" x2="265" y1="151.648" y2="151.648"/><text x="63" y="146.583" fill="#000" font-family="sans-serif" font-size="13" font-weight="bold" lengthAdjust="spacing" textLength="9">2</text><text x="76" y="146.583" fill="#000" font-family="sans-serif" font-size="13" lengthAdjust="spacing" textLength="84">START_SCAN</text><path fill="#EEE" d="M10,166.6484 L74,166.6484 L74,173.6484 L64,183.6484 L10,183.6484 L10,166.6484" style="stroke:#000;stroke-width:1"/><rect width="320" height="134.141" x="10" fill="none" style="stroke:#000;stroke-width:2" y="166.648"/><text x="25" y="179.715" fill="#000" font-family="sans-serif" font-size="13" font-weight="bold" lengthAdjust="spacing" textLength="19">alt</text><text x="89" y="178.859" fill="#000" font-family="sans-serif" font-size="11" font-weight="bold" lengthAdjust="spacing" textLength="61">[success]</text><polygon fill="#A80036" points="67 200.914 57 204.914 67 208.914" style="stroke:#a80036;stroke-width:1"/><line style="stroke:#a80036;stroke-width:1" x1="61" x2="270" y1="204.914" y2="204.914"/><text x="73" y="199.848" fill="#000" font-family="sans-serif" font-size="13" font-weight="bold" lengthAdjust="spacing" textLength="9">3</text><text x="86" y="199.848" fill="#000" font-family="sans-serif" font-size="13" lengthAdjust="spacing" textLength="82">SCAN_DONE</text><line style="stroke:#000;stroke-width:1;stroke-dasharray:2,2" x1="10" x2="330" y1="213.914" y2="213.914"/><text x="15" y="224.125" fill="#000" font-family="sans-serif" font-size="11" font-weight="bold" lengthAdjust="spacing" textLength="52">[failure]</text><polygon fill="#A80036" points="67 244.852 57 248.852 67 252.852" style="stroke:#a80036;stroke-width:1"/><line style="stroke:#a80036;stroke-width:1" x1="61" x2="270" y1="248.852" y2="248.852"/><text x="73" y="243.786" fill="#000" font-family="sans-serif" font-size="13" font-weight="bold" lengthAdjust="spacing" textLength="9">4</text><text x="86" y="243.786" fill="#000" font-family="sans-serif" font-size="13" lengthAdjust="spacing" textLength="88">SCAN_FAILED</text><line style="stroke:#000;stroke-width:1;stroke-dasharray:2,2" x1="10" x2="330" y1="257.852" y2="257.852"/><text x="15" y="268.062" fill="#000" font-family="sans-serif" font-size="11" font-weight="bold" lengthAdjust="spacing" textLength="52">[failure]</text><polygon fill="#A80036" points="67 288.789 57 292.789 67 296.789" style="stroke:#a80036;stroke-width:1"/><line style="stroke:#a80036;stroke-width:1" x1="61" x2="270" y1="292.789" y2="292.789"/><text x="73" y="287.723" fill="#000" font-family="sans-serif" font-size="13" font-weight="bold" lengthAdjust="spacing" textLength="9">5</text><text x="86" y="287.723" fill="#000" font-family="sans-serif" font-size="13" lengthAdjust="spacing" textLength="178">UNSUPPORTED_OPERATION</text><polygon fill="#A80036" points="425.5 324.922 435.5 328.922 425.5 332.922" style="stroke:#a80036;stroke-width:1"/><line style="stroke:#a80036;stroke-width:1;stroke-dasharray:2,2" x1="56" x2="431.5" y1="328.922" y2="328.922"/><text x="63" y="323.856" fill="#000" font-family="sans-serif" font-size="13" font-weight="bold" lengthAdjust="spacing" textLength="9">6</text></g></svg>