<svg xmlns="http://www.w3.org/2000/svg" xmlns:xlink="http://www.w3.org/1999/xlink" width="598" height="176" contentScriptType="application/ecmascript" contentStyleType="text/css" preserveAspectRatio="none" style="width:598px;height:176px;background:#fff" version="1.1" viewBox="0 0 598 176" zoomAndPan="magnify"><g><text x="9" y="28.708" fill="#000" font-family="sans-serif" font-size="18" lengthAdjust="spacing" text-decoration="underline" textLength="201">Communication details</text><text x="222" y="28.708" fill="#000" font-family="sans-serif" font-size="18" lengthAdjust="spacing" textLength="17">of</text><text x="245" y="28.708" fill="#000" font-family="sans-serif" font-size="18" font-weight="bold" lengthAdjust="spacing" textLength="337">message SOURCE_UPLOAD_DONE</text><rect width="274" height="122.695" x="111.5" fill="#F8F8FF" style="stroke:#a80036;stroke-width:1" y="40.953"/><text x="215.5" y="53.02" fill="#000" font-family="sans-serif" font-size="13" font-weight="bold" lengthAdjust="spacing" textLength="66">schedule</text><rect width="192" height="122.695" x="387.5" fill="#C8C8CF" style="stroke:#a80036;stroke-width:1" y="40.953"/><text x="454" y="53.02" fill="#000" font-family="sans-serif" font-size="13" font-weight="bold" lengthAdjust="spacing" textLength="59">statistic</text><line style="stroke:#a80036;stroke-width:1;stroke-dasharray:5,5" x1="51.5" x2="51.5" y1="91.383" y2="169.648"/><line style="stroke:#a80036;stroke-width:1;stroke-dasharray:5,5" x1="248.5" x2="248.5" y1="91.383" y2="169.648"/><line style="stroke:#a80036;stroke-width:1;stroke-dasharray:5,5" x1="483.5" x2="483.5" y1="91.383" y2="169.648"/><text x="15.5" y="88.081" fill="#000" font-family="sans-serif" font-size="14" lengthAdjust="spacing" textLength="66">EventBus</text><ellipse cx="51.5" cy="59.086" fill="#FEFECE" rx="12" ry="12" style="stroke:#a80036;stroke-width:2"/><polygon fill="#A80036" points="47.5 47.086 53.5 42.086 51.5 47.086 53.5 52.086 47.5 47.086" style="stroke:#a80036;stroke-width:1"/><rect width="266" height="30.297" x="115.5" fill="#FEFECE" style="stroke:#a80036;stroke-width:1.5" y="60.086"/><text x="122.5" y="80.081" fill="#000" font-family="sans-serif" font-size="14" lengthAdjust="spacing" textLength="252">SchedulerSourcecodeUploadService</text><rect width="184" height="30.297" x="391.5" fill="#FEFECE" style="stroke:#a80036;stroke-width:1.5" y="60.086"/><text x="398.5" y="80.081" fill="#000" font-family="sans-serif" font-size="14" lengthAdjust="spacing" textLength="170">StatisticMessageHandler</text><line style="stroke:#a80036;stroke-width:1" x1="51.5" x2="61.5" y1="122.516" y2="118.516"/><line style="stroke:#a80036;stroke-width:1" x1="51.5" x2="61.5" y1="122.516" y2="126.516"/><line style="stroke:#a80036;stroke-width:1" x1="51.5" x2="247.5" y1="122.516" y2="122.516"/><text x="68.5" y="117.45" fill="#000" font-family="sans-serif" font-size="13" font-weight="bold" lengthAdjust="spacing" textLength="9">1</text><text x="81.5" y="117.45" fill="#000" font-family="sans-serif" font-size="13" lengthAdjust="spacing" textLength="160">SOURCE_UPLOAD_DONE</text><line style="stroke:#a80036;stroke-width:1" x1="481.5" x2="471.5" y1="151.648" y2="147.648"/><line style="stroke:#a80036;stroke-width:1" x1="481.5" x2="471.5" y1="151.648" y2="155.648"/><line style="stroke:#a80036;stroke-width:1" x1="51.5" x2="482.5" y1="151.648" y2="151.648"/><text x="58.5" y="146.583" fill="#000" font-family="sans-serif" font-size="13" font-weight="bold" lengthAdjust="spacing" textLength="9">2</text><text x="71.5" y="146.583" fill="#000" font-family="sans-serif" font-size="13" lengthAdjust="spacing" textLength="160">SOURCE_UPLOAD_DONE</text></g></svg>