<svg xmlns="http://www.w3.org/2000/svg" xmlns:xlink="http://www.w3.org/1999/xlink" width="802" height="205" contentScriptType="application/ecmascript" contentStyleType="text/css" preserveAspectRatio="none" style="width:802px;height:205px;background:#fff" version="1.1" viewBox="0 0 802 205" zoomAndPan="magnify"><g><text x="69.5" y="28.708" fill="#000" font-family="sans-serif" font-size="18" lengthAdjust="spacing" text-decoration="underline" textLength="201">Communication details</text><text x="282.5" y="28.708" fill="#000" font-family="sans-serif" font-size="18" lengthAdjust="spacing" textLength="17">of</text><text x="305.5" y="28.708" fill="#000" font-family="sans-serif" font-size="18" font-weight="bold" lengthAdjust="spacing" textLength="422">message USER_REMOVED_FROM_PROJECT</text><rect width="172" height="151.828" x="201" fill="#C8C8CF" style="stroke:#a80036;stroke-width:1" y="40.953"/><text x="270" y="53.02" fill="#000" font-family="sans-serif" font-size="13" font-weight="bold" lengthAdjust="spacing" textLength="34">scan</text><rect width="203" height="151.828" x="375" fill="#F8F8FF" style="stroke:#a80036;stroke-width:1" y="40.953"/><text x="443.5" y="53.02" fill="#000" font-family="sans-serif" font-size="13" font-weight="bold" lengthAdjust="spacing" textLength="66">schedule</text><rect width="216" height="151.828" x="580" fill="#F8F8FF" style="stroke:#a80036;stroke-width:1" y="40.953"/><text x="634.5" y="53.02" fill="#000" font-family="sans-serif" font-size="13" font-weight="bold" lengthAdjust="spacing" textLength="107">administration</text><line style="stroke:#a80036;stroke-width:1;stroke-dasharray:5,5" x1="41" x2="41" y1="91.383" y2="198.781"/><line style="stroke:#a80036;stroke-width:1;stroke-dasharray:5,5" x1="287" x2="287" y1="91.383" y2="198.781"/><line style="stroke:#a80036;stroke-width:1;stroke-dasharray:5,5" x1="476" x2="476" y1="91.383" y2="198.781"/><line style="stroke:#a80036;stroke-width:1;stroke-dasharray:5,5" x1="688" x2="688" y1="91.383" y2="198.781"/><text x="5" y="88.081" fill="#000" font-family="sans-serif" font-size="14" lengthAdjust="spacing" textLength="66">EventBus</text><ellipse cx="41" cy="59.086" fill="#FEFECE" rx="12" ry="12" style="stroke:#a80036;stroke-width:2"/><polygon fill="#A80036" points="37 47.086 43 42.086 41 47.086 43 52.086 37 47.086" style="stroke:#a80036;stroke-width:1"/><rect width="164" height="30.297" x="205" fill="#FEFECE" style="stroke:#a80036;stroke-width:1.5" y="60.086"/><text x="212" y="80.081" fill="#000" font-family="sans-serif" font-size="14" lengthAdjust="spacing" textLength="150">ScanMessageHandler</text><rect width="195" height="30.297" x="379" fill="#FEFECE" style="stroke:#a80036;stroke-width:1.5" y="60.086"/><text x="386" y="80.081" fill="#000" font-family="sans-serif" font-size="14" lengthAdjust="spacing" textLength="181">ScheduleMessageHandler</text><rect width="208" height="30.297" x="584" fill="#FEFECE" style="stroke:#a80036;stroke-width:1.5" y="60.086"/><text x="591" y="80.081" fill="#000" font-family="sans-serif" font-size="14" lengthAdjust="spacing" textLength="194">ProjectUnassignUserService</text><line style="stroke:#a80036;stroke-width:1" x1="41" x2="51" y1="122.516" y2="118.516"/><line style="stroke:#a80036;stroke-width:1" x1="41" x2="51" y1="122.516" y2="126.516"/><line style="stroke:#a80036;stroke-width:1" x1="41" x2="687" y1="122.516" y2="122.516"/><text x="58" y="117.45" fill="#000" font-family="sans-serif" font-size="13" font-weight="bold" lengthAdjust="spacing" textLength="9">1</text><text x="71" y="117.45" fill="#000" font-family="sans-serif" font-size="13" lengthAdjust="spacing" textLength="209">USER_REMOVED_FROM_PROJECT</text><line style="stroke:#a80036;stroke-width:1" x1="285" x2="275" y1="151.648" y2="147.648"/><line style="stroke:#a80036;stroke-width:1" x1="285" x2="275" y1="151.648" y2="155.648"/><line style="stroke:#a80036;stroke-width:1" x1="41" x2="286" y1="151.648" y2="151.648"/><text x="48" y="146.583" fill="#000" font-family="sans-serif" font-size="13" font-weight="bold" lengthAdjust="spacing" textLength="9">2</text><text x="61" y="146.583" fill="#000" font-family="sans-serif" font-size="13" lengthAdjust="spacing" textLength="209">USER_REMOVED_FROM_PROJECT</text><line style="stroke:#a80036;stroke-width:1" x1="474.5" x2="464.5" y1="180.781" y2="176.781"/><line style="stroke:#a80036;stroke-width:1" x1="474.5" x2="464.5" y1="180.781" y2="184.781"/><line style="stroke:#a80036;stroke-width:1" x1="41" x2="475.5" y1="180.781" y2="180.781"/><text x="48" y="175.715" fill="#000" font-family="sans-serif" font-size="13" font-weight="bold" lengthAdjust="spacing" textLength="9">3</text><text x="61" y="175.715" fill="#000" font-family="sans-serif" font-size="13" lengthAdjust="spacing" textLength="209">USER_REMOVED_FROM_PROJECT</text></g></svg>