<svg xmlns="http://www.w3.org/2000/svg" xmlns:xlink="http://www.w3.org/1999/xlink" width="1140" height="234" contentScriptType="application/ecmascript" contentStyleType="text/css" preserveAspectRatio="none" style="width:1140px;height:234px;background:#fff" version="1.1" viewBox="0 0 1140 234" zoomAndPan="magnify"><g><text x="178" y="28.708" fill="#000" font-family="sans-serif" font-size="18" lengthAdjust="spacing" text-decoration="underline" textLength="201">Communication details</text><text x="391" y="28.708" fill="#000" font-family="sans-serif" font-size="18" lengthAdjust="spacing" textLength="17">of</text><text x="414" y="28.708" fill="#000" font-family="sans-serif" font-size="18" font-weight="bold" lengthAdjust="spacing" textLength="543">message AUTO_CLEANUP_CONFIGURATION_CHANGED</text><rect width="172" height="180.961" x="282" fill="#C8C8CF" style="stroke:#a80036;stroke-width:1" y="40.953"/><text x="351" y="53.02" fill="#000" font-family="sans-serif" font-size="13" font-weight="bold" lengthAdjust="spacing" textLength="34">scan</text><rect width="203" height="180.961" x="456" fill="#F8F8FF" style="stroke:#a80036;stroke-width:1" y="40.953"/><text x="524.5" y="53.02" fill="#000" font-family="sans-serif" font-size="13" font-weight="bold" lengthAdjust="spacing" textLength="66">schedule</text><rect width="473" height="180.961" x="661" fill="#F8F8FF" style="stroke:#a80036;stroke-width:1" y="40.953"/><text x="844" y="53.02" fill="#000" font-family="sans-serif" font-size="13" font-weight="bold" lengthAdjust="spacing" textLength="107">administration</text><line style="stroke:#a80036;stroke-width:1;stroke-dasharray:5,5" x1="41" x2="41" y1="91.383" y2="227.914"/><line style="stroke:#a80036;stroke-width:1;stroke-dasharray:5,5" x1="368" x2="368" y1="91.383" y2="227.914"/><line style="stroke:#a80036;stroke-width:1;stroke-dasharray:5,5" x1="557" x2="557" y1="91.383" y2="227.914"/><line style="stroke:#a80036;stroke-width:1;stroke-dasharray:5,5" x1="768" x2="768" y1="91.383" y2="227.914"/><line style="stroke:#a80036;stroke-width:1;stroke-dasharray:5,5" x1="1005" x2="1005" y1="91.383" y2="227.914"/><text x="5" y="88.081" fill="#000" font-family="sans-serif" font-size="14" lengthAdjust="spacing" textLength="66">EventBus</text><ellipse cx="41" cy="59.086" fill="#FEFECE" rx="12" ry="12" style="stroke:#a80036;stroke-width:2"/><polygon fill="#A80036" points="37 47.086 43 42.086 41 47.086 43 52.086 37 47.086" style="stroke:#a80036;stroke-width:1"/><rect width="164" height="30.297" x="286" fill="#FEFECE" style="stroke:#a80036;stroke-width:1.5" y="60.086"/><text x="293" y="80.081" fill="#000" font-family="sans-serif" font-size="14" lengthAdjust="spacing" textLength="150">ScanMessageHandler</text><rect width="195" height="30.297" x="460" fill="#FEFECE" style="stroke:#a80036;stroke-width:1.5" y="60.086"/><text x="467" y="80.081" fill="#000" font-family="sans-serif" font-size="14" lengthAdjust="spacing" textLength="181">ScheduleMessageHandler</text><rect width="206" height="30.297" x="665" fill="#FEFECE" style="stroke:#a80036;stroke-width:1.5" y="60.086"/><text x="672" y="80.081" fill="#000" font-family="sans-serif" font-size="14" lengthAdjust="spacing" textLength="192">AdministrationConfigService</text><rect width="249" height="30.297" x="881" fill="#FEFECE" style="stroke:#a80036;stroke-width:1.5" y="60.086"/><text x="888" y="80.081" fill="#000" font-family="sans-serif" font-size="14" lengthAdjust="spacing" textLength="235">JobAdministrationMessageHandler</text><line style="stroke:#a80036;stroke-width:1" x1="41" x2="51" y1="122.516" y2="118.516"/><line style="stroke:#a80036;stroke-width:1" x1="41" x2="51" y1="122.516" y2="126.516"/><line style="stroke:#a80036;stroke-width:1" x1="41" x2="767" y1="122.516" y2="122.516"/><text x="58" y="117.45" fill="#000" font-family="sans-serif" font-size="13" font-weight="bold" lengthAdjust="spacing" textLength="9">1</text><text x="71" y="117.45" fill="#000" font-family="sans-serif" font-size="13" lengthAdjust="spacing" textLength="290">AUTO_CLEANUP_CONFIGURATION_CHANGED</text><line style="stroke:#a80036;stroke-width:1" x1="366" x2="356" y1="151.648" y2="147.648"/><line style="stroke:#a80036;stroke-width:1" x1="366" x2="356" y1="151.648" y2="155.648"/><line style="stroke:#a80036;stroke-width:1" x1="41" x2="367" y1="151.648" y2="151.648"/><text x="48" y="146.583" fill="#000" font-family="sans-serif" font-size="13" font-weight="bold" lengthAdjust="spacing" textLength="9">2</text><text x="61" y="146.583" fill="#000" font-family="sans-serif" font-size="13" lengthAdjust="spacing" textLength="290">AUTO_CLEANUP_CONFIGURATION_CHANGED</text><line style="stroke:#a80036;stroke-width:1" x1="555.5" x2="545.5" y1="180.781" y2="176.781"/><line style="stroke:#a80036;stroke-width:1" x1="555.5" x2="545.5" y1="180.781" y2="184.781"/><line style="stroke:#a80036;stroke-width:1" x1="41" x2="556.5" y1="180.781" y2="180.781"/><text x="48" y="175.715" fill="#000" font-family="sans-serif" font-size="13" font-weight="bold" lengthAdjust="spacing" textLength="9">3</text><text x="61" y="175.715" fill="#000" font-family="sans-serif" font-size="13" lengthAdjust="spacing" textLength="290">AUTO_CLEANUP_CONFIGURATION_CHANGED</text><line style="stroke:#a80036;stroke-width:1" x1="1003.5" x2="993.5" y1="209.914" y2="205.914"/><line style="stroke:#a80036;stroke-width:1" x1="1003.5" x2="993.5" y1="209.914" y2="213.914"/><line style="stroke:#a80036;stroke-width:1" x1="41" x2="1004.5" y1="209.914" y2="209.914"/><text x="48" y="204.848" fill="#000" font-family="sans-serif" font-size="13" font-weight="bold" lengthAdjust="spacing" textLength="9">4</text><text x="61" y="204.848" fill="#000" font-family="sans-serif" font-size="13" lengthAdjust="spacing" textLength="290">AUTO_CLEANUP_CONFIGURATION_CHANGED</text></g></svg>