<svg xmlns="http://www.w3.org/2000/svg" xmlns:xlink="http://www.w3.org/1999/xlink" width="1015" height="264" contentScriptType="application/ecmascript" contentStyleType="text/css" preserveAspectRatio="none" style="width:1015px;height:264px;background:#fff" version="1.1" viewBox="0 0 1015 264" zoomAndPan="magnify"><g><text x="263" y="28.708" fill="#000" font-family="sans-serif" font-size="18" lengthAdjust="spacing" text-decoration="underline" textLength="201">Communication details</text><text x="476" y="28.708" fill="#000" font-family="sans-serif" font-size="18" lengthAdjust="spacing" textLength="17">of</text><text x="499" y="28.708" fill="#000" font-family="sans-serif" font-size="18" font-weight="bold" lengthAdjust="spacing" textLength="248">message USER_DELETED</text><rect width="172" height="210.094" x="92" fill="#C8C8CF" style="stroke:#a80036;stroke-width:1" y="40.953"/><text x="161" y="53.02" fill="#000" font-family="sans-serif" font-size="13" font-weight="bold" lengthAdjust="spacing" textLength="34">scan</text><rect width="203" height="210.094" x="266" fill="#F8F8FF" style="stroke:#a80036;stroke-width:1" y="40.953"/><text x="334.5" y="53.02" fill="#000" font-family="sans-serif" font-size="13" font-weight="bold" lengthAdjust="spacing" textLength="66">schedule</text><rect width="170" height="210.094" x="471" fill="#C8C8CF" style="stroke:#a80036;stroke-width:1" y="40.953"/><text x="507.5" y="53.02" fill="#000" font-family="sans-serif" font-size="13" font-weight="bold" lengthAdjust="spacing" textLength="97">authorization</text><rect width="150" height="210.094" x="643" fill="#F8F8FF" style="stroke:#a80036;stroke-width:1" y="40.953"/><text x="664.5" y="53.02" fill="#000" font-family="sans-serif" font-size="13" font-weight="bold" lengthAdjust="spacing" textLength="107">administration</text><rect width="214" height="210.094" x="795" fill="#F8F8FF" style="stroke:#a80036;stroke-width:1" y="40.953"/><text x="860.5" y="53.02" fill="#000" font-family="sans-serif" font-size="13" font-weight="bold" lengthAdjust="spacing" textLength="83">notification</text><line style="stroke:#a80036;stroke-width:1;stroke-dasharray:5,5" x1="41" x2="41" y1="91.383" y2="257.047"/><line style="stroke:#a80036;stroke-width:1;stroke-dasharray:5,5" x1="178" x2="178" y1="91.383" y2="257.047"/><line style="stroke:#a80036;stroke-width:1;stroke-dasharray:5,5" x1="367" x2="367" y1="91.383" y2="257.047"/><line style="stroke:#a80036;stroke-width:1;stroke-dasharray:5,5" x1="556" x2="556" y1="91.383" y2="257.047"/><line style="stroke:#a80036;stroke-width:1;stroke-dasharray:5,5" x1="718" x2="718" y1="91.383" y2="257.047"/><line style="stroke:#a80036;stroke-width:1;stroke-dasharray:5,5" x1="902" x2="902" y1="91.383" y2="257.047"/><text x="5" y="88.081" fill="#000" font-family="sans-serif" font-size="14" lengthAdjust="spacing" textLength="66">EventBus</text><ellipse cx="41" cy="59.086" fill="#FEFECE" rx="12" ry="12" style="stroke:#a80036;stroke-width:2"/><polygon fill="#A80036" points="37 47.086 43 42.086 41 47.086 43 52.086 37 47.086" style="stroke:#a80036;stroke-width:1"/><rect width="164" height="30.297" x="96" fill="#FEFECE" style="stroke:#a80036;stroke-width:1.5" y="60.086"/><text x="103" y="80.081" fill="#000" font-family="sans-serif" font-size="14" lengthAdjust="spacing" textLength="150">ScanMessageHandler</text><rect width="195" height="30.297" x="270" fill="#FEFECE" style="stroke:#a80036;stroke-width:1.5" y="60.086"/><text x="277" y="80.081" fill="#000" font-family="sans-serif" font-size="14" lengthAdjust="spacing" textLength="181">ScheduleMessageHandler</text><rect width="162" height="30.297" x="475" fill="#FEFECE" style="stroke:#a80036;stroke-width:1.5" y="60.086"/><text x="482" y="80.081" fill="#000" font-family="sans-serif" font-size="14" lengthAdjust="spacing" textLength="148">AuthMessageHandler</text><rect width="142" height="30.297" x="647" fill="#FEFECE" style="stroke:#a80036;stroke-width:1.5" y="60.086"/><text x="654" y="80.081" fill="#000" font-family="sans-serif" font-size="14" lengthAdjust="spacing" textLength="128">UserDeleteService</text><rect width="206" height="30.297" x="799" fill="#FEFECE" style="stroke:#a80036;stroke-width:1.5" y="60.086"/><text x="806" y="80.081" fill="#000" font-family="sans-serif" font-size="14" lengthAdjust="spacing" textLength="192">NotificationMessageHandler</text><line style="stroke:#a80036;stroke-width:1" x1="41" x2="51" y1="122.516" y2="118.516"/><line style="stroke:#a80036;stroke-width:1" x1="41" x2="51" y1="122.516" y2="126.516"/><line style="stroke:#a80036;stroke-width:1" x1="41" x2="717" y1="122.516" y2="122.516"/><text x="58" y="117.45" fill="#000" font-family="sans-serif" font-size="13" font-weight="bold" lengthAdjust="spacing" textLength="9">1</text><text x="71" y="117.45" fill="#000" font-family="sans-serif" font-size="13" lengthAdjust="spacing" textLength="100">USER_DELETED</text><line style="stroke:#a80036;stroke-width:1" x1="176" x2="166" y1="151.648" y2="147.648"/><line style="stroke:#a80036;stroke-width:1" x1="176" x2="166" y1="151.648" y2="155.648"/><line style="stroke:#a80036;stroke-width:1" x1="41" x2="177" y1="151.648" y2="151.648"/><text x="48" y="146.583" fill="#000" font-family="sans-serif" font-size="13" font-weight="bold" lengthAdjust="spacing" textLength="9">2</text><text x="61" y="146.583" fill="#000" font-family="sans-serif" font-size="13" lengthAdjust="spacing" textLength="100">USER_DELETED</text><line style="stroke:#a80036;stroke-width:1" x1="365.5" x2="355.5" y1="180.781" y2="176.781"/><line style="stroke:#a80036;stroke-width:1" x1="365.5" x2="355.5" y1="180.781" y2="184.781"/><line style="stroke:#a80036;stroke-width:1" x1="41" x2="366.5" y1="180.781" y2="180.781"/><text x="48" y="175.715" fill="#000" font-family="sans-serif" font-size="13" font-weight="bold" lengthAdjust="spacing" textLength="9">3</text><text x="61" y="175.715" fill="#000" font-family="sans-serif" font-size="13" lengthAdjust="spacing" textLength="100">USER_DELETED</text><line style="stroke:#a80036;stroke-width:1" x1="554" x2="544" y1="209.914" y2="205.914"/><line style="stroke:#a80036;stroke-width:1" x1="554" x2="544" y1="209.914" y2="213.914"/><line style="stroke:#a80036;stroke-width:1" x1="41" x2="555" y1="209.914" y2="209.914"/><text x="48" y="204.848" fill="#000" font-family="sans-serif" font-size="13" font-weight="bold" lengthAdjust="spacing" textLength="9">4</text><text x="61" y="204.848" fill="#000" font-family="sans-serif" font-size="13" lengthAdjust="spacing" textLength="100">USER_DELETED</text><line style="stroke:#a80036;stroke-width:1" x1="900" x2="890" y1="239.047" y2="235.047"/><line style="stroke:#a80036;stroke-width:1" x1="900" x2="890" y1="239.047" y2="243.047"/><line style="stroke:#a80036;stroke-width:1" x1="41" x2="901" y1="239.047" y2="239.047"/><text x="48" y="233.981" fill="#000" font-family="sans-serif" font-size="13" font-weight="bold" lengthAdjust="spacing" textLength="9">5</text><text x="61" y="233.981" fill="#000" font-family="sans-serif" font-size="13" lengthAdjust="spacing" textLength="100">USER_DELETED</text></g></svg>