<svg xmlns="http://www.w3.org/2000/svg" xmlns:xlink="http://www.w3.org/1999/xlink" width="964" height="205" contentScriptType="application/ecmascript" contentStyleType="text/css" preserveAspectRatio="none" style="width:964px;height:205px;background:#fff" version="1.1" viewBox="0 0 964 205" zoomAndPan="magnify"><g><text x="133.5" y="28.708" fill="#000" font-family="sans-serif" font-size="18" lengthAdjust="spacing" text-decoration="underline" textLength="201">Communication details</text><text x="346.5" y="28.708" fill="#000" font-family="sans-serif" font-size="18" lengthAdjust="spacing" textLength="17">of</text><text x="369.5" y="28.708" fill="#000" font-family="sans-serif" font-size="18" font-weight="bold" lengthAdjust="spacing" textLength="456">message USER_NEW_API_TOKEN_REQUESTED</text><rect width="512" height="151.828" x="230" fill="#F8F8FF" style="stroke:#a80036;stroke-width:1" y="40.953"/><text x="432.5" y="53.02" fill="#000" font-family="sans-serif" font-size="13" font-weight="bold" lengthAdjust="spacing" textLength="107">administration</text><rect width="214" height="151.828" x="744" fill="#F8F8FF" style="stroke:#a80036;stroke-width:1" y="40.953"/><text x="809.5" y="53.02" fill="#000" font-family="sans-serif" font-size="13" font-weight="bold" lengthAdjust="spacing" textLength="83">notification</text><line style="stroke:#a80036;stroke-width:1;stroke-dasharray:5,5" x1="41" x2="41" y1="91.383" y2="198.781"/><line style="stroke:#a80036;stroke-width:1;stroke-dasharray:5,5" x1="311" x2="311" y1="91.383" y2="198.781"/><line style="stroke:#a80036;stroke-width:1;stroke-dasharray:5,5" x1="568" x2="568" y1="91.383" y2="198.781"/><line style="stroke:#a80036;stroke-width:1;stroke-dasharray:5,5" x1="851" x2="851" y1="91.383" y2="198.781"/><text x="5" y="88.081" fill="#000" font-family="sans-serif" font-size="14" lengthAdjust="spacing" textLength="66">EventBus</text><ellipse cx="41" cy="59.086" fill="#FEFECE" rx="12" ry="12" style="stroke:#a80036;stroke-width:2"/><polygon fill="#A80036" points="37 47.086 43 42.086 41 47.086 43 52.086 37 47.086" style="stroke:#a80036;stroke-width:1"/><rect width="154" height="30.297" x="234" fill="#FEFECE" style="stroke:#a80036;stroke-width:1.5" y="60.086"/><text x="241" y="80.081" fill="#000" font-family="sans-serif" font-size="14" lengthAdjust="spacing" textLength="140">UserCreationService</text><rect width="340" height="30.297" x="398" fill="#FEFECE" style="stroke:#a80036;stroke-width:1.5" y="60.086"/><text x="405" y="80.081" fill="#000" font-family="sans-serif" font-size="14" lengthAdjust="spacing" textLength="326">AnonymousUserRequestsNewApiTokenService</text><rect width="206" height="30.297" x="748" fill="#FEFECE" style="stroke:#a80036;stroke-width:1.5" y="60.086"/><text x="755" y="80.081" fill="#000" font-family="sans-serif" font-size="14" lengthAdjust="spacing" textLength="192">NotificationMessageHandler</text><line style="stroke:#a80036;stroke-width:1" x1="41" x2="51" y1="122.516" y2="118.516"/><line style="stroke:#a80036;stroke-width:1" x1="41" x2="51" y1="122.516" y2="126.516"/><line style="stroke:#a80036;stroke-width:1" x1="41" x2="310" y1="122.516" y2="122.516"/><text x="58" y="117.45" fill="#000" font-family="sans-serif" font-size="13" font-weight="bold" lengthAdjust="spacing" textLength="9">1</text><text x="71" y="117.45" fill="#000" font-family="sans-serif" font-size="13" lengthAdjust="spacing" textLength="233">USER_NEW_API_TOKEN_REQUESTED</text><line style="stroke:#a80036;stroke-width:1" x1="41" x2="51" y1="151.648" y2="147.648"/><line style="stroke:#a80036;stroke-width:1" x1="41" x2="51" y1="151.648" y2="155.648"/><line style="stroke:#a80036;stroke-width:1" x1="41" x2="567" y1="151.648" y2="151.648"/><text x="58" y="146.583" fill="#000" font-family="sans-serif" font-size="13" font-weight="bold" lengthAdjust="spacing" textLength="9">2</text><text x="71" y="146.583" fill="#000" font-family="sans-serif" font-size="13" lengthAdjust="spacing" textLength="233">USER_NEW_API_TOKEN_REQUESTED</text><line style="stroke:#a80036;stroke-width:1" x1="849" x2="839" y1="180.781" y2="176.781"/><line style="stroke:#a80036;stroke-width:1" x1="849" x2="839" y1="180.781" y2="184.781"/><line style="stroke:#a80036;stroke-width:1" x1="41" x2="850" y1="180.781" y2="180.781"/><text x="48" y="175.715" fill="#000" font-family="sans-serif" font-size="13" font-weight="bold" lengthAdjust="spacing" textLength="9">3</text><text x="61" y="175.715" fill="#000" font-family="sans-serif" font-size="13" lengthAdjust="spacing" textLength="233">USER_NEW_API_TOKEN_REQUESTED</text></g></svg>