<svg xmlns="http://www.w3.org/2000/svg" xmlns:xlink="http://www.w3.org/1999/xlink" width="674" height="309" contentScriptType="application/ecmascript" contentStyleType="text/css" preserveAspectRatio="none" style="width:674px;height:309px;background:#fff" version="1.1" viewBox="0 0 674 309" zoomAndPan="magnify"><g><text x="9" y="28.708" fill="#000" font-family="sans-serif" font-size="18" lengthAdjust="spacing" text-decoration="underline" textLength="201">Communication details</text><text x="222" y="28.708" fill="#000" font-family="sans-serif" font-size="18" lengthAdjust="spacing" textLength="17">of</text><text x="245" y="28.708" fill="#000" font-family="sans-serif" font-size="18" font-weight="bold" lengthAdjust="spacing" textLength="413">message REQUEST_PURGE_JOB_RESULTS</text><rect width="172" height="256.031" x="245.5" fill="#C8C8CF" style="stroke:#a80036;stroke-width:1" y="40.953"/><text x="314.5" y="53.02" fill="#000" font-family="sans-serif" font-size="13" font-weight="bold" lengthAdjust="spacing" textLength="34">scan</text><rect width="213" height="256.031" x="419.5" fill="#F8F8FF" style="stroke:#a80036;stroke-width:1" y="40.953"/><text x="493" y="53.02" fill="#000" font-family="sans-serif" font-size="13" font-weight="bold" lengthAdjust="spacing" textLength="66">schedule</text><rect width="380" height="90.203" x="43.5" fill="#FFF" style="stroke:#000;stroke-width:2" y="166.648"/><rect width="380" height="43.938" x="43.5" fill="#FFF" style="stroke:none;stroke-width:1" y="212.914"/><line style="stroke:#a80036;stroke-width:1;stroke-dasharray:5,5" x1="89.5" x2="89.5" y1="91.383" y2="302.984"/><line style="stroke:#a80036;stroke-width:1;stroke-dasharray:5,5" x1="331.5" x2="331.5" y1="91.383" y2="302.984"/><line style="stroke:#a80036;stroke-width:1;stroke-dasharray:5,5" x1="525.5" x2="525.5" y1="91.383" y2="302.984"/><text x="53.5" y="88.081" fill="#000" font-family="sans-serif" font-size="14" lengthAdjust="spacing" textLength="66">EventBus</text><ellipse cx="89.5" cy="59.086" fill="#FEFECE" rx="12" ry="12" style="stroke:#a80036;stroke-width:2"/><polygon fill="#A80036" points="85.5 47.086 91.5 42.086 89.5 47.086 91.5 52.086 85.5 47.086" style="stroke:#a80036;stroke-width:1"/><rect width="164" height="30.297" x="249.5" fill="#FEFECE" style="stroke:#a80036;stroke-width:1.5" y="60.086"/><text x="256.5" y="80.081" fill="#000" font-family="sans-serif" font-size="14" lengthAdjust="spacing" textLength="150">ScanMessageHandler</text><rect width="205" height="30.297" x="423.5" fill="#FEFECE" style="stroke:#a80036;stroke-width:1.5" y="60.086"/><text x="430.5" y="80.081" fill="#000" font-family="sans-serif" font-size="14" lengthAdjust="spacing" textLength="191">SchedulerRestartJobService</text><polygon fill="#A80036" points="100.5 118.516 90.5 122.516 100.5 126.516" style="stroke:#a80036;stroke-width:1"/><line style="stroke:#a80036;stroke-width:1" x1="94.5" x2="525" y1="122.516" y2="122.516"/><text x="106.5" y="117.45" fill="#000" font-family="sans-serif" font-size="13" font-weight="bold" lengthAdjust="spacing" textLength="9">1</text><text x="119.5" y="117.45" fill="#000" font-family="sans-serif" font-size="13" lengthAdjust="spacing" textLength="205">REQUEST_PURGE_JOB_RESULTS</text><polygon fill="#A80036" points="319.5 147.648 329.5 151.648 319.5 155.648" style="stroke:#a80036;stroke-width:1"/><line style="stroke:#a80036;stroke-width:1" x1="89.5" x2="325.5" y1="151.648" y2="151.648"/><text x="96.5" y="146.583" fill="#000" font-family="sans-serif" font-size="13" font-weight="bold" lengthAdjust="spacing" textLength="9">2</text><text x="109.5" y="146.583" fill="#000" font-family="sans-serif" font-size="13" lengthAdjust="spacing" textLength="205">REQUEST_PURGE_JOB_RESULTS</text><path fill="#EEE" d="M43.5,166.6484 L107.5,166.6484 L107.5,173.6484 L97.5,183.6484 L43.5,183.6484 L43.5,166.6484" style="stroke:#000;stroke-width:1"/><rect width="380" height="90.203" x="43.5" fill="none" style="stroke:#000;stroke-width:2" y="166.648"/><text x="58.5" y="179.715" fill="#000" font-family="sans-serif" font-size="13" font-weight="bold" lengthAdjust="spacing" textLength="19">alt</text><text x="122.5" y="178.859" fill="#000" font-family="sans-serif" font-size="11" font-weight="bold" lengthAdjust="spacing" textLength="61">[success]</text><polygon fill="#A80036" points="100.5 200.914 90.5 204.914 100.5 208.914" style="stroke:#a80036;stroke-width:1"/><line style="stroke:#a80036;stroke-width:1" x1="94.5" x2="330.5" y1="204.914" y2="204.914"/><text x="106.5" y="199.848" fill="#000" font-family="sans-serif" font-size="13" font-weight="bold" lengthAdjust="spacing" textLength="9">3</text><text x="119.5" y="199.848" fill="#000" font-family="sans-serif" font-size="13" lengthAdjust="spacing" textLength="174">JOB_RESULT_PURGE_DONE</text><line style="stroke:#000;stroke-width:1;stroke-dasharray:2,2" x1="43.5" x2="423.5" y1="213.914" y2="213.914"/><text x="48.5" y="224.125" fill="#000" font-family="sans-serif" font-size="11" font-weight="bold" lengthAdjust="spacing" textLength="47">[failed]</text><polygon fill="#A80036" points="100.5 244.852 90.5 248.852 100.5 252.852" style="stroke:#a80036;stroke-width:1"/><line style="stroke:#a80036;stroke-width:1" x1="94.5" x2="330.5" y1="248.852" y2="248.852"/><text x="106.5" y="243.786" fill="#000" font-family="sans-serif" font-size="13" font-weight="bold" lengthAdjust="spacing" textLength="9">4</text><text x="119.5" y="243.786" fill="#000" font-family="sans-serif" font-size="13" lengthAdjust="spacing" textLength="180">JOB_RESULT_PURGE_FAILED</text><polygon fill="#A80036" points="514 280.984 524 284.984 514 288.984" style="stroke:#a80036;stroke-width:1"/><line style="stroke:#a80036;stroke-width:1;stroke-dasharray:2,2" x1="89.5" x2="520" y1="284.984" y2="284.984"/><text x="96.5" y="279.918" fill="#000" font-family="sans-serif" font-size="13" font-weight="bold" lengthAdjust="spacing" textLength="9">5</text></g></svg>