<svg xmlns="http://www.w3.org/2000/svg" xmlns:xlink="http://www.w3.org/1999/xlink" width="715" height="234" contentScriptType="application/ecmascript" contentStyleType="text/css" preserveAspectRatio="none" style="width:715px;height:234px;background:#fff" version="1.1" viewBox="0 0 715 234" zoomAndPan="magnify"><g><text x="9" y="28.708" fill="#000" font-family="sans-serif" font-size="18" lengthAdjust="spacing" text-decoration="underline" textLength="201">Communication details</text><text x="222" y="28.708" fill="#000" font-family="sans-serif" font-size="18" lengthAdjust="spacing" textLength="17">of</text><text x="245" y="28.708" fill="#000" font-family="sans-serif" font-size="18" font-weight="bold" lengthAdjust="spacing" textLength="454">message REQUEST_SCHEDULER_JOB_STATUS</text><rect width="170" height="180.961" x="246" fill="#C8C8CF" style="stroke:#a80036;stroke-width:1" y="40.953"/><text x="314" y="53.02" fill="#000" font-family="sans-serif" font-size="13" font-weight="bold" lengthAdjust="spacing" textLength="34">scan</text><rect width="269" height="180.961" x="418" fill="#F8F8FF" style="stroke:#a80036;stroke-width:1" y="40.953"/><text x="519.5" y="53.02" fill="#000" font-family="sans-serif" font-size="13" font-weight="bold" lengthAdjust="spacing" textLength="66">schedule</text><line style="stroke:#a80036;stroke-width:1;stroke-dasharray:5,5" x1="61" x2="61" y1="91.383" y2="227.914"/><line style="stroke:#a80036;stroke-width:1;stroke-dasharray:5,5" x1="331" x2="331" y1="91.383" y2="227.914"/><line style="stroke:#a80036;stroke-width:1;stroke-dasharray:5,5" x1="552" x2="552" y1="91.383" y2="227.914"/><text x="25" y="88.081" fill="#000" font-family="sans-serif" font-size="14" lengthAdjust="spacing" textLength="66">EventBus</text><ellipse cx="61" cy="59.086" fill="#FEFECE" rx="12" ry="12" style="stroke:#a80036;stroke-width:2"/><polygon fill="#A80036" points="57 47.086 63 42.086 61 47.086 63 52.086 57 47.086" style="stroke:#a80036;stroke-width:1"/><rect width="162" height="30.297" x="250" fill="#FEFECE" style="stroke:#a80036;stroke-width:1.5" y="60.086"/><text x="257" y="80.081" fill="#000" font-family="sans-serif" font-size="14" lengthAdjust="spacing" textLength="148">ScanProgressMonitor</text><rect width="261" height="30.297" x="422" fill="#FEFECE" style="stroke:#a80036;stroke-width:1.5" y="60.086"/><text x="429" y="80.081" fill="#000" font-family="sans-serif" font-size="14" lengthAdjust="spacing" textLength="247">SchedulerJobStatusRequestHandler</text><polygon fill="#A80036" points="72 118.516 62 122.516 72 126.516" style="stroke:#a80036;stroke-width:1"/><line style="stroke:#a80036;stroke-width:1" x1="66" x2="330" y1="122.516" y2="122.516"/><text x="78" y="117.45" fill="#000" font-family="sans-serif" font-size="13" font-weight="bold" lengthAdjust="spacing" textLength="9">1</text><text x="91" y="117.45" fill="#000" font-family="sans-serif" font-size="13" lengthAdjust="spacing" textLength="233">REQUEST_SCHEDULER_JOB_STATUS</text><polygon fill="#A80036" points="540.5 147.648 550.5 151.648 540.5 155.648" style="stroke:#a80036;stroke-width:1"/><line style="stroke:#a80036;stroke-width:1" x1="61" x2="546.5" y1="151.648" y2="151.648"/><text x="68" y="146.583" fill="#000" font-family="sans-serif" font-size="13" font-weight="bold" lengthAdjust="spacing" textLength="9">2</text><text x="81" y="146.583" fill="#000" font-family="sans-serif" font-size="13" lengthAdjust="spacing" textLength="233">REQUEST_SCHEDULER_JOB_STATUS</text><polygon fill="#A80036" points="72 176.781 62 180.781 72 184.781" style="stroke:#a80036;stroke-width:1"/><line style="stroke:#a80036;stroke-width:1" x1="66" x2="551.5" y1="180.781" y2="180.781"/><text x="78" y="175.715" fill="#000" font-family="sans-serif" font-size="13" font-weight="bold" lengthAdjust="spacing" textLength="9">3</text><text x="91" y="175.715" fill="#000" font-family="sans-serif" font-size="13" lengthAdjust="spacing" textLength="166">SCHEDULER_JOB_STATUS</text><polygon fill="#A80036" points="319 205.914 329 209.914 319 213.914" style="stroke:#a80036;stroke-width:1"/><line style="stroke:#a80036;stroke-width:1;stroke-dasharray:2,2" x1="61" x2="325" y1="209.914" y2="209.914"/><text x="68" y="204.848" fill="#000" font-family="sans-serif" font-size="13" font-weight="bold" lengthAdjust="spacing" textLength="9">4</text></g></svg>