<svg xmlns="http://www.w3.org/2000/svg" xmlns:xlink="http://www.w3.org/1999/xlink" width="2282" height="380" contentScriptType="application/ecmascript" contentStyleType="text/css" preserveAspectRatio="none" style="width:2282px;height:380px;background:#fff" version="1.1" viewBox="0 0 2282 380" zoomAndPan="magnify"><g><text x="775.5" y="28.708" fill="#000" font-family="sans-serif" font-size="18" lengthAdjust="spacing" text-decoration="underline" textLength="201">Communication details</text><text x="988.5" y="28.708" fill="#000" font-family="sans-serif" font-size="18" lengthAdjust="spacing" textLength="17">of</text><text x="1011.5" y="28.708" fill="#000" font-family="sans-serif" font-size="18" font-weight="bold" lengthAdjust="spacing" textLength="490">message REQUEST_USER_ROLE_RECALCULATION</text><rect width="194" height="326.625" x="236" fill="#C8C8CF" style="stroke:#a80036;stroke-width:1" y="40.953"/><text x="284.5" y="53.02" fill="#000" font-family="sans-serif" font-size="13" font-weight="bold" lengthAdjust="spacing" textLength="97">authorization</text><rect width="1844" height="326.625" x="432" fill="#F8F8FF" style="stroke:#a80036;stroke-width:1" y="40.953"/><text x="1300.5" y="53.02" fill="#000" font-family="sans-serif" font-size="13" font-weight="bold" lengthAdjust="spacing" textLength="107">administration</text><line style="stroke:#a80036;stroke-width:1;stroke-dasharray:5,5" x1="41" x2="41" y1="91.383" y2="373.578"/><line style="stroke:#a80036;stroke-width:1;stroke-dasharray:5,5" x1="333" x2="333" y1="91.383" y2="373.578"/><line style="stroke:#a80036;stroke-width:1;stroke-dasharray:5,5" x1="540" x2="540" y1="91.383" y2="373.578"/><line style="stroke:#a80036;stroke-width:1;stroke-dasharray:5,5" x1="749" x2="749" y1="91.383" y2="373.578"/><line style="stroke:#a80036;stroke-width:1;stroke-dasharray:5,5" x1="939" x2="939" y1="91.383" y2="373.578"/><line style="stroke:#a80036;stroke-width:1;stroke-dasharray:5,5" x1="1113" x2="1113" y1="91.383" y2="373.578"/><line style="stroke:#a80036;stroke-width:1;stroke-dasharray:5,5" x1="1307" x2="1307" y1="91.383" y2="373.578"/><line style="stroke:#a80036;stroke-width:1;stroke-dasharray:5,5" x1="1561" x2="1561" y1="91.383" y2="373.578"/><line style="stroke:#a80036;stroke-width:1;stroke-dasharray:5,5" x1="1840" x2="1840" y1="91.383" y2="373.578"/><line style="stroke:#a80036;stroke-width:1;stroke-dasharray:5,5" x1="2126" x2="2126" y1="91.383" y2="373.578"/><text x="5" y="88.081" fill="#000" font-family="sans-serif" font-size="14" lengthAdjust="spacing" textLength="66">EventBus</text><ellipse cx="41" cy="59.086" fill="#FEFECE" rx="12" ry="12" style="stroke:#a80036;stroke-width:2"/><polygon fill="#A80036" points="37 47.086 43 42.086 41 47.086 43 52.086 37 47.086" style="stroke:#a80036;stroke-width:1"/><rect width="186" height="30.297" x="240" fill="#FEFECE" style="stroke:#a80036;stroke-width:1.5" y="60.086"/><text x="247" y="80.081" fill="#000" font-family="sans-serif" font-size="14" lengthAdjust="spacing" textLength="172">AuthUserCreationService</text><rect width="208" height="30.297" x="436" fill="#FEFECE" style="stroke:#a80036;stroke-width:1.5" y="60.086"/><text x="443" y="80.081" fill="#000" font-family="sans-serif" font-size="14" lengthAdjust="spacing" textLength="194">ProjectUnassignUserService</text><rect width="190" height="30.297" x="654" fill="#FEFECE" style="stroke:#a80036;stroke-width:1.5" y="60.086"/><text x="661" y="80.081" fill="#000" font-family="sans-serif" font-size="14" lengthAdjust="spacing" textLength="176">ProjectAssignUserService</text><rect width="170" height="30.297" x="854" fill="#FEFECE" style="stroke:#a80036;stroke-width:1.5" y="60.086"/><text x="861" y="80.081" fill="#000" font-family="sans-serif" font-size="14" lengthAdjust="spacing" textLength="156">ProjectCreationService</text><rect width="158" height="30.297" x="1034" fill="#FEFECE" style="stroke:#a80036;stroke-width:1.5" y="60.086"/><text x="1041" y="80.081" fill="#000" font-family="sans-serif" font-size="14" lengthAdjust="spacing" textLength="144">ProjectDeleteService</text><rect width="211" height="30.297" x="1202" fill="#FEFECE" style="stroke:#a80036;stroke-width:1.5" y="60.086"/><text x="1209" y="80.081" fill="#000" font-family="sans-serif" font-size="14" lengthAdjust="spacing" textLength="197">ProjectChangeOwnerService</text><rect width="276" height="30.297" x="1423" fill="#FEFECE" style="stroke:#a80036;stroke-width:1.5" y="60.086"/><text x="1430" y="80.081" fill="#000" font-family="sans-serif" font-size="14" lengthAdjust="spacing" textLength="262">UserRevokeSuperAdminRightsService</text><rect width="262" height="30.297" x="1709" fill="#FEFECE" style="stroke:#a80036;stroke-width:1.5" y="60.086"/><text x="1716" y="80.081" fill="#000" font-family="sans-serif" font-size="14" lengthAdjust="spacing" textLength="248">UserGrantSuperAdminRightsService</text><rect width="291" height="30.297" x="1981" fill="#FEFECE" style="stroke:#a80036;stroke-width:1.5" y="60.086"/><text x="1988" y="80.081" fill="#000" font-family="sans-serif" font-size="14" lengthAdjust="spacing" textLength="277">UserRoleAdministrationMessageHandler</text><line style="stroke:#a80036;stroke-width:1" x1="41" x2="51" y1="122.516" y2="118.516"/><line style="stroke:#a80036;stroke-width:1" x1="41" x2="51" y1="122.516" y2="126.516"/><line style="stroke:#a80036;stroke-width:1" x1="41" x2="332" y1="122.516" y2="122.516"/><text x="58" y="117.45" fill="#000" font-family="sans-serif" font-size="13" font-weight="bold" lengthAdjust="spacing" textLength="9">1</text><text x="71" y="117.45" fill="#000" font-family="sans-serif" font-size="13" lengthAdjust="spacing" textLength="255">REQUEST_USER_ROLE_RECALCULATION</text><line style="stroke:#a80036;stroke-width:1" x1="41" x2="51" y1="151.648" y2="147.648"/><line style="stroke:#a80036;stroke-width:1" x1="41" x2="51" y1="151.648" y2="155.648"/><line style="stroke:#a80036;stroke-width:1" x1="41" x2="539" y1="151.648" y2="151.648"/><text x="58" y="146.583" fill="#000" font-family="sans-serif" font-size="13" font-weight="bold" lengthAdjust="spacing" textLength="9">2</text><text x="71" y="146.583" fill="#000" font-family="sans-serif" font-size="13" lengthAdjust="spacing" textLength="255">REQUEST_USER_ROLE_RECALCULATION</text><line style="stroke:#a80036;stroke-width:1" x1="41" x2="51" y1="180.781" y2="176.781"/><line style="stroke:#a80036;stroke-width:1" x1="41" x2="51" y1="180.781" y2="184.781"/><line style="stroke:#a80036;stroke-width:1" x1="41" x2="748" y1="180.781" y2="180.781"/><text x="58" y="175.715" fill="#000" font-family="sans-serif" font-size="13" font-weight="bold" lengthAdjust="spacing" textLength="9">3</text><text x="71" y="175.715" fill="#000" font-family="sans-serif" font-size="13" lengthAdjust="spacing" textLength="255">REQUEST_USER_ROLE_RECALCULATION</text><line style="stroke:#a80036;stroke-width:1" x1="41" x2="51" y1="209.914" y2="205.914"/><line style="stroke:#a80036;stroke-width:1" x1="41" x2="51" y1="209.914" y2="213.914"/><line style="stroke:#a80036;stroke-width:1" x1="41" x2="938" y1="209.914" y2="209.914"/><text x="58" y="204.848" fill="#000" font-family="sans-serif" font-size="13" font-weight="bold" lengthAdjust="spacing" textLength="9">4</text><text x="71" y="204.848" fill="#000" font-family="sans-serif" font-size="13" lengthAdjust="spacing" textLength="255">REQUEST_USER_ROLE_RECALCULATION</text><line style="stroke:#a80036;stroke-width:1" x1="41" x2="51" y1="239.047" y2="235.047"/><line style="stroke:#a80036;stroke-width:1" x1="41" x2="51" y1="239.047" y2="243.047"/><line style="stroke:#a80036;stroke-width:1" x1="41" x2="1112" y1="239.047" y2="239.047"/><text x="58" y="233.981" fill="#000" font-family="sans-serif" font-size="13" font-weight="bold" lengthAdjust="spacing" textLength="9">5</text><text x="71" y="233.981" fill="#000" font-family="sans-serif" font-size="13" lengthAdjust="spacing" textLength="255">REQUEST_USER_ROLE_RECALCULATION</text><line style="stroke:#a80036;stroke-width:1" x1="41" x2="51" y1="268.18" y2="264.18"/><line style="stroke:#a80036;stroke-width:1" x1="41" x2="51" y1="268.18" y2="272.18"/><line style="stroke:#a80036;stroke-width:1" x1="41" x2="1306.5" y1="268.18" y2="268.18"/><text x="58" y="263.114" fill="#000" font-family="sans-serif" font-size="13" font-weight="bold" lengthAdjust="spacing" textLength="9">6</text><text x="71" y="263.114" fill="#000" font-family="sans-serif" font-size="13" lengthAdjust="spacing" textLength="255">REQUEST_USER_ROLE_RECALCULATION</text><line style="stroke:#a80036;stroke-width:1" x1="41" x2="51" y1="297.313" y2="293.313"/><line style="stroke:#a80036;stroke-width:1" x1="41" x2="51" y1="297.313" y2="301.313"/><line style="stroke:#a80036;stroke-width:1" x1="41" x2="1560" y1="297.313" y2="297.313"/><text x="58" y="292.247" fill="#000" font-family="sans-serif" font-size="13" font-weight="bold" lengthAdjust="spacing" textLength="9">7</text><text x="71" y="292.247" fill="#000" font-family="sans-serif" font-size="13" lengthAdjust="spacing" textLength="255">REQUEST_USER_ROLE_RECALCULATION</text><line style="stroke:#a80036;stroke-width:1" x1="41" x2="51" y1="326.445" y2="322.445"/><line style="stroke:#a80036;stroke-width:1" x1="41" x2="51" y1="326.445" y2="330.445"/><line style="stroke:#a80036;stroke-width:1" x1="41" x2="1839" y1="326.445" y2="326.445"/><text x="58" y="321.379" fill="#000" font-family="sans-serif" font-size="13" font-weight="bold" lengthAdjust="spacing" textLength="9">8</text><text x="71" y="321.379" fill="#000" font-family="sans-serif" font-size="13" lengthAdjust="spacing" textLength="255">REQUEST_USER_ROLE_RECALCULATION</text><line style="stroke:#a80036;stroke-width:1" x1="2124.5" x2="2114.5" y1="355.578" y2="351.578"/><line style="stroke:#a80036;stroke-width:1" x1="2124.5" x2="2114.5" y1="355.578" y2="359.578"/><line style="stroke:#a80036;stroke-width:1" x1="41" x2="2125.5" y1="355.578" y2="355.578"/><text x="48" y="350.512" fill="#000" font-family="sans-serif" font-size="13" font-weight="bold" lengthAdjust="spacing" textLength="9">9</text><text x="61" y="350.512" fill="#000" font-family="sans-serif" font-size="13" lengthAdjust="spacing" textLength="255">REQUEST_USER_ROLE_RECALCULATION</text></g></svg>