<svg xmlns="http://www.w3.org/2000/svg" xmlns:xlink="http://www.w3.org/1999/xlink" width="493" height="176" contentScriptType="application/ecmascript" contentStyleType="text/css" preserveAspectRatio="none" style="width:493px;height:176px;background:#fff" version="1.1" viewBox="0 0 493 176" zoomAndPan="magnify"><g><text x="9.5" y="28.708" fill="#000" font-family="sans-serif" font-size="18" lengthAdjust="spacing" text-decoration="underline" textLength="201">Communication details</text><text x="222.5" y="28.708" fill="#000" font-family="sans-serif" font-size="18" lengthAdjust="spacing" textLength="17">of</text><text x="245.5" y="28.708" fill="#000" font-family="sans-serif" font-size="18" font-weight="bold" lengthAdjust="spacing" textLength="232">message JOB_CREATED</text><rect width="209" height="122.695" x="83" fill="#F8F8FF" style="stroke:#a80036;stroke-width:1" y="40.953"/><text x="154.5" y="53.02" fill="#000" font-family="sans-serif" font-size="13" font-weight="bold" lengthAdjust="spacing" textLength="66">schedule</text><rect width="192" height="122.695" x="294" fill="#C8C8CF" style="stroke:#a80036;stroke-width:1" y="40.953"/><text x="360.5" y="53.02" fill="#000" font-family="sans-serif" font-size="13" font-weight="bold" lengthAdjust="spacing" textLength="59">statistic</text><line style="stroke:#a80036;stroke-width:1;stroke-dasharray:5,5" x1="41" x2="41" y1="91.383" y2="169.648"/><line style="stroke:#a80036;stroke-width:1;stroke-dasharray:5,5" x1="187" x2="187" y1="91.383" y2="169.648"/><line style="stroke:#a80036;stroke-width:1;stroke-dasharray:5,5" x1="390" x2="390" y1="91.383" y2="169.648"/><text x="5" y="88.081" fill="#000" font-family="sans-serif" font-size="14" lengthAdjust="spacing" textLength="66">EventBus</text><ellipse cx="41" cy="59.086" fill="#FEFECE" rx="12" ry="12" style="stroke:#a80036;stroke-width:2"/><polygon fill="#A80036" points="37 47.086 43 42.086 41 47.086 43 52.086 37 47.086" style="stroke:#a80036;stroke-width:1"/><rect width="201" height="30.297" x="87" fill="#FEFECE" style="stroke:#a80036;stroke-width:1.5" y="60.086"/><text x="94" y="80.081" fill="#000" font-family="sans-serif" font-size="14" lengthAdjust="spacing" textLength="187">SchedulerCreateJobService</text><rect width="184" height="30.297" x="298" fill="#FEFECE" style="stroke:#a80036;stroke-width:1.5" y="60.086"/><text x="305" y="80.081" fill="#000" font-family="sans-serif" font-size="14" lengthAdjust="spacing" textLength="170">StatisticMessageHandler</text><line style="stroke:#a80036;stroke-width:1" x1="41" x2="51" y1="122.516" y2="118.516"/><line style="stroke:#a80036;stroke-width:1" x1="41" x2="51" y1="122.516" y2="126.516"/><line style="stroke:#a80036;stroke-width:1" x1="41" x2="186.5" y1="122.516" y2="122.516"/><text x="58" y="117.45" fill="#000" font-family="sans-serif" font-size="13" font-weight="bold" lengthAdjust="spacing" textLength="9">1</text><text x="71" y="117.45" fill="#000" font-family="sans-serif" font-size="13" lengthAdjust="spacing" textLength="88">JOB_CREATED</text><line style="stroke:#a80036;stroke-width:1" x1="388" x2="378" y1="151.648" y2="147.648"/><line style="stroke:#a80036;stroke-width:1" x1="388" x2="378" y1="151.648" y2="155.648"/><line style="stroke:#a80036;stroke-width:1" x1="41" x2="389" y1="151.648" y2="151.648"/><text x="48" y="146.583" fill="#000" font-family="sans-serif" font-size="13" font-weight="bold" lengthAdjust="spacing" textLength="9">2</text><text x="61" y="146.583" fill="#000" font-family="sans-serif" font-size="13" lengthAdjust="spacing" textLength="88">JOB_CREATED</text></g></svg>